<svg xmlns="http://www.w3.org/2000/svg" version="1.0" viewBox="0 0 337.553 200" preserveAspectRatio="xMidYMid meet">
<g>
	<path fill="#1A191A" d="M0 0c0 0 5.2 17.8 25 31.768l-11.581-1.252c0 0 12.2 17.2 34.3 28.012L35.68 57.4 c0 0 16.1 25.7 48.8 38.341c0 0 3.3 21 31.6 39.905c0 0 26.9 15.5 30 29.735c0 0 51.833-3.428 108.6 34.6 c0 0 13.392-54.792 82.811-61.403c0 0 0.059-29.743-39.29-49.448c0 0-16.135-61.715-113.791-68.426l-82.323 0.3 C102.149 21 39.3 16.8 0 0z"/>
	<path fill="#84161C" d="M23.709 16.063c0 0 16.8 22 64.5 33.136l-42.973-3.883c0 0 16.1 15.4 63.7 27.1 l-43.103-3.753c0 0 24.2 23 61.7 29.252l-23.039 3.625c0 0 2.1 11.6 41.7 37.278c0 0 13.1 11 10.4 13.7 c0 0 21.5 0.3 59 17.864c0 0 35.984-18.381-14.237-71.969c0 0-23.041-25.369-48.928-41.938c0 0 39.09-9.319 87.8 18.6 c0 0 24.9 18.6 47.6 9.319c0 0-9.32-47.116-97.079-54.624H95.419C95.419 29.8 55 26.7 23.7 16.063z"/>
	<path fill="none" stroke="#000000" d="M23.709 16.063c0 0 16.8 22 64.5 33.136l-42.973-3.883 c0 0 16.1 15.4 63.7 27.053l-43.103-3.753c0 0 24.2 23 61.7 29.252l-23.039 3.625c0 0 2.1 11.6 41.7 37.3 c0 0 13.1 11 10.4 13.72c0 0 21.5 0.3 59 17.864c0 0 35.984-18.381-14.237-71.969c0 0-23.041-25.369-48.928-41.938 c0 0 39.09-9.319 87.8 18.64c0 0 24.9 18.6 47.6 9.319c0 0-9.32-47.116-97.079-54.624H95.419 C95.419 29.8 55 26.7 23.7 16.063z"/>
	<path fill="#FFFFFF" d="M209.068 72.498c0 0 5.2 40.6 45 38.572c0 0 13.979-3.365 16.827-17.862h-5.436 c0 0-4.659 14.755-18.639 11.908c0 0-8.414-0.13-16.568-12.426l13.203-1.812C243.499 90.9 220.2 83.6 209.1 72.498z"/>
	<path fill="none" stroke="#000000" d="M209.068 72.498c0 0 5.2 40.6 45 38.572c0 0 13.979-3.365 16.827-17.862h-5.436 c0 0-4.659 14.755-18.639 11.908c0 0-8.414-0.13-16.568-12.426l13.203-1.812C243.499 90.9 220.2 83.6 209.1 72.498z"/>
	<path fill="#FDBD12" d="M262.454 129.369c0 0 40.488-7.414 67.8 5.958c0 0-34.627 1.43-57.767 21 C272.488 156.3 274.6 141.5 262.5 129.369z"/>
	<path fill="none" stroke="#000000" d="M262.454 129.369c0 0 40.488-7.414 67.8 5.958c0 0-34.627 1.43-57.767 21 C272.488 156.3 274.6 141.5 262.5 129.369z"/>
	<path fill="#FDBD12" d="M263.006 119.563c0 0 44.351-1.928 67.5 12.672c-5.467-21.58-42.689-38.389-39.667-36.913 C290.829 95.3 283.4 112.7 263 119.563z"/>
	<path fill="none" stroke="#000000" d="M263.006 119.563c0 0 44.351-1.928 67.5 12.672c-5.467-21.58-42.689-38.389-39.667-36.913 C290.829 95.3 283.4 112.7 263 119.563z"/>
</g>
</svg>
