<svg xmlns="http://www.w3.org/2000/svg" version="1.0" viewBox="0 0 219.7 207.5" preserveAspectRatio="xMidYMid meet">
  <defs id="defs2436"/>
  <g transform="translate(-15.869222,-165.76504)" id="layer1">
    <g transform="matrix(1.25,0,0,1.25,15.869222,165.76504)" id="g8" style="fill:#dce0e5;fill-rule:evenodd;stroke:none;stroke-width:1;stroke-linecap:butt;stroke-linejoin:miter;stroke-dasharray:none">
      <path d="M 163.1 66.5 C 163.1 66.5 173.5 64.9 175.4 55.1 C 177.3 45.4 170.7 37.6 158.7 32.1 C 141.4 24.3 120.6 16.7 76.9 6.9 C 53.2 1.7 46.6 0 46.6 0 C 46.6 0 0 49.8 0 49.8 C 0 49.8 40 48.5 40 48.5 C 40 48.5 26.8 68.7 29 101.7 C 31.2 134.8 45.3 151.3 56.4 158.7 C 63.9 163.8 74.3 166 74.3 166 C 74.3 166 69 158.4 70.6 149 C 72.1 139.5 75.9 134.5 78.7 129.4 C 81.6 124.4 99.8 88.5 99.8 88.5 C 99.8 88.5 106.5 88.5 109.3 88.8 C 112.1 89.1 114 90.4 114 92 C 114 93.5 112.1 95.7 112.1 95.7 C 112.1 95.7 121.6 96.4 133.9 91.7 C 146.1 86.9 150.2 79.1 150.2 79.1 C 150.2 79.1 144.9 72.4 138.6 67.4 C 132.3 62.4 127.2 59.2 127.2 59.2 C 127.2 59.2 155 59.2 155 59.2 C 155 59.2 160.3 59.2 162.2 60.8 C 164.1 62.4 163.1 66.5 163.1 66.5 z" id="path10"/>
    </g>
    <g transform="matrix(1.25,0,0,1.25,35.15996,174.42716)" id="g12" style="fill:#ffffff;fill-rule:evenodd;stroke:none;stroke-width:1;stroke-linecap:butt;stroke-linejoin:miter;stroke-dasharray:none">
      <path d="M 150.7 55.6 C 150.7 55.6 156.7 53.7 157.5 47.6 C 158.3 41.4 154.8 37 152.9 35.1 C 151 33.2 142.7 27.2 128 22 C 116 17.8 97.6 12.9 64.7 5.5 C 43.4 0.7 34.3 0 34.3 0 C 34.3 0 0 37 0 37 C 0 37 35.4 36.8 35.4 36.8 C 35.4 36.8 20.8 54.8 19.5 90.4 C 17.6 143.9 53.9 155.3 53.9 155.3 C 53.9 155.3 50.4 149 51.3 141.7 C 52.3 134.5 55.4 128.8 58.9 122.5 C 62.4 116.2 81.3 78.7 81.3 78.7 C 81.3 78.7 92.1 78.7 94.5 78.7 C 96.9 78.7 100.2 80 101.4 81.7 C 102.7 83.5 102 84.9 102 84.9 C 102 84.9 111.2 85.5 117.3 82.8 C 126.3 78.9 131 72.9 131 72.9 C 131 72.9 124.7 65.4 115.4 59.5 C 106.1 53.7 98.3 49.8 98.3 49.8 C 98.3 49.8 142.2 49.8 142.2 49.8 C 142.2 49.8 147.6 49.8 149.1 51.2 C 150.7 52.6 150.7 55.6 150.7 55.6 z" id="path14"/>
    </g>
    <g transform="matrix(1.25,0,0,1.25,54.45196,181.11904)" id="g16" style="fill:#161413;fill-rule:evenodd;stroke:none;stroke-width:1;stroke-linecap:butt;stroke-linejoin:miter;stroke-dasharray:none">
      <path d="M 137.2 46.3 C 137.2 46.3 140 44.7 140 40 C 140 36.4 136.5 32.1 133.7 30.1 C 130.9 28 124.7 24.3 114.6 20.9 C 104.6 17.6 83.3 12.4 65 8.7 C 46.8 4.9 17 0 17 0 C 17 0 19.7 3.9 19.7 3.9 C 19.7 3.9 0 25 0 25 C 0 25 69.9 30.6 69.9 30.6 C 69.9 30.6 69.3 31.3 69.3 31.3 C 69.3 31.3 22.5 31.3 22.5 31.3 C 22.5 31.3 26 34.8 26 34.8 C 26 34.8 18.4 48.2 18.4 48.2 C 18.4 48.2 57.8 40 57.8 40 C 57.8 40 56.7 41.1 56.7 41.1 C 56.7 41.1 10.7 56.7 10.7 56.7 C 10.7 56.7 14.6 59.2 14.6 59.2 C 14.6 59.2 13.2 61.9 12.3 67.6 C 11.3 73.2 10.7 78.6 10.7 78.6 C 10.7 78.6 50.1 54.5 50.1 54.5 C 50.1 54.5 49.9 55.4 49.9 55.4 C 49.9 55.4 6.5 90.1 6.5 90.1 C 6.5 90.1 10.6 91.2 10.6 91.2 C 10.6 91.2 10.7 98.6 11.5 103 C 12.3 107.4 13.5 112.4 13.5 112.4 C 13.5 112.4 49.1 70.6 49.1 70.6 C 49.1 70.6 49.1 72 49.1 72 C 49.1 72 14 123.6 14 123.6 C 14 123.6 17.5 123.6 17.5 123.6 C 17.5 123.6 19.4 129.1 23.8 134.8 C 28.2 140.5 34.6 145 34.6 145 C 34.6 145 32.3 140.1 33.2 131.8 C 33.9 126.5 39.2 117.6 41.7 112.6 C 44.3 107.6 76.4 44.1 76.4 44.1 C 76.4 44.1 70.2 40.8 70.2 40.8 C 70.2 40.8 129.9 40.8 129.9 40.8 C 129.9 40.8 133.5 41.3 135.3 42.7 C 137 44.1 137.2 46.3 137.2 46.3 z" id="path18"/>
    </g>
    <g transform="matrix(1.25,0,0,1.25,199.53184,221.86729)" id="g20" style="fill:#ffffff;fill-rule:evenodd;stroke:none;stroke-width:1;stroke-linecap:butt;stroke-linejoin:miter;stroke-dasharray:none">
      <path d="M 21.6 9.8 C 21.6 9.8 22.4 6.8 20.9 4.3 C 19.5 1.7 16.4 0 16.4 0 C 16.4 0 17 3.1 17 3.1 C 17 3.1 0.6 5.2 0.6 5.2 C 0.6 5.2 0 6.1 0 6.1 C 0 6.1 15.9 6.1 15.9 6.1 C 15.9 6.1 17.6 6.2 19.4 7.3 C 20.9 8.3 21.6 9.8 21.6 9.8 z" id="path22"/>
    </g>
    <g transform="matrix(1.25,0,0,1.25,201.30309,213.40291)" id="g24" style="fill:#ffffff;fill-rule:evenodd;stroke:none;stroke-width:1;stroke-linecap:butt;stroke-linejoin:miter;stroke-dasharray:none">
      <path d="M 12.4 8.2 C 12.4 8.2 10.7 5.8 7.9 4.1 C 5 2.4 0 0 0 0 C 0 0 3.5 2.9 5.2 5 C 6.9 7 7.4 8 7.4 8 C 7.4 8 12.4 8.2 12.4 8.2 z" id="path26"/>
    </g>
    <g transform="matrix(1.25,0,0,1.25,76.893335,194.70179)" id="g28" style="fill:#b01742;fill-rule:evenodd;stroke:none;stroke-width:1;stroke-linecap:butt;stroke-linejoin:miter;stroke-dasharray:none">
      <path d="M 93.2 18 C 93.2 18 72.2 12.3 47.9 7.6 C 23.5 2.8 5.5 0 5.5 0 C 5.5 0 0 6.5 0 6.5 C 0 6.5 93.1 19.1 93.1 19.1 C 93.1 19.1 93.2 18 93.2 18 z" id="path30"/>
    </g>
    <g transform="matrix(1.25,0,0,1.25,87.227835,226.00066)" id="g32" style="fill:#b01742;fill-rule:evenodd;stroke:none;stroke-width:1;stroke-linecap:butt;stroke-linejoin:miter;stroke-dasharray:none">
      <path d="M 28.4 0 C 28.4 0 3.2 0.5 3.2 0.5 C 3.2 0.5 0 6.1 0 6.1 C 0 6.1 28.1 0.8 28.1 0.8 C 28.1 0.8 28.4 0 28.4 0 z" id="path34"/>
    </g>
    <g transform="matrix(1.25,0,0,1.25,75.612835,244.40641)" id="g36" style="fill:#b01742;fill-rule:evenodd;stroke:none;stroke-width:1;stroke-linecap:butt;stroke-linejoin:miter;stroke-dasharray:none">
      <path d="M 29.1 0 C 29.1 0 1.8 9.8 1.8 9.8 C 1.8 9.8 0 17.1 0 17.1 C 0 17.1 28.7 1.1 28.7 1.1 C 28.7 1.1 29.1 0 29.1 0 z" id="path38"/>
    </g>
    <g transform="matrix(1.25,0,0,1.25,74.03821,267.43866)" id="g40" style="fill:#b01742;fill-rule:evenodd;stroke:none;stroke-width:1;stroke-linecap:butt;stroke-linejoin:miter;stroke-dasharray:none">
      <path d="M 26.5 0 C 26.5 0 0 22.4 0 22.4 C 0 22.4 0.1 25.4 0.3 26.8 C 0.6 28.2 0.9 29.9 0.9 29.9 C 0.9 29.9 26.6 1.3 26.6 1.3 C 26.6 1.3 26.5 0 26.5 0 z" id="path42"/>
    </g>
    <g transform="matrix(1.25,0,0,1.25,84.27496,289.97641)" id="g44" style="fill:#b01742;fill-rule:evenodd;stroke:none;stroke-width:1;stroke-linecap:butt;stroke-linejoin:miter;stroke-dasharray:none">
      <path d="M 23.1 0 C 23.1 0 15.5 11.3 10.3 19.2 C 5.1 27.2 0 34.8 0 34.8 C 0 34.8 1.2 37.2 2 38.4 C 2.8 39.7 4 41.3 4 41.3 C 4 41.3 23.7 0.7 23.7 0.7 C 23.7 0.7 23.1 0 23.1 0 z" id="path46"/>
    </g>
    <g transform="matrix(1.25,0,0,1.25,139.58934,237.81216)" id="g48" style="fill:#161413;fill-rule:evenodd;stroke:none;stroke-width:1;stroke-linecap:butt;stroke-linejoin:miter;stroke-dasharray:none">
      <path d="M 10.5 0 C 10.5 0 24.4 6.9 31.9 11.9 C 39.4 16.9 44.5 22.4 44.5 22.4 C 44.5 22.4 42.9 24.7 39.1 27.2 C 35.4 29.6 31.4 30.2 31.4 30.2 C 31.4 30.2 34.4 27.6 34.6 26.2 C 34.9 24.9 34.3 24.6 33.5 24.6 C 32.8 24.6 24.9 24.6 24.9 24.6 C 24.9 24.6 23.5 25.6 23.5 27.7 C 23.6 29.8 24.6 31.2 24.6 31.2 C 24.6 31.2 21.9 30.8 19.9 28.5 C 18 26.2 18 24.6 18 24.6 C 18 24.6 0 24.6 0 24.6 C 0 24.6 11.3 2.4 11.3 2.4 C 11.3 2.4 10.5 0 10.5 0 z" id="path50"/>
    </g>
    <g transform="matrix(1.25,0,0,1.25,147.56184,259.76153)" id="g52" style="fill:#b01742;fill-rule:evenodd;stroke:none;stroke-width:1;stroke-linecap:butt;stroke-linejoin:miter;stroke-dasharray:none">
      <path d="M 2.2 0 C 2.2 0 22.3 3.1 22.3 3.1 C 22.3 3.1 21.8 4 21.8 4 C 21.8 4 0 4 0 4 C 0 4 2.2 0 2.2 0 z" id="path54"/>
    </g>
  </g>
</svg>
