<svg
   xmlns:dc="http://purl.org/dc/elements/1.1/"
   xmlns:cc="http://creativecommons.org/ns#"
   xmlns:rdf="http://www.w3.org/1999/02/22-rdf-syntax-ns#"
   xmlns:svg="http://www.w3.org/2000/svg"
   xmlns="http://www.w3.org/2000/svg"
   xmlns:sodipodi="http://sodipodi.sourceforge.net/DTD/sodipodi-0.dtd"
   xmlns:inkscape="http://www.inkscape.org/namespaces/inkscape"
   viewBox="0 0 1349.6781 651.18091" preserveAspectRatio="xMidYMid meet"
   id="svg2"
   version="1.1"
   inkscape:version="0.48.4 r9939"
   sodipodi:docname="Baltimore_Ravens_logo.svg"
   inkscape:export-filename=""
   inkscape:export-xdpi="222.77"
   inkscape:export-ydpi="222.77"
   style="enable-background:new">
  <title
     id="title4260">Baltimore Ravens logo</title>
  <defs
     id="defs4" />
  <sodipodi:namedview
     id="base"
     pagecolor="#ffffff"
     bordercolor="#666666"
     borderopacity="1.0"
     inkscape:pageopacity="0.0"
     inkscape:pageshadow="2"
     inkscape:zoom="0.50000002"
     inkscape:cx="478.56668"
     inkscape:cy="500.67865"
     inkscape:document-units="px"
     inkscape:current-layer="g3923"
     showgrid="false"
     inkscape:window-width="1920"
     inkscape:window-height="1103"
     inkscape:window-x="0"
     inkscape:window-y="35"
     inkscape:window-maximized="1"
     fit-margin-top="0"
     fit-margin-left="0"
     fit-margin-right="0"
     fit-margin-bottom="0"
     inkscape:snap-bbox="true"
     inkscape:bbox-paths="true"
     inkscape:bbox-nodes="true"
     inkscape:snap-bbox-edge-midpoints="true"
     inkscape:snap-bbox-midpoints="true"
     inkscape:object-paths="true"
     inkscape:snap-intersection-paths="true"
     inkscape:snap-smooth-nodes="true"
     inkscape:object-nodes="true"
     inkscape:snap-midpoints="true"
     inkscape:snap-global="false" />
  <metadata
     id="metadata7">
    <rdf:RDF>
      <cc:Work
         rdf:about="">
        <dc:format>image/svg+xml</dc:format>
        <dc:type
           rdf:resource="http://purl.org/dc/dcmitype/StillImage" />
        <dc:title>Baltimore Ravens logo</dc:title>
        <dc:date>August 8, 2014</dc:date>
        <dc:creator>
          <cc:Agent>
            <dc:title>Wikipedia user: rtmorgan</dc:title>
          </cc:Agent>
        </dc:creator>
        <cc:license
           rdf:resource="https://en.wikipedia.org/wiki/Wikipedia:Non-free_content" />
        <dc:rights>
          <cc:Agent>
            <dc:title>Fair use</dc:title>
          </cc:Agent>
        </dc:rights>
      </cc:Work>
    </rdf:RDF>
  </metadata>
  <g
     style="display:inline"
     inkscape:label="base_layer"
     id="g3923"
     inkscape:groupmode="layer"
     transform="translate(-336.5,-264.19411)">
    <path
       style="fill:#ffffff;fill-opacity:1;stroke:none"
       d="M 949.9375,264.21875 C 810.14809,265.43147 671.66734,311.43699 551,399.6875 475.83835,451.41404 413.08644,532.54843 336.5,632 c 0,0 75.78432,-29.43034 125.625,-49.71875 31.00162,-12.61968 165.71663,-53.43964 179.375,-36.09375 12.13619,15.41275 -18.78405,60.03279 -27.40625,73.15625 -28.19421,42.91314 -73.875,108.875 -73.875,108.875 0,0 100.30146,-36.89333 149.21875,-48.28125 12.22051,-2.84493 75.2379,-20.46409 56.875,8.1875 -15.70442,24.50357 -64.34375,90.28125 -64.34375,90.28125 0,0 87.66823,-34.07929 141.65625,-49.65625 57.44264,-16.57371 189.0574,-38.01461 155.25,8.6875 -5.90649,8.1593 -35.15625,55.59375 -35.15625,55.59375 l 64.62505,-9.25 c 0,0 -0.8133,45.91989 31.8437,86.125 4.3875,5.40159 44.0313,45.46875 44.0313,45.46875 5.8929,-24.10715 15.4502,-63.52721 23.125,-82.8125 11.8514,-29.78063 39.3124,-50.46875 39.3124,-50.46875 0,0 2.3298,8.85152 3.7188,23.625 0,0 44.0672,-14.3878 67.3125,-25.125 26.8865,-12.41912 46.0625,-30.375 46.0625,-30.375 29.1682,-1.89404 74.0429,-4.39119 114.0938,-1.65625 18.843,1.28674 53.5403,5.25513 84.7187,5.71875 36.3044,0.52244 80.8491,-3.65994 88.7813,-4.75 24.4338,-3.35775 39.6388,-10.18126 61.9062,-7 14.804,2.11498 27.0247,10.17464 46.3438,20.78125 9.5219,-17.76374 20.0967,-31.16967 25.625,-61.84375 3.6336,-20.16089 -0.7975,-82.04951 -53.6876,-126.875 C 1591.7571,540.88431 1566.875,530.25 1566.875,530.25 c 8.8407,-4.07218 16.1361,-6.75304 26.125,-9.46875 0,0 -31.5818,-13.72962 -51.1875,-21.3125 -13.119,-5.07403 -49.9063,-18.125 -49.9063,-18.125 0,0 2.6781,-3.78711 4.5626,-5.53125 2.8104,-2.60123 4.8437,-4.96875 4.8437,-4.96875 0,0 -41.69,-7.47435 -69.4375,-10.84375 -16.9694,-2.06061 -56.5938,-2.4375 -56.5938,-2.4375 -4.4193,-42.17387 -7.6308,-65.20701 -10.1562,-85.03125 -8.0812,11.23795 -13.8106,20.50777 -26.4375,35.28125 -26.3674,-37.90777 -43.669,-51.96113 -83.5313,-98.28125 0,0 1.4031,14.43786 2.0313,21.53125 0.5237,5.91285 1.4375,17.5 1.4375,17.5 0,0 -44.2986,-34.90426 -132.1562,-61.75 -58.2449,-15.63879 -117.5091,-23.10579 -176.5313,-22.59375 z m 422,252.40625 45.6563,8.40625 62.125,17.90625 66.6562,25.90625 41.0312,28.125 24.0626,25.625 20.0312,30.125 4.5,50 -20.7812,-7 -111.75,13 -132.2813,-10.5 -96.7813,2.5 -36.7812,9.5 -101.75,-76 -182.78125,-3.5 0.71875,-47.5 156,-62 60.0313,-3.15625 146.0312,26.84375 16.0312,-24.15625 40.0313,-4.125 z"
       id="white_outline"
       inkscape:connector-curvature="0" />
    <path
       transform="translate(0,1.9552303e-6)"
       style="fill:#8e7636;fill-opacity:1;stroke:none;display:inline;enable-background:new"
       d="m 954.75,282.25 c -3.02568,-0.0109 -6.03707,0.004 -9.0625,0.0313 -198.7833,2.9594 -392.673,101.886 -514.25,258.4375 -13.8273,16.6582 -27.2369,33.6624 -40.6875,50.625 77.6434,-30.697 156.70295,-63.5465 241.15625,-67.125 28.0596,-1.189 37.28735,17.27035 31.03125,36.96875 -10.1226,31.8728 -33.66735,64.86165 -50.46875,93.15625 -8.7872,12.9099 -17.73585,25.7207 -26.53125,38.625 60.4859,-17.7612 122.83835,-43.2004 170.28125,-38.3125 17.2715,1.7794 15.53775,27.9429 5.71875,42.375 -9.9502,14.6249 -21.1971,28.2185 -30.125,43.4375 72.937,-26.5247 146.6161,-50.0366 225.3125,-48.3125 18.4463,0.4042 44.9653,5.5559 46.6562,25.6875 1.4594,17.3746 -13.14755,36.70665 -22.99995,49.78125 15.55564,0.5846 44.52415,-6.8326 44.53125,-5.25 0.2352,52.8795 12.3636,82.6627 49.375,117.875 5.8347,-45.4783 34.7716,-111.91495 87.1563,-124.96875 1.987,16.373 0.9039,16.38275 3.25,26.46875 32.2991,-10.4004 71.4169,-28.6722 91.9374,-48.625 37.1319,-2.914 65.9832,-4.4811 98.9063,-3 73.826,3.3212 147.7432,12.1728 220.0937,-3.5625 24.0881,-5.2388 49.4611,-5.32525 76.5626,11.78125 29.3822,-40.1001 12.0924,-102.4153 -17,-133.8125 -28.764,-34.6916 -96.1473,-69.42411 -119.7188,-77.28125 l 24.375,-7.71875 c -31.5673,-14.39467 -82.875,-29.1875 -82.875,-29.1875 l 6.5938,-6.78125 c -26.5165,-7.32361 -90.0488,-9.02538 -106.9688,-6.5 1.0101,-10.10153 -1.2897,-49.14768 -3.5625,-56.21875 -4.2932,3.78808 -17.9687,24.625 -17.9687,24.625 -5.8084,-30.55712 -55.5626,-78.875 -55.5626,-78.875 0,0 1.634,11.06696 1.8126,23.03125 -65.2323,-60.78679 -169.1629,-95.81132 -263.5,-104.28125 -21.08366,-2.01459 -42.28906,-3.01774 -63.4688,-3.09375 z m 417.1875,234.375 45.6563,8.40625 62.125,17.90625 66.6562,25.90625 41.0312,28.125 24.0626,25.625 20.0312,30.125 4.5,50 -20.7812,-7 -111.75,13 -132.2813,-10.5 -96.7813,2.5 -36.7812,9.5 -101.75,-76 -182.78125,-3.5 0.71875,-47.5 156,-62 60.0313,-3.15625 146.0312,26.84375 16.0312,-24.15625 40.0313,-4.125 z"
       id="gold_outline"
       inkscape:connector-curvature="0" />
    <path
       transform="translate(0,1.9552303e-6)"
       style="fill:#ffffff;fill-opacity:1;stroke:none;display:inline;enable-background:new"
       d="m 1371.9375,516.625 45.6563,8.40625 62.125,17.90625 66.6562,25.90625 41.0312,28.125 24.0626,25.625 20.0312,30.125 4.5,50 -20.7812,-7 -111.75,13 -132.2813,-10.5 -96.7813,2.5 -36.7812,9.5 -101.75,-76 -182.78125,-3.5 0.71875,-47.5 156,-62 60.0313,-3.15625 146.0312,26.84375 16.0312,-24.15625 40.0313,-4.125 z"
       id="white_beak"
       inkscape:connector-curvature="0" />
    <path
       transform="translate(0,1.9552303e-6)"
       style="fill:#000000;fill-opacity:1;stroke:none;display:inline;enable-background:new"
       d="m 961.125,301.3125 c -80.56119,0.20092 -156.64974,15.88126 -218,38.125 -116.68642,42.30693 -201.01252,122.13296 -249.5,182.84375 41.80243,-20.59489 185.20307,-56.80086 210.6875,-23.40625 29.05892,38.0786 -37.46684,128.00388 -51,150.1875 36.63479,-10.90765 130.27984,-42.36411 156.125,-17.6875 14.51535,13.85906 -7.78125,46.09375 -7.78125,46.09375 0,0 172.72831,-49.32186 214.12495,12.34375 17.0132,25.34304 -4.9374,60.59375 -4.9374,60.59375 l 45.375,-9.375 c 0,0 -7.2499,20.56387 -4.1563,52.8125 1.9663,20.4961 15.3437,43.625 15.3437,43.625 13.3968,-44.83661 38.9925,-83.97605 109.4376,-101.96875 l 4.8124,21.15625 c 26.0247,-6.61281 60.2987,-28.90842 69.3438,-42 33.8401,-5.05076 84.4922,-8.42619 127.1562,-4.15625 51.2979,5.13402 87.2572,10.41757 171.7813,4.0625 55.6613,-4.18498 61.0813,-18.20942 89.875,0.375 17.5127,-34.03732 -1.5946,-83.36181 -41.9687,-119.25 -49.4266,-43.93471 -76.5387,-52.77839 -134.875,-71.71875 l 29.375,-4.375 c -15.6575,-7.57614 -51.5475,-16.16847 -68.5938,-18.0625 l 6.9688,-6.875 c 0,0 -21.6322,-4.332 -39.3438,-5.3125 -13.6742,-0.757 -48.0625,0.0313 -48.0625,0.0313 1.5152,-10.6066 2.7002,-27.28822 1.4375,-39.03125 0,0 -12.1929,19.93576 -17.875,23.21875 -0.3571,-14.73214 -8.0625,-45.8259 -29.3125,-66.71875 l 3.7813,34.46875 c 0,0 -36.0661,-61.14666 -123.6563,-98.25 -70.9327,-30.04724 -145.4791,-41.92729 -216.5625,-41.75 z M 1359,527 c 162.1295,13.38452 277.2215,98.81137 267.625,164.21875 C 1611.8911,654.13153 1480.3459,626.39893 1409.3125,616 c -85.594,-12.53052 -196.4836,-33.20208 -196.0937,-12.40625 0.3561,19.00269 53.3437,43.1875 53.3437,43.1875 0,0 -13.575,-14.52545 -4.5625,-21.21875 8.1192,-6.02984 114.1065,5.73469 149.5938,11.84375 92.1575,15.86475 155.3973,31.08482 186.4687,47.15625 -62.1133,12.41473 -133.1672,11.60098 -163.125,7.4375 -63.4823,-8.82268 -132.8154,-8.43034 -147.5,-3.375 l -26.9687,-22.0625 c 0,0 -6.1272,19.18249 -16.5938,30.53125 l -101.3438,-75.875 -175.37495,-2.5625 0.3125,-22.90625 144.25005,-61.875 51.0312,-2.5625 c 0,0 13.593,5.2439 54.0938,8.6875 68.6898,5.8404 159,36.59375 159,36.59375 l -42.5313,-30.8125 54.2813,4.90625 L 1359,527 z"
       id="black_fill"
       inkscape:connector-curvature="0" />
    <path
       style="fill:#27328c;fill-opacity:1;stroke:none;display:inline;enable-background:new"
       d="M 624.09375 64.84375 C 473.29146 67.6619 351.11814 111.03572 253.03125 198.90625 C 297.13774 187.34204 379.5 172.66397 406.1875 203.28125 C 430.27939 230.92071 416.02114 292.50401 382.125 347.90625 L 418.84375 342.84375 C 433.94671 289.55692 456.04661 225.09673 486.125 184.9375 C 508.8783 154.55838 527.87602 145.74887 550.53125 138.40625 C 500.27616 140.17401 410.83331 150.37643 331.03125 165.78125 C 379.26604 126.63784 469.97373 100.95228 544.9375 88.65625 C 656.56317 70.3467 715.83335 90.78998 728.65625 104.46875 C 758.22495 136.01102 737.8269 178.44971 653.8125 202.0625 C 713.4115 213.42672 707.3068 258.68052 695.4375 271.8125 L 681.21875 253.53125 L 550.90625 311.5625 L 561.1875 331.1875 C 561.1875 331.1875 533.38558 348.30323 514.28125 374.03125 C 575.52923 363.97316 662.82398 357.8209 700.875 383.90625 C 733.4048 406.20664 716.15625 448.3125 716.15625 448.3125 L 780.59375 431.1875 C 753.82465 464.26999 728.59895 489.17801 730.84375 522.96875 C 755.43985 460.9196 832.77235 471.26461 858.53125 407.625 C 858.53125 407.625 875.49515 423.57463 863.28125 467.96875 C 885.69345 460.59824 907.375 432.90625 907.375 432.90625 C 915.8715 415.56188 903.5 390.625 903.5 390.625 C 903.5 390.625 839.95785 360.02321 845.53125 339.53125 C 847.72775 331.45565 862.15625 329.28125 862.15625 329.28125 C 862.15625 329.28125 817.25865 321.43277 759.28125 326.6875 C 670.91975 334.69607 640.65625 347.96875 640.65625 347.96875 C 666.4152 333.57408 762.03085 284.06456 929.96875 311.84375 C 895.11845 285.32725 767.96875 281.9375 767.96875 281.9375 C 767.96875 281.9375 821.40925 270.80155 880.34375 275.8125 C 880.34375 275.8125 810.55035 250.45749 715.34375 267.125 C 715.34375 267.125 740.15145 232.35136 821.46875 231.59375 C 787.62865 205.07725 715.46875 209.9375 715.46875 209.9375 C 715.46875 209.9375 781.9134 176.67465 858.9375 187.28125 C 858.9375 187.28125 848.38355 161.05933 782.21875 148.9375 C 893.58805 143.88674 932.28125 203.5625 932.28125 203.5625 C 904.50225 193.20843 887.65625 193.53125 887.65625 193.53125 C 887.65625 193.53125 915.4916 203.40788 926.25 227.3125 C 937.4381 252.17178 961.2018 269.987 966 265.0625 C 969.0305 210.51426 949.57275 182.46522 916.34375 152.96875 C 865.97135 108.25483 753.505 64.85568 624.09375 64.84375 z M 605.0625 146.78125 C 605.0625 146.78125 583.7492 157.82962 580.71875 193.4375 C 625.418 193.81631 624.11545 189.28005 628.90625 169.96875 C 635.02534 145.30326 605.0625 146.78125 605.0625 146.78125 z M 565.375 233.65625 C 564.09567 233.67521 562.80972 233.70233 561.53125 233.78125 C 561.53125 233.78125 521.00396 266.34533 536.15625 297.28125 C 576.05728 306.8777 589.08095 290.49457 597.125 261.46875 C 603.05499 240.07124 584.56502 233.37178 565.375 233.65625 z "
       transform="translate(336.5,264.19411)"
       id="purple_fill" />
    <path
       transform="translate(0,1.9552303e-6)"
       style="fill:#ffffff;fill-opacity:1;stroke:none;display:inline;enable-background:new"
       d="m 963.3125,345.5625 c -23.24267,0.0307 -50.48028,2.13169 -81.875,7.28125 -74.96377,12.29603 -165.67146,37.98159 -213.90625,77.125 79.80206,-15.40482 169.24491,-25.60724 219.5,-27.375 -22.65523,7.34262 -41.65295,16.15213 -64.40625,46.53125 -30.07839,40.15923 -52.17829,104.61942 -67.28125,157.90625 0,0 53.34375,-8.03125 142.34375,-11.65625 5.72209,-3.81926 11.28104,-7.34547 16.71875,-10.65625 l 3.375,-8.09375 85.17015,-38.02759 13.1111,2.15259 -0.063,0.0313 c 8.2966,-2.2104 13.8277,-3.50559 15.9375,-4.78125 11.8693,-13.13198 17.974,-58.38578 -41.625,-69.75 84.0144,-23.61279 104.4125,-66.05148 74.8437,-97.59375 -9.2164,-9.83162 -42.4458,-23.17211 -101.8437,-23.09375 z M 960.03125,398.5 c 15.12962,0.10219 35.41066,3.86609 29.75,25.3125 -5.11078,19.36306 -21.29726,36.59042 -72.5625,33.8125 11.41702,-22.74692 23.39629,-49.47733 33.96875,-58.8125 1.7362,-0.12627 3.72627,-0.23207 5.90625,-0.28125 0.95374,-0.0215 1.92886,-0.038 2.9375,-0.0313 z m -40.375,86.15625 c 19.59335,-0.28448 46.0201,2.76627 37.8125,31.65625 -5.80268,20.42491 -19.27886,49.32313 -84.8125,45.15625 1.79285,-5.7719 11.75879,-34.47828 31.21875,-76.25 3.47596,-0.003 9.25013,-0.46767 15.78125,-0.5625 z"
       id="B_white_outline"
       inkscape:connector-curvature="0"
       sodipodi:nodetypes="csccscccccccccsscsccccssscscs" />
    <path
       transform="translate(0,1.9552303e-6)"
       style="fill:#8e7636;fill-opacity:1;stroke:none;display:inline;enable-background:new"
       d="m 955.75,359.75 c -62.1657,0.37629 -147.43563,13.09737 -239.8125,53.46875 121.35198,-25.4499 255.12028,-29.16572 271.34375,-21.3125 40.41185,19.56193 6.68071,61.35571 -21.25,68.25 110.30865,-18.38478 113.75305,-69.67358 85.31255,-86.09375 -12.8653,-7.42773 -47.2427,-14.60517 -95.5938,-14.3125 z m -29.5,47.96875 c -88.91868,7.24785 -114.39463,81.43606 -151.46875,185.40625 57.5,-5.25 139.5625,-8.375 139.5625,-8.375 l 0.0625,-0.0313 C 960.78029,556.4822 996.40221,546.00554 1016,540.78125 l 0.063,-0.0313 c 0,0 59.9062,-79.84375 -118.59375,-72.59375 L 926.25,407.71875 z m -9.71875,67.75 c 37.98723,-0.029 49.92505,6.83674 53.28125,27.125 2.53072,15.29826 -6.23097,47.95649 -35.6875,62.53125 -23.70113,11.72705 -80.46875,9.46875 -80.46875,9.46875 0,0 16.21875,-51.3125 38.96875,-98.4375 8.93166,-0.43716 16.87158,-0.68213 23.90625,-0.6875 z"
       id="B_gold_fill"
       inkscape:connector-curvature="0" />
    <path
       inkscape:connector-curvature="0"
       id="eye_red"
       d="m 1226.0727,497.64197 c 0,15.06308 -16.1683,27.27412 -36.113,27.27412 -19.9446,0 -36.1129,-12.21104 -36.1129,-27.27412 0,-15.06308 16.1683,-27.27412 36.1129,-27.27412 19.9447,0 36.113,12.21104 36.113,27.27412 z"
       style="fill:#c90006;fill-opacity:1;stroke:none;display:inline;enable-background:new"
       transform="matrix(0.85664336,0,0,0.99074075,191.17049,3.850182)" />
    <path
       sodipodi:type="arc"
       style="fill:#000000;fill-opacity:1;stroke:none;display:inline;enable-background:new"
       id="eye_black"
       sodipodi:cx="1189.9597"
       sodipodi:cy="497.64197"
       sodipodi:rx="36.112953"
       sodipodi:ry="27.274118"
       d="m 1226.0727,497.64197 c 0,15.06308 -16.1683,27.27412 -36.113,27.27412 -19.9446,0 -36.1129,-12.21104 -36.1129,-27.27412 0,-15.06308 16.1683,-27.27412 36.1129,-27.27412 19.9447,0 36.113,12.21104 36.113,27.27412 z"
       transform="matrix(0.46136275,0,0,0.5925926,672.64562,207.16425)" />
    <path
       transform="translate(0,1.9552303e-6)"
       sodipodi:nodetypes="cscsc"
       inkscape:connector-curvature="0"
       id="eye_white"
       d="m 1226.25,480.35715 c -15.625,-2.05357 -23.5685,5.77565 -26.25,11.07142 -3.9777,7.85534 -1.7858,20.17857 4.4642,25.35715 -17.4995,-6.0133 -19.1663,-22.0094 -11.1627,-31.59412 6.7509,-8.08454 20.6928,-11.20744 32.9485,-4.83445 z"
       style="fill:#ffffff;fill-opacity:1;stroke:none;display:inline;enable-background:new" />
  </g>
</svg>
