<!DOCTYPE svg PUBLIC "-//W3C//DTD SVG 1.1//EN" "http://www.w3.org/Graphics/SVG/1.1/DTD/svg11.dtd" [
	<!ENTITY ns_svg "http://www.w3.org/2000/svg">
	<!ENTITY ns_xlink "http://www.w3.org/1999/xlink">
]>
<svg version="1.1" id="CAROLINA_PANTHERS" xmlns="&ns_svg;" xmlns:xlink="&ns_xlink;"
	 viewBox="0 0 367.938 200" preserveAspectRatio="xMidYMid meet" overflow="visible" enable-background="new 0 0 367.938 200" xml:space="preserve">
<g>
	<path fill="#FFFFFF" d="M354.832,52.161c-5.396-2.391-11.161-5.195-26.565-7.47c-0.251-1.226-0.654-2.546-1.214-3.981
		c0,0,8.278-7.576,9.542-17.314c0.255-1.956-1.853-8.087-7.055-7.912c-4.969,0.167-9.986-0.523-14.218-2.079
		C280.915-0.847,234.506-3.708,190.536,4.694c-10.615,1.885-27.222,7.74-36.923,8.092c-1.793,0.064-8.856-1.032-13.576,1.523
		c-3.187,1.728-5.974,5.927-4.214,9.785c2.816,6.163,6.679,11.48,11.733,16.665C64.39,75.753,0,162.428,0,162.428
		c72.211-16.709,121.9-12.591,183.391,15.476c64.351,28.317,98.959,21.333,98.959,21.333c-0.155-4.649-2.654-20.592-5.244-29.58
		c11.073-2.074,13.879-11.52,13.719-15.933c-0.007-0.255-1.447-27.133-1.609-30.045c12.625-8.126,28.47-36.306,33.758-51.308
		c19.125,0.956,34.262,4.937,44.965,11.515C366.125,77.896,360.223,58.653,354.832,52.161z"/>
	<g>
		<path d="M321.248,64.226c0.472-1.263,1.283-4.047,1.602-5.205c10.323-0.391,23.356,0.769,33.657,5.167
			c0,0-13.368-7.745-33.117-7.782c0.172-0.634,0.688-3.479,0.855-5.126c9.089,0.359,17.984,1.194,26.059,4.389
			c-8.133-4.396-17.048-5.603-26.025-6.807c-0.059-3.013-0.723-6.871-2.772-9.701c0,0,7.229-4.231,10.144-16.012
			c0.364-2.049-0.929-2.835-2.01-2.782c-5.814,0.224-15.727-2.147-19.884-3.71C274.285,2.438,228.467,2.089,189.367,9.68
			c-8.04,1.42-24.157,7.064-35.397,7.976c-3.919,0.315-7.418-0.747-11.222,0.659c-1.315,0.482-3.072,2.251-2.251,4.256
			c3.494,7.353,9.055,15.294,14.739,19.668C117.723,56.235,57.691,98.54,13.839,154.11c89.563-17.869,136.766,5.131,164.305,16.272
			c31.44,12.977,67.773,26.531,98.595,24.211c0,0-1.668-15.486-5.654-29.249c0,0,15.146,0.759,14.881-11.476
			c-0.546-11.507-1.207-21.69-1.75-32.109c16.523-10.996,30.942-42.294,36.004-54.645c13.611,0.423,27.244,2.458,39.604,7.549
			C359.825,74.665,345.366,65.03,321.248,64.226z"/>
		<g>
			<path fill="#2186C8" d="M169.08,78.704c2.108-0.936,4.266-1.826,6.455-2.678c-0.676-3.155-1.04-6.49-1.079-10.07
				c-2.192,0.521-4.401,1.091-6.625,1.715C167.895,71.62,168.318,75.289,169.08,78.704z"/>
			<path fill="#2186C8" d="M175.744,51.532c-2.244,0.408-4.5,0.875-6.772,1.396c-0.737,4.688-1.113,9.067-1.14,13.161
				c2.192-0.855,4.406-1.676,6.645-2.448C174.574,59.882,174.997,55.867,175.744,51.532z"/>
			<path fill="#2186C8" d="M204.835,112.219c-15.792-10.913-25.238-20.877-28.777-34.025c-2.221,0.661-4.42,1.376-6.595,2.143
				C173.522,95.814,185.15,105.833,204.835,112.219z"/>
			<path fill="#2186C8" d="M312.711,64.054c1.932-0.064,3.996-0.066,6.011,0.039c0.531-1.661,0.998-3.283,1.391-4.865
				c-1.096,0.047-3.455,0.147-5.863,0.292C313.773,61.032,313.262,62.545,312.711,64.054z"/>
			<path fill="#2186C8" d="M315.911,51.36c0,1.479-0.182,3.037-0.599,4.654c-0.025,0.074-0.044,0.138-0.064,0.209
				c2.143-0.046,3.14-0.007,5.553-0.069c0.329-1.7,0.57-3.337,0.693-4.897C319.892,51.225,317.965,51.257,315.911,51.36z"/>
			<path fill="#2186C8" d="M327.952,22.379c-5.303,0.182-10.537-0.386-15.658-2.01c-28.136-11.448-68.007-16.736-112.838-9.61
				c-31.529,4.853-30.696,9.562-54.542,9.281c-1.548,0.118-2.255,1.381-1.248,3.231c3.991,7.325,9.563,14.79,16.387,19.506
				C84.613,71.234,20.951,149.773,20.951,149.773c72.646-12.699,115.501-0.442,166.101,21.012c0,0,58.557,24.826,87.046,21.098
				c-0.904-10.303-3.735-19.641-5.905-29.101c15.552,0.757,15.326-7.868,15.144-12.488c-0.398-10.242-1.214-19.486-1.831-29.438
				c9.694-4.668,28.167-31.372,36.203-53.789c-1.538,0.039-3.882,0.231-6.335,0.499c-9.244,23.339-25.545,45.152-35.36,50.632
				c0.197,2.003,1.396,19.165,1.998,29.406c0.012,2.659-2.146,6.957-5.456,7.708c-9.035,1.99-17.56,1.873-26.777-0.479
				c-9.578-2.581-10.755-16.324-10.841-28.917c-1.671-0.169-2.423,22.558,0.855,28.247c5.183,8.615,18.786,8.315,24.025,8.502
				c2.528,7.106,4.337,15.304,5.182,23.015c-24.101-0.481-45.848-11.448-67.958-19.702c-1.926-11.866,3.615-21.747,9.097-31.084
				c0,0-13.333,11.382-16.625,28.072c-36.292-15.299-56.227-25.307-102.355-28.617c10.421-16.385,23.614-31.927,39.641-43.675
				c-12.665,4.266-37.699,27.069-52.352,42.955l-20.965,0.121c29.209-35.955,80.704-80.311,116.813-87.896
				c-0.447,2.069-0.828,4.079-1.155,6.038c2.293-0.715,4.588-1.378,6.893-1.985c0.417-2.234,0.909-4.539,1.489-6.944
				c-14.328-1.877-22.042-11.286-23.752-14.641c-0.673-1.7,0.32-2.469,1.224-2.587c17.211,0.482,26.853-5.581,43.327-8.345
				c33.557-5.667,71.993-6.337,107.589,7.799c4.458,1.718,9.559,2.261,14.621,2.501c1.46,0.226,1.18,1.511,0.556,2.378
				c-2.934,3.6-8.173,6.328-12.287,6.387c2.595,2.211,5.961,6.433,6.875,11.984c2.089-0.01,4.104,0.064,5.927,0.236
				c-0.005-4.271-0.983-7.814-3.224-10.229c4.684-1.84,8.679-7.735,10.557-13.004C329.308,24.315,329.495,22.433,327.952,22.379z"/>
		</g>
		<g>
			<path fill="#D8D8D7" d="M305.91,34.405c-4.885-3.494-10.729-6.025-16.449-3.615c-4.281,3.315-9.34,5.359-14.338,6.084
				c1.625,0.422,4.155,0.422,6.205,0c5.48,3.012,10.242-1.748,15.363-2.59c-2.712-0.543-5.907-0.784-8.436-0.904
				C293.614,30.247,300.423,32.355,305.91,34.405z"/>
			<path fill="#D8D8D7" d="M168.971,52.928c2.273-0.521,4.529-0.988,6.772-1.396c20.184-3.696,39.518-2.968,64.557,0.944
				c1.543-1.789,2.988-2.836,5.119-3.313c-23.438-5.75-46.752-5.219-69.386,0.74c-2.305,0.607-4.6,1.271-6.893,1.985
				c-3.693,1.157-7.364,2.459-11.016,3.899C161.811,54.692,165.413,53.743,168.971,52.928z"/>
			<path fill="#D8D8D7" d="M160.295,28.198c2.951,3.558,7.649,5.484,12.048,6.207c-2.772-0.845-5.18-2.772-7.229-4.88
				C164.052,29.367,161.361,28.672,160.295,28.198z"/>
			<path fill="#D8D8D7" d="M258.189,36.149c-4.152-0.541-8.431-1.627-12.107-3.612l-5.664-3.917
				c-8.193-3.976-18.012-1.626-25.303,3.072c8.075-2.349,18.014-4.396,25.725-0.182c-3.794-0.3-7.347,0.481-11.144,1.027
				c3.374,0.782,6.504,2.049,9.396,3.735c3.615,1.506,7.17,0.963,10.603-0.123C249.697,36.149,256.015,37.466,258.189,36.149z"/>
			<path fill="#D8D8D7" d="M276.356,58.21c2.921,0.163,1.958-3.081,3.403-4.408c2.472-3.735,6.507-6.143,10.844-6.686
				c-8.73-6.949-22.501-5.919-29.64-0.241c4.517,1.083,8.854,3.418,11.5,7.047C274.088,55.218,273.818,58.471,276.356,58.21z"/>
			<path fill="#D8D8D7" d="M252.71,72.418c0.423,9.76,0.963,16.628,5.18,25.3c0.728-4.757,2.266-21.604,3.794-24.578
				c1.027,2.108,1.258,5.671,2.027,5.733c1.732,0.224,2.529-2.33,3.335-3.986c3.015-0.784,8.89-0.747,11.939-0.16
				c0.627,1.725,1.447,4.684,3.064,4.394c0.648-0.057,0.919-3.696,1.745-6.099c1.868,8.615,2.442,16.137,3.224,24.509
				c0,0,6.46-11.407,5.332-25.536C279.219,67.659,265.178,68.32,252.71,72.418z"/>
			<path fill="#D8D8D7" d="M266.446,144.711l-0.123-1.145c-4.389,0.85-8.375,0.857-12.771,0c0,0.422-0.076,0.688-0.16,1.207
				c0,0-3.514-2.249-3.877-12.594c-2.167,3.917-2.408,8.256-1.985,12.532c3.322,4.958,20.201,4.983,24.7,1.027
				c0.762-2.938,1.143-9.819-1.75-13.559C270.363,136.639,269.365,142.389,266.446,144.711z"/>
			<path fill="#D8D8D7" d="M153.791,72.296c4.71-1.799,9.401-3.327,14.041-4.625c2.224-0.625,4.433-1.194,6.625-1.715
				c24.75-5.868,47.273-5.431,61.326-4.502c0.221-2.771,1.325-4.458,1.325-4.458c-18.685-4.059-41.602-0.622-62.631,6.645
				c-2.239,0.771-4.453,1.592-6.645,2.448C162.985,67.986,158.272,70.067,153.791,72.296z"/>
			<path fill="#D8D8D7" d="M151.417,88.523c5.686-3.268,11.758-5.961,18.046-8.188c2.175-0.767,4.374-1.482,6.595-2.143
				c21.403-6.377,44.531-7.888,62.916-8.183c-1.002-1.447-1.607-2.57-2.167-4.221c-13.92-2.418-39.316,1.698-61.272,10.237
				c-2.189,0.853-4.347,1.742-6.455,2.678C162.583,81.599,156.547,84.892,151.417,88.523z"/>
			<path fill="#D8D8D7" d="M301.568,49.765l3.074,2.892c3.426-0.693,7.559-1.111,11.269-1.297c2.055-0.103,3.981-0.135,5.583-0.103
				l0,0l0,0c0.074-0.887,0.108-1.75,0.108-2.581v-0.005l0,0c-1.824-0.172-3.838-0.246-5.927-0.236
				C310.755,48.456,305.467,48.947,301.568,49.765z"/>
			<path fill="#D8D8D7" d="M306.328,60.309c1.327-0.327,4.752-0.595,7.922-0.789c2.487-0.15,4.821-0.253,5.868-0.297
				c0.255-1.03,0.481-2.04,0.678-3.027c-1.823,0.015-3.661-0.02-5.548,0.027c-3.317,0.086-6.581,0.31-9.038,0.774
				C306.209,56.997,306.662,59.857,306.328,60.309z"/>
			<path fill="#D8D8D7" d="M312.711,64.054c-2.806,0.093-5.317,0.329-6.924,0.592l-2.551,4.099c2.064-0.42,5.185-0.858,8.138-1.18
				c2.453-0.268,4.797-0.459,6.335-0.499l0,0l0,0c0.359-1.003,0.698-1.993,1.013-2.974l0,0l0,0
				C316.707,63.988,314.643,63.99,312.711,64.054z"/>
		</g>
	</g>
</g>
</svg>
