<svg xmlns="http://www.w3.org/2000/svg" xml:space="preserve" style="shape-rendering:geometricPrecision; text-rendering:geometricPrecision; image-rendering:optimizeQuality; fill-rule:evenodd; clip-rule:evenodd"
viewBox="0 0 400 270.001" preserveAspectRatio="xMidYMid meet"
 xmlns:svg="http://www.w3.org/2000/svg"
 version="1.0">
 <defs>
  <style type="text/css">
   <![CDATA[
    .fil0 {fill:white}
    .fil1 {fill:#DF6108}
    .fil2 {fill:#03182F;fill-rule:nonzero}
   ]]>
  </style>
 </defs>
 <g id="Capa_x0020_1">
  <metadata id="CorelCorpID_0Corel-Layer"/>
  <g id="_245649704">
   <path id="path2411" class="fil0" d="M371.757 89.9305c-58.7021,-102.986 -272.219,-104.603 -314.918,10.3713 -6.24096,16.8036 -25.2249,34.4103 -38.0835,39.5127 11.615,5.42599 25.8438,14.8087 37.5946,36.0556 70.0431,126.637 306.047,96.5907 324.194,-26.1768l-64.936 0c-59.8678,105.476 -207.993,44.1107 -207.993,-9.87876 0,-77.0435 124.675,-100.271 186.997,-49.884l77.1439 0z"/>
   <path id="path2409" class="fil1" d="M351.942 77.96c-60.6545,-71.0458 -232.963,-87.9569 -286.111,25.8768 -4.55906,12.5303 -13.0181,23.7615 -25.389,33.6886 11.615,5.36222 19.95,15.6437 26.3646,28.806 69.221,126.288 282.611,77.9068 300.759,-9.2764l-43.9418 0c-59.8678,104.267 -226.545,48.9202 -226.545,-19.5296 0,-84.4608 138.834,-109.375 201.156,-59.5655l53.7072 0z"/>
   <g>
    <path id="path2411_0" class="fil2" d="M60.2375 99.4892l-5.41418 -2.03859 0 0 4.60749 -10.5803 5.5819 -9.90593 6.47718 -9.21616 7.31931 -8.51222 8.09411 -7.82718 8.78624 -7.14214 9.43939 -6.45001 10.0229 -5.78151 10.5355 -5.10473 10.9878 -4.43387 11.3929 -3.77363 11.739 -3.11694 12.0118 -2.4626 12.2374 -1.813 12.3922 -1.16457 12.4996 -0.519686 12.5351 0.112205 12.5327 0.740553 12.4607 1.38898 12.3296 2.01378 12.1488 2.64331 11.8855 3.27284 11.5866 3.88702 11.2158 4.52245 10.7977 5.14253 10.3087 5.77206 9.75829 6.38741 9.16065 6.99923 8.48151 7.63112 7.76458 8.26065 6.95316 8.86537 6.09568 9.489 -5.00788 2.87717 -5.80041 -9.01419 -6.63663 -8.45671 -7.4008 -7.87561 -8.14135 -7.31458 -8.79923 -6.74883 -9.41813 -6.16064 -9.96852 -5.56891 -10.4575 -4.98426 -10.8992 -4.38544 -11.2701 -3.79725 -11.5902 -3.18071 -11.8323 -2.57717 -12.0343 -1.96654 -12.1654 -1.3441 -12.2398 -0.740553 -12.2634 -0.112205 -12.2044 0.519686 -12.0969 1.14095 -11.9209 1.76811 -11.6953 2.3941 -11.3988 3.02717 -11.0528 3.66024 -10.6477 4.29686 -10.174 4.92521 -9.63781 5.55474 -9.05435 6.19962 -8.42246 6.8256 -7.70907 7.4634 -6.95789 8.10592 -6.15828 8.73899 -5.28899 9.38624 -4.38072 10.0583 0 0zm0 0l0 0 0 0 0 0zm-39.5741 35.4001l-2.42363 5.25592 0.158268 -5.32442 1.12205 -0.461812 1.15276 -0.532678 1.20591 -0.600001 1.23071 -0.676773 1.26378 -0.726379 1.28268 -0.800789 1.30866 -0.845671 1.32048 -0.914175 1.32756 -0.954333 1.34528 -1.01811 1.34528 -1.06654 1.3441 -1.09961 1.33819 -1.15512 1.32874 -1.18465 1.31693 -1.23544 1.30158 -1.26024 1.29213 -1.30512 1.25788 -1.32638 1.2437 -1.35473 1.20236 -1.38071 1.16929 -1.4067 1.14449 -1.41614 1.09252 -1.43622 1.04882 -1.45276 1.01457 -1.46811 0.950789 -1.46811 0.898821 -1.47874 0.842128 -1.4752 0.778348 -1.46811 0.716931 -1.48347 0.660238 -1.45985 0.57756 -1.45748 5.41418 2.03859 -0.667324 1.663 -0.728742 1.663 -0.806695 1.64174 -0.870474 1.65 -0.931892 1.63347 -0.988585 1.61339 -1.04292 1.60512 -1.08071 1.5815 -1.14095 1.56614 -1.18229 1.54961 -1.21299 1.52953 -1.25906 1.49646 -1.29449 1.47284 -1.30985 1.44449 -1.35 1.41614 -1.36063 1.37362 -1.39134 1.35 -1.4067 1.30394 -1.42087 1.27677 -1.42796 1.22126 -1.43386 1.19173 -1.4374 1.13268 -1.43504 1.08662 -1.44095 1.04646 -1.43386 0.980317 -1.42205 0.937797 -1.41969 0.866931 -1.39843 0.818506 -1.38898 0.745277 -1.36418 0.689765 -1.35827 0.622442 -1.3252 0.553938 0.158268 -5.32442zm-2.42363 5.25592l-6.16537 -2.85001 6.32363 -2.47441 -0.158268 5.32442zm41.3162 31.5993l-5.05277 2.83229 0 -0.011811 -1.07481 -1.87796 -1.09961 -1.81063 -1.09961 -1.7563 -1.1126 -1.67953 -1.12323 -1.62992 -1.12087 -1.55551 -1.14213 -1.50827 -1.13858 -1.4374 -1.15748 -1.39016 -1.15158 -1.33583 -1.15748 -1.2815 -1.15984 -1.21654 -1.16457 -1.17638 -1.16693 -1.13858 -1.16811 -1.07717 -1.16929 -1.02992 -1.16693 -0.996852 -1.16811 -0.940159 -1.16457 -0.90827 -1.16103 -0.868112 -1.14567 -0.826773 -1.15276 -0.788978 -1.14685 -0.751183 -1.13977 -0.72756 -1.14213 -0.692127 -1.12323 -0.648426 -1.11378 -0.628348 -1.11378 -0.597639 -1.09134 -0.581104 -1.08898 -0.542127 -1.07599 -0.527954 -1.06181 -0.492521 2.42363 -5.25592 1.13032 0.537403 1.14449 0.551576 1.15748 0.587009 1.1811 0.602363 1.18229 0.644883 1.20355 0.67323 1.21299 0.716931 1.21063 0.737009 1.23189 0.772442 1.23662 0.819687 1.24252 0.85512 1.25906 0.895277 1.25315 0.936616 1.25433 0.976774 1.25788 1.02992 1.25906 1.06536 1.25906 1.11969 1.25788 1.16929 1.25906 1.20473 1.25433 1.26851 1.25197 1.32992 1.24725 1.37126 1.24134 1.42559 1.22599 1.48229 1.22835 1.55079 1.21063 1.59803 1.21299 1.6689 1.18937 1.71969 1.1811 1.79292 1.16811 1.84843 1.14449 1.92402 1.14331 1.99134 0 -0.011811zm-5.05277 2.83229l0 -0.011811 20.2855 36.2623 -20.2855 -36.2505zm326.741 -24.3934l0 -5.79922 2.86654 3.3189 -2.39646 11.4366 -3.64843 10.8768 -4.80591 10.2921 -5.89489 9.69923 -6.91301 9.0697 -7.83781 8.45317 -8.70356 7.81183 -9.47837 7.17049 -10.2024 6.50789 -10.8343 5.85474 -11.3988 5.18033 -11.9008 4.50237 -12.3343 3.80434 -12.6981 3.11812 -12.978 2.39528 -13.2 1.68426 -13.3536 0.95197 -13.4351 0.205512 -13.4457 -0.539765 -13.3996 -1.31929 -13.2697 -2.08937 -13.0807 -2.87953 -12.802 -3.69331 -12.4831 -4.51064 -12.0744 -5.33505 -11.5925 -6.18426 -11.0421 -7.04529 -10.4221 -7.91813 -9.72994 -8.8134 -8.94687 -9.69687 -8.11419 -10.604 -7.19057 -11.5122 5.05277 -2.83229 6.89529 11.0587 7.77403 10.174 8.60671 9.31183 9.3449 8.45199 10.037 7.62285 10.6571 6.7949 11.2075 5.98111 11.6894 5.17678 12.0981 4.37363 12.4618 3.57993 12.7193 2.81339 12.9296 2.04213 13.0595 1.27441 13.1292 0.539765 13.1162 -0.205512 13.037 -0.928348 12.8835 -1.63937 12.6614 -2.3504 12.3579 -3.02599 11.9941 -3.71457 11.5607 -4.36773 11.0587 -5.01969 10.4729 -5.65159 9.81734 -6.28111 9.11458 -6.87521 8.31852 -7.47403 7.47639 -8.0445 6.54923 -8.61616 5.57836 -9.15592 4.53426 -9.70396 3.42166 -10.2414 2.25945 -10.7799 2.86654 3.3189zm0 -5.79922l3.36261 0 -0.496064 3.3189 -2.86654 -3.3189zm-67.4694 1.46103l2.51457 -1.46103 64.9549 0 0 5.79922 -64.9549 0 -2.51457 -4.3382zm0 0l0.838584 -1.46103 1.67599 0 -2.51457 1.46103zm-208.365 -8.32797l5.79922 0 0 0 0.381497 4.54371 1.1504 4.61221 1.88504 4.64883 2.6126 4.66536 3.29528 4.6382 3.94607 4.56851 4.55552 4.45395 5.1319 4.3004 5.65277 4.11379 6.14293 3.88347 6.57757 3.63308 6.95907 3.34016 7.31694 3.00591 7.62403 2.64922 7.87324 2.27245 8.09293 1.83189 8.2571 1.39016 8.38821 0.898821 8.46616 0.39567 8.51104 -0.159449 8.50277 -0.737009 8.44017 -1.33347 8.35395 -1.96181 8.22758 -2.63504 8.0445 -3.32481 7.83072 -4.04765 7.58505 -4.79174 7.2945 -5.58899 6.96261 -6.41694 6.58584 -7.26734 6.19017 -8.16025 5.72718 -9.09332 5.02914 2.87717 -5.99883 9.50199 -6.48545 8.56655 -6.94726 7.65238 -7.34765 6.7571 -7.70316 5.90789 -8.01498 5.08466 -8.28427 4.27442 -8.49805 3.5067 -8.6575 2.76969 -8.78388 2.0752 -8.8701 1.40197 -8.88781 0.760631 -8.87482 0.159449 -8.82758 -0.39567 -8.72836 -0.943703 -8.59726 -1.4374 -8.40947 -1.92166 -8.19214 -2.34095 -7.91694 -2.7626 -7.61222 -3.14056 -7.2756 -3.47717 -6.87285 -3.79135 -6.4382 -4.08662 -5.9693 -4.34056 -5.44844 -4.57206 -4.89568 -4.77284 -4.28623 -4.95355 -3.63544 -5.113 -2.92914 -5.25355 -2.18032 -5.37403 -1.35355 -5.4508 -0.471261 -5.49568 0 0zm0 0l0 0 0 0 0 0zm189.894 -52.2036l0 5.79922 -1.80118 -0.644883 -5.85001 -4.32166 -6.1819 -3.93426 -6.47836 -3.52442 -6.75238 -3.12048 -6.98033 -2.72008 -7.17403 -2.33386 -7.33348 -1.92993 -7.47167 -1.54961 -7.56261 -1.15158 -7.61931 -0.758269 -7.64293 -0.390946 -7.64057 -0.00354331 -7.59687 0.380316 -7.50592 0.747639 -7.39135 1.11378 -7.24253 1.4752 -7.04883 1.83307 -6.83269 2.19685 -6.57993 2.53819 -6.28584 2.89489 -5.96458 3.21615 -5.59844 3.55631 -5.22284 3.89292 -4.78938 4.20119 -4.33229 4.50828 -3.85513 4.82245 -3.3378 5.13426 -2.80394 5.43899 -2.23111 5.73308 -1.63937 6.05316 -1.01103 6.36261 -0.336615 6.6886 -5.79922 0 0.381497 -7.27679 1.10079 -6.97442 1.79764 -6.64371 2.45788 -6.32127 3.0756 -5.96104 3.6567 -5.60907 4.19292 -5.25237 4.69607 -4.89332 5.1508 -4.52009 5.563 -4.14095 5.96222 -3.78308 6.30474 -3.4193 6.62364 -3.0319 6.89883 -2.67284 7.14923 -2.28898 7.36537 -1.92284 7.53781 -1.5437 7.68663 -1.15866 7.79883 -0.771261 7.86852 -0.380316 7.91458 0.00354331 7.93584 0.390946 7.91458 0.803151 7.85789 1.19882 7.76458 1.59449 7.65238 2.01969 7.49057 2.42599 7.29686 2.85473 7.06891 3.27875 6.81852 3.70631 6.52206 4.13741 6.19017 4.59332 -1.80118 -0.644883zm0 5.79922l-0.993309 0 -0.807876 -0.644883 1.80118 0.644883zm79.6584 -4.3382l-2.50394 4.3382 -77.1545 0 0 -5.79922 77.1545 0 2.50394 1.46103zm0 0l2.50158 4.3382 -5.00552 0 2.50394 -4.3382z"/>
   </g>
  </g>
 </g>
</svg>
