<svg version="1.1" id="Layer_1" xmlns="http://www.w3.org/2000/svg" xmlns:xlink="http://www.w3.org/1999/xlink" x="0px" y="0px"
	 viewBox="0 0 288 223" enable-background="new 0 0 288 223" xml:space="preserve" preserveAspectRatio="xMidYMid meet">
<path fill-rule="evenodd" clip-rule="evenodd" fill="#FFFFFF" d="M227.8,133.1c-2.3-7.2-5.2-11.3-8.3-18.3l-4.8-12.6L225,91.2
	c2,0.2,2.7,0.7,5.7,0.2c1.9-0.3,3.2-1.3,3.9-3c5.8-12.7-8.1-28.5-14.3-39.2c-1,0.4-3.2,1.1-4,1.6c-2.6,1.5-4.5,1.8-6.6-1.1
	c-3.8-5.4-2.5-4.7-6.8-10.2c-1.9-2.4-7.3-8.3-9.6-10.2c-2-1.7-4-3.5-6-5.1l-7.7-5.6c-6.4-4.2-13.3-7.7-20.4-10.6
	c-2.2-0.9-4.3-1.6-6.6-2.3c-8.2-2.7-17.1-4.5-26.1-5.2c-1.2-0.1-2.8-0.3-4.1-0.3c-1.3,0-2.6-0.1-3.9-0.2h-4.5c-0.1,0-0.2,0-0.2,0
	c-1.3,0.2-2.8,0-4.3,0.2c-1.3,0.1-2.8,0.2-4.1,0.3c-1.3,0.1-2.8,0.4-4,0.5c-6.3,0.6-12.5,2-18.5,3.7C76.7,6.4,70.8,8.6,65,11.3
	c-0.6,0.3-1,0.4-1.6,0.7c-1,0.5-2,1-3,1.5c-5.8,2.9-11.3,6.3-16.6,10c-1.7,1.2-3.3,2.7-4.9,3.9c-2.6,2-4.8,3.9-7.1,6.2
	c-1.2,1.2-3.4,3.5-4.4,4.7l-4.2,4.7c-0.7,0.8-1.3,1.6-2,2.5c-0.7,0.9-1.3,1.6-1.9,2.5l-3.5,5.4c-0.3,0.5-0.5,0.9-0.8,1.3
	c-0.3,0.5-0.5,1-0.8,1.5c-2.1,3.7-4.1,7.7-5.8,11.9C6.6,72.3,5,76.7,3.9,81.3c-0.6,2.3-1.2,4.6-1.7,7.2c-0.2,1.3-0.5,2.4-0.7,3.8
	C0.4,99,0,105.3,0,112.6v0.5c0,1.9,0.3,4.2,0.3,5.9c0.3,11,3.5,25.4,6.9,35.5l2.3,6.6c0.4,1.1,0.8,2.1,1.2,3.2
	c1.7,4.2,3.4,8.3,5.4,12.3c1.8,3.6,1.6,2.9,1.6,7.3c0,8.3,6.2,16.6,6.2,20.5c0,5.6,2.4,8.7,7.5,10.3c4.4,1.4,11,0.4,15.6-0.7
	c4.7-1.2,8.7-2.7,12.9-4.8c1-0.5,1.9-1,2.9-1.5c0.6-0.3,2.5-1.5,3-1.6c0.6,0.2,2.6,1.6,3.2,2.1c1.1,0.8,2,1.4,3.1,2.1
	c4.6,3.1,10.6,5.9,15.8,7.8l3.9,1.3c2.1,0.7,4,1.2,6.2,1.7c4.6,1,8.9,1.9,13.9,1.9c0.9,0,1.8,0.1,2.8,0.2h2c0.1,0,0.2,0,0.2,0
	c1.5-0.2,3.3-0.2,4.9-0.3c6.3-0.6,12.8-2.5,18.4-5.3c3.8-1.9,7.9-4.6,10.5-7.9c1-1.2,2.1-2.3,3.1-3.5c0.9-1.1,0.9-1.4,2.6-1.3
	c12.3,0.1,10.8,1.6,26.9-4.4c3.1-1.4,2.1-3.4,4.4,0.1l2.1,2.8c1.2,1.5,2.6,2.9,4,4.3c5.6,5.5,12,8.4,19.4,10.4
	c4.6,1.3,9.4,2,14.3,2.3c0.7,0,0.7,0.1,1.5,0.2c0.5,0,1.1,0,1.6,0c0.8,0,0.8,0.1,1.5,0.2c2.7,0.1,5.5-0.3,8-0.3
	c3.6-0.1,31.6-5.3,37.8-7.2c5.4-1.7,6.8-2.4,8.9-6.9c3.9-8.3-6-60.5-11.8-72.3c-0.7-1.5-1.7-2.9-3.2-3.7
	C269.4,128.7,237.7,133.1,227.8,133.1L227.8,133.1z"/>
<path fill-rule="evenodd" clip-rule="evenodd" fill="#010101" d="M193.2,131c-4.5-6.2-2-24.4,5.5-26.3l-1.8,2.3
	C193.2,111.9,192,124.7,193.2,131L193.2,131z M208.2,101l8.8,21c1.3,3,8.3,19,8.5,20.8l-5.4,0.6c-3.9-9.4-8.6-20.9-12.7-30
	c-1-2.2-3-8.4-4.4-9.7l-5.7,11c-1.1,3.8-1.1,3.4,0.9,6c9.6,12.6,16.5,13.1,17.6,15.5c0.7,1.3,1.9,4.5,2.1,5.7
	c-10.5-5.5-14.2-6.7-22-15.3l0.7,10.5c0.4,2.7,1.9,6.9,1.9,9l-3.4,0.3c-2.3-6.1-3.9-13.3-9.5-16.2c-6.9-3.5-14.7,0.8-15.3,7.7
	l-14.2-30.8l2.8-2.6c0.7-0.7,0.2-0.2,0.7-1l-3.7,2.9l-0.9-2.2c0.7-0.5,1.1-0.7,1.7-1.2c4.6-3.7,9.4-6.8,15.5-8.6
	c12-3.5,18.2-0.4,18.6-8.4l0,0l-10.3,8.6l9.6-1.7c4.1-1.3,3.3-6.2,3.4-6.9c0.1-0.9,0-0.2,0.4-0.8l1.2,1.1c0,0.2,0,0.9,0,1.1
	c0,5.4-3.5,7.3-8.8,7.8l22.9,1.2l4.9-5.8l2.9-7.5l10.9-0.9c1-1.9,0.1-4.2-1.1-5.1c-1.4-1-3.4-0.7-4.8-1.4c-1.2-0.9-3.6-6.9-4.1-8.3
	c-1.1-2.7-2.9-5.8-3.7-8.5l4-1.7c3,5.1,6.7,11.3,9.4,16.4c1.2,2.3,4.1,6,2.4,9.5c-1.6,3.3-5.9,2.9-9.1,2.1
	C216.9,89,211.3,97.1,208.2,101L208.2,101z"/>
<path fill-rule="evenodd" clip-rule="evenodd" fill="#EC4B24" d="M125.1,187.8c-2.1,0-2.4-1-3.4-2.4c-3.6-4.9-0.4-9.8,4.5-9.6
	C134.1,176.2,132.3,187.8,125.1,187.8L125.1,187.8z M102.6,181.6L102.6,181.6v1.1c1.6-0.9,3.5-2.1,5.8-3.3
	C107.2,179.6,105.2,180.6,102.6,181.6L102.6,181.6z M78.5,197.8L78.5,197.8h-2.3c4.1,2.3,8.2,4.3,12.9,6.1c7.8,3,18,5.5,27.5,4.3
	c9.9-1.2,17.8-3.1,24.2-8.2c7.3-5.9,10.1-11.2,11.5-20.5l3.5,0.6c1.1,33.2-42.5,40.3-73.1,24.8c-4.9-2.5-7.5-4.4-11.8-7.2
	c-15.5-10.3-23,0-30.3-2.1c-2.9-0.9-2.1-2.7-4-5.4c-7-10.1-11.8-18.9-16.7-30.9c-7.2-18-12-41.9-8.8-64.9
	c3.1-21.5,13.2-39.1,24.4-51.2c6-6.6,12.9-12.4,20.8-17.3c15.1-9.4,25.1-13.8,43.2-13.9c5.9,0,12,0.6,17.5,1.5
	c10.8,1.7,22.5,0.6,31.1,4.8l39.6,36.4c-4.3,4.7-0.1,16.7,0.7,23.8c-10.7,2.5-32.3,6.7-41.2,13.6c-1.3,1-3.7,2-4.2,3.4
	c-5.3,2.7-13.4,19.1-17.3,24.2c-0.1,0.1-0.1,0.2-0.2,0.2c-0.9,0.1-1.7,0.5-2.3,1.2c-1,1.1-1.1,2.7-0.9,4.2c-0.1,0.4-0.4,0.9-1.7,2.9
	c-1,1.5-4.6,7.8-5.4,8.3c-1.6,1-1.8-0.1-3.6,3.2c-2,3.7-3.7,5.7-5.3,8.4c-2.5,4.2,2.8-0.7-7.4,13.8c-0.9,1.9-3.3,4-3.1,6.1
	c0.2,2.1,2.9,4.2,5.6,3.8c0.6-0.1,1.3-0.2,1.9-0.2l37.2,6c3,0.5,6,1,9,1.5h0c-3.1,9.6-2.9,12.9-11.1,19.3
	c-13.5,10.7-33.8,9.3-49.3,3.9C86.1,201.2,81.2,199.4,78.5,197.8L78.5,197.8z M92.7,167.2L92.7,167.2c-4.7,0.5-7.3,0.3-10.4-1.8
	c-9.6-6.6-7.4-20.4,2-22.4c7.1-1.5,13.1,3.2,15,8.6c1.6,4.7,0.6,5.4-1.7,8.5C96.1,162.2,94,165.3,92.7,167.2L92.7,167.2z"/>
<path fill-rule="evenodd" clip-rule="evenodd" fill="#22110B" d="M26.8,178.1c2.4,4.8,5.6,9.6,8.8,13.8c1.6,2.1,0.5,0.7,1.3,3.2
	l6.8,2.2c-0.2,0.4,0.2,1.1-1.8,1.7c-2.5,0.7-5.7-0.3-6.5-2.8c-1.1-3.5,1.4-0.5-3.2-7.5l-1-1.2c0.2,2.7,1.6,3.6,2.4,5.9
	c0.9,2.8-0.3,4.2,2.2,6.2c2.4,1.9,6.8,1.8,8.8-0.6l1.9-2.2c-2.6,7.1-3.4,1.7-4.9,7.2c3.2,1.7,14.4-1.8,18.3-3.4
	c1.6-0.7,3.7-1.4,4.9-2.6c-4.6-3.1-8.8-2.4-14.6-2.5c3,0,5.2-1.5,10-0.8l7.9,3.1c-4.9,4.4-30.8,14.6-35.5,3
	c-1.3-3.3,1.1-2.3-1.5-7.6c-1.5-3.1-4-9.4-4.5-13C26.2,177.7,26.6,178.5,26.8,178.1L26.8,178.1z M198.1,57.9L198.1,57.9
	c-1.3-2.6-6-9.5-7.9-11.6c-3.5-3.8-5.5-6.5-9.2-9.8c-33.3-30.2-62.9-27-87-25.9c12.9-2.1,25-2.9,38.1-1.4c10,1.1,22.5,5,31.9,9.6
	c8.3,4.1,12.4,7.1,19.2,12.4l5.5,4.8c6.8,7,13.6,14.5,18,23.4C203.4,57.3,201.4,55.2,198.1,57.9L198.1,57.9z M157.3,180.1
	L157.3,180.1l-1.4-0.2c1.2,33.3-42.5,40.5-73.1,24.9c-4.9-2.5-7.5-4.4-11.8-7.2c-15.5-10.3-23,0-30.3-2.1c-2.9-0.9-2.1-2.7-4-5.4
	c-7-10.1-11.8-18.9-16.7-30.9c-7.2-18-12-41.9-8.8-64.9c3.1-21.5,13.2-39.1,24.4-51.2c6-6.6,12.9-12.4,20.8-17.3
	c15.1-9.4,25.1-13.8,43.2-13.9c5.9,0,12,0.6,17.5,1.5c30.9,4.9,55.7,28.6,68.1,45.9c-4.3,4.7,2.4,11.9,3.2,19l1.9-0.3
	c-1.7-5.9-3.7-11-4.4-16.9c-0.3-2.1,3.7,13.5,6.2,16.4c0.4-0.6,0.4,0.2,0.3-0.8c0-0.3-0.2-0.8-0.4-1.1c-0.2-0.7-0.5-1.4-0.7-2
	c-2.1-5.7-2.2-6.9-3.8-12.8c1.7-0.7,3.9-0.1,5.6-0.8c1.7-0.8,3-1.7,4.8-2.2c-1.2,4,2.2,9,3.6,12.2l5,11.6l7,0.1
	c-0.2-4.1-4.9-16.1-6.6-20.7l2.2,0.2l4.7,14.1l5.7,0.6c-0.5-1.9-5.6-13.1-6.8-15.9c-4.3,1-4.7-2.1-8.2-7.5c-1.1-1.7-2.3-3.4-3.4-5
	C185.5,26,161.5,11.7,133.5,7.6C103,3.1,73,11.4,49.1,28.4c-3,2.1-4.6,3.8-6.9,5.6c-0.8,0.7-1.6,1.2-2.3,1.9
	C32.1,43.9,27.1,49,21.4,59C1.3,94.8,6,135.9,23.2,171.5c1.8,3.8,1.6,2.1,1.5,6.8c-0.2,7,5.8,16.4,5.9,19c0.1,3.3,0,4.2,1.7,6.6
	c2.2,3,7.1,4.7,12.5,4c10.9-1.4,16.3-3.8,24.9-8.8c1.7,1,2.8,2,4.3,3c17.7,11.9,43.5,17.4,63.1,8.8c10.3-4.6,11.1-7.7,16.1-13
	c6-0.1,12.8,0.2,18.3-0.4c5.5-0.6,10.1-3.3,14.5-5.3l-1.9-3c-3.2,1.4-7.3,4-12.7,4.8c-5.8,0.8-10.9,0.3-16.3,0.5
	c1.5-3.4,2.2-4.7,3.2-10.1c0.4-2,0.6-2.5,0.1-4.2L157.3,180.1z"/>
<path fill-rule="evenodd" clip-rule="evenodd" fill="#F7EAE4" d="M112.1,142.2c1.9,1.8,4.5,3.2,7.2,4.9c2.6,1.6,5.3,3.2,7.9,4.7
	c2.3,1.3,5.6,3,6.5,5.7c1.2,3.7-2,6.9-4.8,7.4c-3,0.5-12.1-6-16.3-8.4C104.9,152.1,105.6,151.9,112.1,142.2L112.1,142.2z M123.1,142
	L123.1,142c2.7,1.6,6,3.8,8.7,5.7c3.2,2.1,6.9,4.6,4.8,8.7c0-5.7-6.2-7.7-10.2-10.5l-4.3-2.9L123.1,142z M123,145L123,145
	c2.7,1.7,10.4,6.3,11.7,8.5c0.7,1.2,1.2,2.3,0.4,3.7c-1.8-3.2-2-3.4-5-5.2l-12.9-7.7c-1.4-0.9-5.8-2.9-3.1-5.5
	C118.6,145.9,117.4,141.4,123,145L123,145z M115.9,138.7L115.9,138.7c1.9-3.5,3.4-5.6,5.3-8.8l2.1-2.8l3.7,4.3l-6.6,10.5
	L115.9,138.7z M98.9,161.9L98.9,161.9c-0.1,0.9-0.4,0.8,0.3,0.8c0,0.8-0.1,0.1,0.8,0.2c2-3.4,3.8-5.8,6-9l4.7,3.3l-0.3,1l0.1,0.6
	c-1.9,0,0.1-0.3-0.8,0.8l0.2,1c1.1-0.7,1.5-1.5,2.1-2.5c1.5,0.4,5.6,3,7.1,4c2.3,1.4,4.9,3.2,7.1,4.2c-0.2,1,1.7,0.5,2.5,0.4
	c6.2-1.5,11.6-10.7,9.4-15.2c-1.5-3.1-11.4-8.7-14.7-10.8c0.4-1,3.2-5.8,4.1-7.1l0.9-0.9c3.4,3.4,10.9,10.8,14.3,13.8
	c1.7,1.5,3.7,2.4,5.5,3.9c3.3,1.2,2.1,0.6,4.1,6.2l2.8,7.4l-2.8-11.5c3.1,0.9,5.3,2,8.8,2.4c0,0-0.2-0.9-0.4-1.1l-0.2,0.2
	c-0.1-0.1-0.2-0.3-0.3-0.2l-1.2-0.5c-5.6-1.6-10.2-3.5-14.7-7.4c-0.9-0.7-1.6-1-2.4-1.9l-6-6.1c-3.3-2.7-9.2-9.3-12.2-12.5l3.9-3.8
	c2.1,2.8,13.2,14.4,14.6,15.4l0.9,1l1.5-0.2l0-0.6c-1.2-0.5-11.1-10.7-12-11.9c1-1.6,12.2-19.4,12.6-20.5l-0.8-0.3
	c-2.4,1.7-5,6.8-6.7,9.5c-1,1.6-2.1,3.4-3,5c-0.9,1.5-2.4,3.5-2.9,5c-2.1-1.5-1.8-1.7-4.4-4c0,0-0.2-0.1-0.2-0.2
	c0-0.2-0.1-0.2-0.2-0.3l11.3-17.5l4.1-5.4l0.3-1.2c-5.3,2.7-13.4,19.1-17.3,24.2c-1.1,1.5-2.6,1.3-3.2,3.6c-0.8,2.8,0.8,0.7-1.9,4.9
	c-1,1.5-4.6,7.8-5.4,8.3c-1.6,1-1.8-0.1-3.6,3.2c-2,3.7-3.7,5.7-5.3,8.4C103.8,152.3,109.1,147.4,98.9,161.9L98.9,161.9z"/>
<path fill-rule="evenodd" clip-rule="evenodd" fill="#22110B" d="M92.7,167.2c1.2-1.9,3.3-5,4.9-7.1c2.3-3.2,3.3-3.8,1.7-8.5
	c-1.9-5.3-7.9-10-15-8.6c-9.4,2-11.6,15.8-2,22.4C85.5,167.5,88,167.7,92.7,167.2L92.7,167.2z"/>
<path fill-rule="evenodd" clip-rule="evenodd" fill="#EC4B24" d="M128.8,166.7c0.4,0.4,0.1,0.3,0.8,0.5c1.6,0.6,19.6,3,19.9,3.1
	c-0.4-4-2.4-11.2-3.5-15.4c0.7,0.7,0.5,0.4,1,1.5l2.2,5.8c0.9,3.1,1.6,5.6,2.3,8.5l3,0.4c-0.1-3.2-1.7-7.8-2.8-10.6
	c-1.3-3.4-2.3-6.8-3.3-10c-1.8-1.5-3.9-2.5-5.5-3.9c-3.4-3-10.9-10.4-14.3-13.8l-0.9,0.9c-0.9,1.3-3.8,6.1-4.1,7.1
	c3.3,2.1,13.2,7.7,14.7,10.8C140.4,156.1,135,165.3,128.8,166.7L128.8,166.7z"/>
<path fill-rule="evenodd" clip-rule="evenodd" fill="#22110B" d="M167.3,147.6l5.8,0.4c-0.6-2.3-1.9-4.3-2.9-6.7
	c-6.7-15.4-14.5-32.1-21.8-47.3c-7.6-0.6-2,8.6-0.3,12c5.2,10.7,10.9,24.6,15.9,34.7C165.1,143.1,165.9,145.4,167.3,147.6
	L167.3,147.6z"/>
<path fill-rule="evenodd" clip-rule="evenodd" fill="#22110B" d="M149.3,92.4L149.3,92.4l0.2,0.1l0.4,0.8c0.4,0.8,0.8,1.7,1.3,2.6
	l0.8,1.4c5.9-2.9,2.5-1.9,11.1-5.2c4.1-1.6,8.2-2.7,12.5-3.9c8.4-2.2,18.1-4.3,26.7-6.3c2-6.5-7.7-3.3-11.8-2.5
	C181.6,81.1,153.2,87.8,149.3,92.4L149.3,92.4z"/>
<path fill-rule="evenodd" clip-rule="evenodd" fill="#22110B" d="M264.3,137.2c2.2,2.6,3.6,3.5-0.3,6.7l4.7,15.1l0.1,0.1
	c2.1,0.1,4.2,0.7,5.4,2.2c0.4,0.5,0.7,1.1,0.8,1.8c0.1,0.4,0.1,0.7,0.2,1.1c0,0.1,0,0.3,0,0.4c0,0.9-0.2,1.7-0.6,2.5
	c-0.3,0.5-0.7,1-1.1,1.4c-0.2,0.2-0.4,0.4-0.6,0.6c-0.4,0.4-0.4,0.3-0.6,0.7l3.7,25.3c5.2,2.3,2.9,1.1,5.2,3.7l-4.7-34.6
	c-1.3-5.2-2.7-10.5-4.4-15.4C270.6,144.8,269.2,137.3,264.3,137.2L264.3,137.2z"/>
<path fill-rule="evenodd" clip-rule="evenodd" fill="#22110B" d="M165.4,147.4c-3.5-6.9-10.3-22.8-14.4-31.3
	c-3,4.8-2.7,15.8-1.9,21.9c0.5,3.7,0.3,3.4,1.9,4.6C154.5,145,161.1,147.6,165.4,147.4L165.4,147.4z"/>
<path fill-rule="evenodd" clip-rule="evenodd" fill="#EC4B24" d="M144.9,137.3c0.5-4.4-0.5-9.8,0.3-14.6c0.4-2.6,2.1-8.7,4-10.5
	c-0.5-1.5-1.1-2.4-1.6-3.8c-0.3-0.7-0.4-1.1-0.8-1.9c-0.6-1.2-0.4-1.2-1.3-1.7c-0.4,1.1-11.6,18.9-12.6,20.5
	C133.8,126.5,143.7,136.7,144.9,137.3L144.9,137.3z"/>
<path fill-rule="evenodd" clip-rule="evenodd" fill="#22110B" d="M154.5,171.1l2.5,0.5c0.6,0.1,1.1,0.2,1.7,0.3l0.6-0.6
	c0.1-0.1,0.3-0.3,0.4-0.4c3.2-3,9.9-10,9.7-14.5c-1.4,0-2.8-0.2-4.2-0.3c-2-0.2-4.4-0.5-6.4-1.1c-2.1-0.7-4.2-1.4-6.2-2.3l2.8,11.4
	l-2.8-7.4c-1-2.8-1.2-4-1.5-4.7c-0.9-0.4-1.7-0.8-2.5-1.3c1,3.1,2,6.5,3.3,9.8C152.8,163.3,154.4,167.9,154.5,171.1L154.5,171.1z"/>
<path fill-rule="evenodd" clip-rule="evenodd" fill="#22110B" d="M228.8,168.4l-2.3-5.7c-4-0.7-24.1-3.9-26.2-4.6l-0.3-3.2
	c-0.6,0.1-1.3,0.1-1.9,0.2c-0.6,0.1-1.1,0.1-1.7,0.2c0.5,9.5,0.2,8.3-1.2,18.1c1.3-0.1,2.6-0.3,3.9-0.4l1.5-9.2L228.8,168.4z"/>
<path fill-rule="evenodd" clip-rule="evenodd" fill="#421311" d="M152.4,179.2l-2-0.2l-0.9,0.1c-3.1,9.6-2.9,12.9-11.1,19.3
	c-13.5,10.7-33.8,9.3-49.3,3.9c-3.2-1.1-8.2-3-10.9-4.6c-1.9-1.2-8.4-4.6-10.4-5l1.3,1.2c6.6,3.8,12.5,7.3,19.9,10.1
	c7.8,3,18,5.5,27.5,4.3c9.9-1.2,17.8-3.1,24.2-8.2C148.2,194.1,150.9,188.7,152.4,179.2L152.4,179.2z"/>
<path fill-rule="evenodd" clip-rule="evenodd" fill="#22110B" d="M125.9,154.2c6.6,0.7,6.8,5.3,5.4,7.4c-0.8,1.2-3.1,2-5.3,1.5
	l-3.8-3.5c-2.8,0-3.8-0.2-5.2-2C113.2,152.7,120.9,145.9,125.9,154.2L125.9,154.2z M112.1,142.2L112.1,142.2
	c-6.6,9.6-7.2,9.8,0.5,14.3c4.2,2.4,13.3,9,16.3,8.4c2.8-0.5,6-3.7,4.8-7.4c-0.9-2.7-4.2-4.4-6.5-5.7c-2.6-1.5-5.3-3.1-7.9-4.7
	C116.6,145.4,114,144,112.1,142.2L112.1,142.2z"/>
<path fill-rule="evenodd" clip-rule="evenodd" fill="#F7EAE4" d="M35.6,191.9c-3.1-4.2-6.3-9-8.8-13.8c-0.2,0.3-0.6-0.5-0.2,2.1
	c0.6,3.6,3,9.8,4.5,13c2.6,5.3,0.2,4.3,1.5,7.6c4.7,11.6,30.6,1.4,35.5-3l-7.9-3.1c-4.8-0.7-7,0.8-10,0.8c5.8,0.1,10-0.6,14.6,2.5
	c-1.2,1.2-3.4,1.9-4.9,2.6c-3.8,1.6-15,5.1-18.3,3.4c1.5-5.5,2.3-0.1,4.9-7.2l-1.9,2.2c-1.9,2.4-6.4,2.5-8.8,0.6
	c-2.4-2-1.3-3.3-2.2-6.2c-0.7-2.3-2.2-3.2-2.4-5.9l1,1.2c4.5,6.9,2,4,3.2,7.5c0.8,2.6,4,3.5,6.5,2.8c2-0.6,1.6-1.3,1.8-1.7l-6.8-2.2
	C36.1,192.7,37.2,194.1,35.6,191.9L35.6,191.9z"/>
<path fill-rule="evenodd" clip-rule="evenodd" fill="#EC4B24" d="M155.1,104.3c0.5-0.4,1-0.6,1.5-1c4.6-3.7,9.4-6.8,15.5-8.6
	c12-3.5,18.2-0.4,18.6-8.4c-5.8,0.4-23.6,5.5-29.5,8.1l-8.6,4.3C153.3,100.5,154.2,102.4,155.1,104.3L155.1,104.3z"/>
<path fill-rule="evenodd" clip-rule="evenodd" fill="#22110B" d="M144.7,104.5l0.2-0.8c0,0,0,0,0-0.1c-0.2-0.5-0.5-1-0.7-1.5
	c-0.6-1.5-1.4-3.4-1.4-5.2c0-0.1-0.1-0.2-0.1-0.2l-4.1,5.4l-11.3,17.5c0.1,0.1,0.2,0.1,0.2,0.3c0,0.1,0.2,0.2,0.2,0.2
	c2.6,2.3,2.3,2.5,4.4,4c0.4-1.5,2-3.5,2.9-5c1-1.6,2-3.4,3-5C139.8,111.3,142.4,106.3,144.7,104.5L144.7,104.5z"/>
<path fill-rule="evenodd" clip-rule="evenodd" fill="#22110B" d="M266.9,199.6c-0.4-0.9-1.5-2.2-2.7-2.1l6,1.8l-8.1,3.2l-0.2,5.6
	c6.6-1.7,14.2-2.7,17.6-6.6l-2.1-4.4c-1.5,1.4-2.2,3.4-5.5,3.9l3.1-3.8l-13.1-3.9l0.3,5.6L266.9,199.6z"/>
<path fill-rule="evenodd" clip-rule="evenodd" fill="#22110B" d="M234.9,177.9c2.5,5.2,12.4,15.4,18.4,17.2l-0.3-6.2
	c-3.1-2.5-3.9-3-6.8-5.9c-1.8-1.8-4.1-4.1-5.6-6.6l-4.7,0.9C233.9,177.9,235.7,177.3,234.9,177.9L234.9,177.9z"/>
<path fill-rule="evenodd" clip-rule="evenodd" fill="#22110B" d="M170.7,156.4c1,3.4,6.8,14.7,8.2,18.1c2-0.1,3.9-0.2,5.9-0.3
	l-7.9-17.7c-1.9,0-3.8,0-5.7,0C171.1,156.4,170.9,156.4,170.7,156.4L170.7,156.4z"/>
<path fill-rule="evenodd" clip-rule="evenodd" fill="#22110B" d="M256.2,163.4c0.6,1.6,1,1.1,3,0.7c3.6-0.8,8.6-2.7,10.3-1.3
	l-12.3,3.4l1.4,4.9c7.3-1.5,16-1.7,14.7-7.6C272.1,158.1,257.6,162.2,256.2,163.4L256.2,163.4z"/>
<path fill-rule="evenodd" clip-rule="evenodd" fill="#22110B" d="M236,167.5c-2.1-4.7-5.9-11.8-7.1-16.9l-5.5,0.9l7.1,16.9
	C232.3,168.1,234.1,167.8,236,167.5L236,167.5z"/>
<path fill-rule="evenodd" clip-rule="evenodd" fill="#22110B" d="M100,162.9c-0.8,0.9-1.1,1.6-1.8,2.6c-2.2,3.3,0.6,4.6,2.5,4.7
	c3.6,0,6.8-9.8,9.8-12l0.3-1l-4.7-3.3C103.8,157.1,102.1,159.5,100,162.9L100,162.9z"/>
<path fill-rule="evenodd" clip-rule="evenodd" fill="#22110B" d="M194.5,60.4l4.1,15.9c6-0.5,7.3,6.4,2,8c-1.3,0.4-0.4-0.1-1.9,0.8
	c1.8,2.9,5.6,1.5,6.4-1.3c0.9-3.2-0.9-6.4-2-8.8l-1.3-3.4l-0.6-1.5c-0.4-0.8-0.8-1.7-1.2-2.5c-0.5-1-1-1.9-1.4-2.9
	c-0.6-1.5-1.2-3.2-1.3-4.8l-0.3-0.8C195.9,59.6,195.1,60,194.5,60.4L194.5,60.4z"/>
<path fill-rule="evenodd" clip-rule="evenodd" fill="#22110B" d="M115.9,138.7l4.6,3.3l6.6-10.5l-3.7-4.3l-2.1,2.8
	C119.3,133.2,117.8,135.3,115.9,138.7L115.9,138.7z"/>
<path fill-rule="evenodd" clip-rule="evenodd" fill="#22110B" d="M247.9,140.9l2,4.5c2.8-0.4,5.8-1,8.5-1.6c2.4-0.6,7.1-0.9,6-4.3
	C263.1,136.1,255.1,140.3,247.9,140.9L247.9,140.9z"/>
<path fill-rule="evenodd" clip-rule="evenodd" fill="#EC4B24" d="M110,160.6l-1.5,3.1c1.7,0.8,16.6,3,17.8,2.6
	c-2.2-1.1-4.8-2.8-7.1-4.2c-1.5-0.9-5.6-3.6-7.1-4C111.5,159.1,111.1,160,110,160.6L110,160.6z"/>
<path fill-rule="evenodd" clip-rule="evenodd" fill="#22110B" d="M215,81.6l10.4,1.2c1.8-1.4,1.6-2.1,0.8-4.2
	c-3.2-1.2-8.5-1.5-12.4-1.9L215,81.6z"/>
<path fill-rule="evenodd" clip-rule="evenodd" fill="#F7EAE4" d="M124.6,157.8l1.6-2.7l4.7,2.5l-0.2,3.1
	C127.8,162,125.3,160.7,124.6,157.8L124.6,157.8z M125.7,161L125.7,161c1.5,1.1,1.9,0.3,3.3,1.3c-5.9-1-4.8-0.3-6.6-3.7
	c-3.8,0.2-5.8-0.9-5.5-5c1.3,0.9,6.4,3.8,7.1,4.8c0,0.1,0.2,0.4,0.3,0.5c0.2,0.3,0.2,0.4,0.4,0.8C125,160.3,125.2,160.6,125.7,161
	L125.7,161z M121.9,151.4L121.9,151.4l3,4.2l-3.6,1.7l-0.2-1.2l1.2-0.6l-1.3-0.8L121.9,151.4z M120,156.8L120,156.8
	c-1.3-0.7-2.1-1.4-2.1-3.2c0-2,0.8-2.2,2.6-2.4c-0.7,3.1-0.4,2.5-1.3,3.1L120,156.8z M125.9,154.2L125.9,154.2
	c-5-8.3-12.7-1.5-8.9,3.3c1.4,1.8,2.4,2,5.2,2l3.8,3.5c2.1,0.6,4.4-0.2,5.3-1.5C132.6,159.5,132.5,154.9,125.9,154.2L125.9,154.2z"
	/>
<path fill-rule="evenodd" clip-rule="evenodd" fill="#22110B" d="M135,157.3c0.8-1.5,0.3-2.5-0.4-3.7c-1.3-2.3-8.9-6.8-11.7-8.5
	c-5.6-3.6-4.4,0.9-9-6.1c-2.7,2.6,1.6,4.6,3.1,5.5l12.9,7.7C133.1,153.8,133.3,154,135,157.3L135,157.3z"/>
<path fill-rule="evenodd" clip-rule="evenodd" fill="#22110B" d="M144.9,137.3l0,0.6l2.6,1.9c-0.3-4.9-1.4-8.2-0.8-13.8l3.5-12
	l-0.9-1.9c-2,1.9-3.6,8-4,10.5C144.4,127.5,145.5,132.9,144.9,137.3L144.9,137.3z"/>
<path fill-rule="evenodd" clip-rule="evenodd" fill="#421311" d="M91.2,185.5c7.5,0.4,9.6-2,17.2-6.1c-3.6,0.8-14.9,8.1-26.7,2.2
	l-7.4-4.1c0.4,1.3-0.4,0.2,0.7,1.2c0.3,0.3,0.7,0.6,1,0.8C80,182.8,86,185.2,91.2,185.5L91.2,185.5z"/>
<path fill-rule="evenodd" clip-rule="evenodd" fill="#F7EAE4" d="M193.2,131c-1.2-6.3,0-19.1,3.7-24.1l1.8-2.3
	C191.2,106.6,188.7,124.8,193.2,131L193.2,131z"/>
<path fill-rule="evenodd" clip-rule="evenodd" fill="#22110B" d="M235.7,163.6l1.6,3.8c3.2-0.5,6.4-1,9.6-1.5l-0.7-2.2L235.7,163.6z
	"/>
<path fill-rule="evenodd" clip-rule="evenodd" fill="#22110B" d="M226.9,142.5l11.7-1.7c0.5-0.5,1-1.2,1.4-1.7
	c-5.2-0.2-9.3-0.1-14.6-0.5L226.9,142.5z"/>
<path fill-rule="evenodd" clip-rule="evenodd" fill="#5D0F0C" d="M129.1,184.5l-0.1,0.7l-0.9,0.3c-1.2,0.9-1.6,1.9-3.7,1.4
	c-1.6-0.4-1.5-1.2-2.2-2.4l-0.8-0.3l-0.1-0.9c-0.3-1.8-0.3-3.5,0.9-4.9c1-1.1,2.6-1.9,4.5-1.5C129.9,177.7,131.6,180.5,129.1,184.5
	L129.1,184.5z M125.1,187.8L125.1,187.8c7.2,0,9-11.6,1.2-11.9c-4.9-0.2-8.2,4.7-4.5,9.6C122.7,186.8,123,187.8,125.1,187.8
	L125.1,187.8z"/>
<path fill-rule="evenodd" clip-rule="evenodd" fill="#22110B" d="M79.2,188.3c-1-1-0.7-0.2-1.6-1.3c0.1-1.3,3.2-0.2,3.3,2.6
	C79.5,189.2,80.1,189.2,79.2,188.3L79.2,188.3z M74.7,187L74.7,187L74.7,187c0,1.4,0.4,1.2-0.8,1.2l0.2,0.9c1.3-1.6,3-1.8,4.7,0
	l0.2,4.8c-4.2,0.4-3.5-1.2-5-2.5c0.1,1.6,0.1,0.4,0.5,1.7c2.6,1.1,2.7,2.1,6.3,0.8c0.1-0.1,0.2-0.2,0.2-0.3l0.9-0.9
	c-0.8-0.3-0.6,0.6-0.6-0.3c1.4-2.1,0.4-4.3-1.1-5.6C78,184.7,76.4,186,74.7,187L74.7,187z"/>
<path fill-rule="evenodd" clip-rule="evenodd" fill="#22110B" d="M131.8,147.7c-2.7-1.8-6-4.1-8.7-5.7l-1,0.9l4.3,2.9
	c4,2.8,10.1,4.8,10.2,10.5C138.7,152.2,135,149.8,131.8,147.7L131.8,147.7z"/>
<path fill-rule="evenodd" clip-rule="evenodd" fill="#22110B" d="M124.6,157.8c0.6,2.9,3.1,4.2,6.1,3l0.2-3.1l-4.7-2.5L124.6,157.8z
	"/>
<path fill-rule="evenodd" clip-rule="evenodd" fill="#22110B" d="M191.6,61.9l3.9,15l1.7-0.4c0.4-1-1.6-5.3-2.2-7l-1.8-8.5
	C192.6,61.3,192.4,61.2,191.6,61.9L191.6,61.9z"/>
<path fill-rule="evenodd" clip-rule="evenodd" fill="#F7EAE4" d="M203.8,67.4l2.1,3.6c-0.6-0.1-0.9,0-1.5-1.3
	C204,68.9,204,68.3,203.8,67.4L203.8,67.4z"/>
<path fill-rule="evenodd" clip-rule="evenodd" fill="#2B1B10" d="M122.4,158.6c1.8,3.4,0.6,2.7,6.6,3.7c-1.4-1-1.8-0.3-3.3-1.3
	c-0.5-0.4-0.7-0.6-1.1-1.2c-0.2-0.3-0.2-0.4-0.4-0.8c-0.1-0.1-0.2-0.4-0.3-0.5c-0.6-1-5.7-4-7.1-4.8
	C116.6,157.7,118.7,158.8,122.4,158.6L122.4,158.6z"/>
<path fill-rule="evenodd" clip-rule="evenodd" fill="#421311" d="M73.9,188.1c1.1,0,0.8,0.2,0.7-1.1l0-0.1c0.4-0.5,2.1-4.9,6-1.3
	c3.8,3.5,1.5,5.9,1.3,7.1l-0.9,0.9c-0.1,0.1-0.2,0.2-0.2,0.3c2.4-0.6,3.4-2.4,3-5c-0.2-1.7-1.2-3.3-2.4-4.4
	C79.7,182.9,74,181.5,73.9,188.1L73.9,188.1z"/>
<path fill-rule="evenodd" clip-rule="evenodd" fill="#22110B" d="M127.1,179l1.3,2.2c-3.9-1.5-2.2-1-4.3-0.8c-1.6,0.1-0.4,0.1-1-0.2
	C124,178.6,125.4,178.9,127.1,179L127.1,179z M121.3,183.3L121.3,183.3l0.1,0.9l0.8,0.3c0.1-2.3,0.9-3.9,3.6-3.6
	c2.5,0.3,2.6,2.2,2.3,4.6l0.9-0.3l0.1-0.7c-0.1-0.6,1.6-5.7-2.9-6.3C121.7,177.7,121.7,182.5,121.3,183.3L121.3,183.3z"/>
<path fill-rule="evenodd" clip-rule="evenodd" fill="#421311" d="M149.6,170.3l1.9,0.4c-0.7-2.9-1.4-5.4-2.3-8.5l-2.2-5.8
	c-0.4-1.1-0.3-0.8-1-1.5C147.1,159.1,149.1,166.3,149.6,170.3L149.6,170.3z"/>
<path fill-rule="evenodd" clip-rule="evenodd" fill="#F7EAE4" d="M121.3,183.3c0.4-0.8,0.4-5.6,4.9-5.1c4.5,0.6,2.8,5.6,2.9,6.3
	c2.4-4.1,0.8-6.9-2.4-7.5c-2-0.4-3.6,0.4-4.5,1.5C121,179.8,121,181.5,121.3,183.3L121.3,183.3z"/>
<path fill-rule="evenodd" clip-rule="evenodd" fill="#22110B" d="M123.6,184c1.2,0.7,2.1,0.8,3.6,0.3c-0.4,1-0.7,1.6-2,1.5
	C123.8,185.7,123.7,185.2,123.6,184L123.6,184z M124,186.2L124,186.2c4.7,0.8,4.2-3.5,2.5-4.4C123.7,180.6,121.5,183.4,124,186.2
	L124,186.2z"/>
<path fill-rule="evenodd" clip-rule="evenodd" fill="#22110B" d="M204.5,86.6c4.6,0.2,4.7-0.3,8.1-2.6c-1.4,0-5.5-0.5-6.4,0.4
	c-0.3,0.3-0.3,0.5-0.6,0.9C205.2,85.8,205,85.9,204.5,86.6L204.5,86.6z"/>
<path fill-rule="evenodd" clip-rule="evenodd" fill="#F7EAE4" d="M74.7,187c1.7-1,3.3-2.2,5.6-0.2c1.5,1.3,2.4,3.4,1.1,5.6
	c0,0.9-0.1,0,0.6,0.3c0.1-1.2,2.5-3.6-1.3-7.1C76.8,182.1,75,186.5,74.7,187L74.7,187z"/>
<path fill-rule="evenodd" clip-rule="evenodd" fill="#22110B" d="M75.4,189.4c1.4,0.8,0.3,0.6,2.7,2.5l0.4,0.3c0,0-0.6,1.2-2.3-0.3
	C75.5,191.4,75.3,190.6,75.4,189.4L75.4,189.4z M79.1,192.8L79.1,192.8c1.1-3.3-3-5.7-4.3-3.8C73.4,191.3,77,194.4,79.1,192.8
	L79.1,192.8z"/>
<path fill-rule="evenodd" clip-rule="evenodd" fill="#F7EAE4" d="M124,186.2c-2.5-2.7-0.2-5.6,2.5-4.4
	C128.2,182.6,128.7,187,124,186.2L124,186.2z M122.2,184.5L122.2,184.5c0.7,1.2,0.6,2,2.2,2.4c2.1,0.5,2.5-0.5,3.7-1.4
	c0.3-2.4,0.2-4.3-2.3-4.6C123.1,180.6,122.4,182.2,122.2,184.5L122.2,184.5z"/>
<polygon fill-rule="evenodd" clip-rule="evenodd" fill="#22110B" points="121,154.7 122.4,155.5 121.2,156.1 121.4,157.3
	124.9,155.6 121.9,151.4 "/>
<path fill-rule="evenodd" clip-rule="evenodd" fill="#22110B" d="M192.3,186.5c1-1.1,2-2.2,2.7-3.7l-4.4,0.4
	C191,184.6,191.6,185.6,192.3,186.5L192.3,186.5z"/>
<path fill-rule="evenodd" clip-rule="evenodd" fill="#22110B" d="M120,156.8l-0.7-2.5c0.9-0.7,0.5,0,1.3-3.1
	c-1.9,0.2-2.7,0.4-2.6,2.4C117.9,155.4,118.7,156.1,120,156.8L120,156.8z"/>
<path fill-rule="evenodd" clip-rule="evenodd" fill="#F7EAE4" d="M79.1,192.8c-2.1,1.6-5.7-1.5-4.3-3.8
	C76.1,187.2,80.2,189.5,79.1,192.8L79.1,192.8z M74.1,189L74.1,189l-0.1,2.3c1.4,1.3,0.8,2.9,5,2.5l-0.2-4.8
	C77.2,187.2,75.5,187.4,74.1,189L74.1,189z"/>
<path fill-rule="evenodd" clip-rule="evenodd" fill="#F7EAE4" d="M123.1,180.2c0.6,0.3-0.5,0.4,1,0.2c2.1-0.2,0.4-0.7,4.3,0.8
	l-1.3-2.2C125.4,178.9,124,178.6,123.1,180.2L123.1,180.2z"/>
<path fill-rule="evenodd" clip-rule="evenodd" fill="#F7EAE4" d="M78.1,192c-2.4-1.9-1.3-1.8-2.7-2.5c-0.1,1.1,0.1,1.9,0.8,2.6
	c1.7,1.5,2.3,0.3,2.3,0.3L78.1,192z"/>
<path fill-rule="evenodd" clip-rule="evenodd" fill="#F7EAE4" d="M77.6,187c0.9,1.1,0.6,0.3,1.6,1.3c0.9,0.9,0.3,0.9,1.7,1.3
	C80.7,186.8,77.7,185.7,77.6,187L77.6,187z"/>
<path fill-rule="evenodd" clip-rule="evenodd" fill="#F7EAE4" d="M127.1,184.3c-1.4,0.6-2.4,0.4-3.6-0.3c0.1,1.2,0.2,1.7,1.5,1.8
	C126.5,185.9,126.7,185.3,127.1,184.3L127.1,184.3z"/>
<path fill-rule="evenodd" clip-rule="evenodd" fill="#2B1B10" d="M203.8,67.4c0.2,0.8,0.2,1.5,0.5,2.3c0.6,1.3,0.9,1.2,1.5,1.3
	L203.8,67.4z"/>
<path fill-rule="evenodd" clip-rule="evenodd" fill="#2B1B10" d="M245.4,139.1l1.3-0.5C244.6,139,246.2,138.6,245.4,139.1
	L245.4,139.1z"/>
<path fill-rule="evenodd" clip-rule="evenodd" fill="#22110B" d="M171.3,154.8c16.2,0.4,35.5-2.4,51.6-4.8l19.5-3.2
	c2.2,6.8,4.4,13.6,6.5,20.4c-23.5,3.5-46.9,8.3-71.6,9c-6,0.2-64.9-11.1-69.3-11.1l-3.4,5l36.1,5.9c6,1,12.1,2,18,2.9
	c5.9,0.9,11.8,2.1,17.8,2.7c13.7,1.4,41.4-2.8,56.3-5.4c3.5-0.6,15-3.3,17.6-2.8l3.8,29.8c-1,0.9-0.7,0.9-2,1.2
	c-12.2,3.3-26.2,3.7-38.1,0.1c-3.2-1-5.6-2.1-8.3-3.5c-11.8-6-14.9-15.4-16.8-17.5l-5.8,0c3.7,7.4,4.2,9.6,10.1,15.6
	c13.8,13.8,42.3,16.4,59.7,10.7c4.2-1.4,2.6,0.4,5.3-0.5c5.6-1.8-0.7-34.1-1.7-38.3c-2.4-9.7-5.6-18.9-9.9-27.8
	c-0.6-1.3-1.9-4.8-5.5-2.7c-1,0.6-1,1.4-1.4,1.6l-12.6,2.1c-11.7,1.8-27.5,3.5-39.3,4.6c-16.6,1.5-34.6,1.7-45.4-11.8
	c-1.4-1-12.5-12.6-14.6-15.4c-3.8-0.9-4.3,1.1-3.9,3.8c3,3.2,8.9,9.8,12.2,12.5l6,6.1c0.8,0.8,1.5,1.1,2.4,1.9
	c4.5,3.9,9.1,5.8,14.7,7.4C162.1,154.5,168.2,154.7,171.3,154.8L171.3,154.8z"/>
<path fill-rule="evenodd" clip-rule="evenodd" fill="#FFFFFF" d="M201.5,60.6c1.2-0.7,3,0.4,4.2,2.5c0.8,1.5,1.1,3.2,0.7,4.2
	c0.7,0.5,1.3,1.2,1.8,2.1c1.2,2.1,1.2,4.4,0,5.1c-1.2,0.7-3.1-0.4-4.2-2.5c-0.8-1.5-1.1-3.2-0.7-4.2c-0.7-0.5-1.3-1.2-1.8-2.1
	C200.3,63.6,200.3,61.3,201.5,60.6L201.5,60.6z M202,62.1L202,62.1c0.3-0.1,0.9,0.6,1.4,1.8c0.5,1.1,0.7,2.1,0.4,2.2
	c-0.3,0.1-0.9-0.7-1.4-1.8C201.9,63.2,201.7,62.2,202,62.1L202,62.1z M204.9,69.1L204.9,69.1c0.3-0.1,0.9,0.6,1.4,1.7
	c0.5,1.1,0.7,2.1,0.4,2.2c-0.3,0.1-0.9-0.7-1.4-1.8C204.8,70.2,204.6,69.2,204.9,69.1L204.9,69.1z"/>
</svg>
