<svg xmlns="http://www.w3.org/2000/svg" version="1.0" viewBox="0 0 302 197" preserveAspectRatio="xMidYMid meet">
<ellipse cx="151" cy="98.75" rx="151" ry="98.75" fill="#f2c800"/>
<ellipse cx="151" cy="98.75" rx="145.25" ry="94.75" fill="#313f36"/>
<path fill="#FFFFFF" d="M216.5,116h-88V94h149.9c0,1.3,0.1,2.3,0.1,3.6C278.4,147,216.5,180,153.5,180 c-82.3,0-130.6-43-130.6-81.1c0-45.2,64.5-80.3,131.6-80.1c58.7,0,99.8,24.7,117.7,54.4h-57.5 c-11.9-20.75-29.4-29.75-63.75-29.75c-44.25,0-76.25,25.917-76.25,52.75c0,29.8,22.9,50,72.5,50 C193,146.2,211.3,135.7,216.5,116z"/>
</svg>