<svg version="1.1" id="Layer_1" xmlns="http://www.w3.org/2000/svg" xmlns:xlink="http://www.w3.org/1999/xlink" x="0px" y="0px"
	 viewBox="0 0 704 836" preserveAspectRatio="xMidYMid meet" enable-background="new 0 0 704 836" xml:space="preserve">
<g>
	<path fill="#040302" d="M169.035,22.053c1.381,0.1,2.912,0.008,4.018,0.999c5.458,3.934,9.567,9.409,13.252,14.966
		c5.807,8.518,8.369,18.717,10.465,28.675c3.635,16.131,5.333,32.66,5.315,49.182c0,17.419,1.539,35.081,7.188,51.652
		c7.87,23.202,22.153,44.606,41.977,59.23c14.442,10.382,31.479,17.819,49.439,18.51c7.212,0.108,14.5,0.416,21.646-0.774
		c-14.949-13.401-28.958-28.575-37.185-47.134c-5.424-12.279-7.329-25.714-8.693-38.958c-2.438-27.719,0.316-56.003-6.506-83.222
		c-3.419-13.785-7.936-27.453-14.957-39.856c-0.308-0.807-0.499-1.655-0.565-2.529c0.648-0.482,1.298-0.973,1.946-1.472
		c1.098,0.491,2.247,0.923,3.162,1.739c16.139,13.435,28.642,30.955,37.21,50.063c4.659,10.099,6.289,21.188,8.56,31.978
		c2.754,13.494,6.963,26.887,14.242,38.666c7.62,11.571,19.217,19.732,30.855,26.87c2.529,1.53,5.075,3.069,7.787,4.268
		c4.725-9.368,6.904-19.965,7.179-30.406c32.61,3.802,64.754,11.538,95.651,22.636c32.177,11.796,63.381,27.902,88.538,51.519
		c33.499,31.038,60.37,69.846,74.869,113.328c3.17,10.016,5.891,20.232,7.064,30.697c0.956-0.149,1.93-0.299,2.911-0.441
		c9.742-2.354,20.465-4.542,27.651-12.104c-0.698,8.602-2.271,17.204-5.456,25.248c-3.278,7.787-10.499,12.919-17.812,16.58
		c0.898,1.847,1.672,3.752,2.362,5.69c1.073,4.442,1.956,8.96,1.831,13.56c0.008,5.132,0.79,11.114,5.149,14.466
		c4.242,3.178,9.55,6.081,11.479,11.28c-0.499,4.934-2.271,9.7-3.951,14.358c8.502,10.799,15.182,23.21,18.043,36.729
		c-5.79,2.628-11.746,4.907-17.427,7.803c-0.791,10.382-3.286,20.557-6.714,30.364c5.981,2.08,13.169,1.797,17.919,6.521
		c3.178,3.028,5.706,6.979,6.289,11.414c1.14,7.62,2.521,15.307,2.171,23.043c-0.282,4.326-4.093,7.054-7.853,8.327
		c-9.259,3.22-19.15,3.453-28.775,4.617c-23.135,2.296-46.304,4.85-69.089,9.559c-2.861,11.555-6.264,22.969-9.749,34.349
		c-3.353,10.573-6.83,21.13-11.289,31.296c-7.995,17.394-19.85,33.184-35.048,44.913c-11.638,8.984-25.613,15.107-40.288,16.654
		c16.796-15.174,31.021-34.731,34.981-57.434c2.304-12.744,3.31-25.788,2.137-38.707c-0.273-4.734-0.474-9.468-1.006-14.176
		c-20.881,8.069-40.654,18.917-59.114,31.562c0.158,13.984-4.01,27.769-10.557,40.031c-0.873,1.88-2.762,3.651-2.055,5.905
		c2.57,13.361,3.203,27.236,0.5,40.631c-3.37,14.591-11.189,27.901-21.039,39.057c-0.458,7.92-5.033,15.257-10.998,20.29
		c-0.79,8.011-5.823,15.239-13.094,18.718c-3.619,1.372-5.581,4.966-8.859,6.871c-2.912,2.088-6.73,3.053-10.19,1.921
		c-3.402-1.53-5.641-4.949-6.298-8.543c-1.431-7.079,0.523-14.25,2.878-20.905c-0.175-2.246-1.339-4.309-1.297-6.589
		c-0.316-4.2,1.921-7.92,3.577-11.597c-0.957-4.517-3.295-9.241-1.465-13.851c0.832-3.22,3.244-5.691,4.427-8.71
		c-0.841-2.504-2.837-4.518-3.437-7.138c-1.78-7.512,0.491-15.323,3.96-22.003c-7.57-8.619-14.292-18.876-15.148-30.622
		c-0.791-4.975-0.491-10.008-0.675-15.016c-6.696-4.409-12.511-10.008-17.935-15.881c-5.141-5.94-9.899-12.437-12.42-19.957
		c-4.576-13.285-6.015-27.502-5.349-41.486c-12.271-10.715-22.053-24.541-27.087-40.122c-0.882-2.87-1.622-5.781-2.296-8.701
		c-7.163,1.938-14.641,2.771-22.045,2.346c-10.482-0.882-20.315-4.967-29.831-9.159c-15.765,2.195-31.554,4.434-47.443,5.507
		c-30.68,1.888-61.077,7.67-90.551,16.356c-25.813,7.795-51.161,18.16-73.431,33.566c-0.374,0.249-1.131,0.749-1.505,0.998
		c6.938-11.072,15.232-21.255,23.435-31.421c21.687-25.896,45.812-49.796,72.232-70.843c21.754-17.412,45.13-32.743,69.571-46.087
		c24.749-14.042,50.595-26.097,77.199-36.171c-1.364-13.876-0.166-27.826,1.032-41.652c1.139-10.665,2.471-21.305,4.301-31.87
		c0.399-1.573,0.624-3.186,0.832-4.792c-33.126-9.616-63.773-29.191-84.537-56.968c-25.855-34.374-37.169-78.505-34.823-121.124
		c0.948-20.764,5.19-41.153,7.886-61.709c3.277-17.204,5.665-34.715,4.875-52.268c-0.158-3.619-0.632-7.213-1.373-10.756
		c-0.724-3.519-2.803-6.556-3.668-10.033C168.37,23.792,168.819,22.635,169.035,22.053L169.035,22.053z"/>
	<path fill="#FFFFFF" d="M285.208,90.318c3.494,10.582,7.146,21.321,8.818,32.411c0.849-7.67,0.183-15.382,0.366-23.069
		c3.943,15.398,5.515,31.504,12.096,46.137c6.98,16.629,19.757,30.14,34.266,40.538c3.71,2.77,7.67,5.166,11.488,7.778
		c-7.637,12.512-16.472,24.317-24.891,36.329c-1.547-0.449-2.645-1.713-3.885-2.653c-12.936-10.624-24.357-23.842-30.064-39.798
		c-6.023-16.405-7.928-33.982-8.203-51.36c-0.067-8.078-0.258-16.164-1.032-24.208c-0.848-4.934-1.156-9.958-2.129-14.883
		c2.646,8.776,5.524,17.611,6.422,26.778C288.685,112.912,287.014,101.515,285.208,90.318L285.208,90.318z"/>
	<path fill="#FFFFFF" d="M183.235,92.281c0.216,0.532,0.407,1.073,0.574,1.63c1.639,10.848,1.805,21.845,2.529,32.785
		c0.316,5.341-0.292,10.781,1.015,16.031c0.982-6.198,1.614-12.445,2.579-18.651c0.699-3.727,1.065-7.503,1.614-11.255
		c1.572,7.42,1.248,15.041,2.113,22.536c0.724,9.458,2.288,18.834,4.617,28.026l0.266,0.491
		c6.93,25.397,21.296,48.973,41.561,65.919c8.801,7.404,18.917,13.111,29.416,17.753c16.313,6.996,34.482,8.044,51.968,6.43
		c17.211-1.447,34.24-4.766,51.535-5.282c16.497-0.241,32.993,2.504,48.666,7.604c11.072,3.635,21.929,8.718,30.53,16.738
		c12.603,11.338,21.312,27.111,23.317,44.023c1.872,8.586-0.582,17.212-2.288,25.614c-0.406,0.657-0.84,1.306-1.305,1.93
		c1.089-2.92,1.497-5.957,1.904-9.026c0.05-1.73,0.058-3.461,0.033-5.191c-0.407-2.279-0.574-4.583-0.923-6.863
		c-0.633,5.149-1.115,10.382-2.896,15.298c-0.757,1.98-1.272,4.043-1.806,6.089c0.167-4.018,1.323-7.919,1.515-11.938
		c0.757-15.207-5.415-30.896-17.112-40.804c7.562,9.201,10.632,21.205,11.847,32.835c0.665,4.916,0.174,9.883-0.608,14.757
		c-2.837,13.302-11.996,24.633-23.626,31.413c-6.854,4.217-14.607,6.638-22.402,8.427c6.089,0.823,12.32,0.54,18.269-1.064
		c6.239-0.608,12.228-2.521,17.777-5.424c0.624-1.215,1.755-1.921,3.011-2.371c-0.142,1.647-1.938,2.18-3.077,3.036
		c-10.441,8.036-23.443,12.82-36.662,12.82c-5.149,0.116-10.24-0.815-15.257-1.847l-0.449-0.274
		c-13.418-3.461-25.497-12.021-33.259-23.484c-0.208-0.191-0.615-0.582-0.823-0.774c9.75,1.173,19.416,2.978,29.083,4.642
		c-5.517-4.392-11.905-7.521-18.31-10.374c-15.182-6.747-31.528-10.116-47.592-14.042c-17.544-4.176-35.214-8.003-52.401-13.527
		c-19.466-6.372-38-15.972-53.723-29.166c-15.631-13.028-28.251-29.54-37.128-47.825c-9.791-20.049-15.448-42.027-17.211-64.23
		c-1.631-22.736,0.64-45.588,4.226-68.041c0.332-2.346,0.682-4.692,1.09-7.021c0.082,6.389,0.207,12.769,0.34,19.158
		c-0.066,5.532,0.358,11.056,0.957,16.546c1.032-3.27,1.348-6.68,1.713-10.066c1.439-9.633,2.462-19.325,3.769-28.983
		C182.969,102.322,182.861,97.281,183.235,92.281L183.235,92.281z"/>
	<path fill="#403621" d="M186.338,126.696c-0.724-10.939-0.89-21.937-2.529-32.785c0.266,0.499,0.807,1.514,1.081,2.021
		c1.115,7.396,0.083,14.957,1.581,22.319c0.283,4.958-0.316,10.091,1.572,14.833c0.233-3.078,0.708-6.14,1.889-9.01
		c-0.965,6.206-1.597,12.454-2.579,18.651C186.047,137.478,186.654,132.037,186.338,126.696L186.338,126.696z"/>
	<path fill="#837A76" d="M175.773,129.791c0.907,4.276,0.732,8.677,1.099,13.011c0.557-2.171,1.081-4.351,1.572-6.53
		c-0.366,3.386-0.682,6.796-1.713,10.066C176.131,140.847,175.706,135.323,175.773,129.791L175.773,129.791z"/>
	<path fill="#FCC324" d="M373.613,166.053c35.73,1.73,70.844,11.48,103.113,26.754c28.384,13.468,54.597,31.47,77.481,53.008
		c22.087,20.855,39.132,46.652,51.528,74.288c-33.642-5.199-67.899-5.366-101.732-2.013c-6.265,0.482-12.504,1.148-18.742,1.888
		c-2.131-29.341-21.829-56.485-48.907-67.865c-16.422-7.063-34.107-11.064-51.927-12.271c-18.427-1.381-36.669,2.304-54.946,3.993
		c6.705-8.951,12.611-18.484,19.275-27.469c5.208-7.57,11.255-14.583,15.565-22.736
		C368.963,185.062,372.207,175.703,373.613,166.053L373.613,166.053z"/>
	<path fill="#4D2580" d="M522.796,324.96c28.293-1.888,56.785-0.557,84.803,3.744c1.265,0.233,3.012,0.267,3.304,1.872
		c5.248,13.593,9.35,27.643,12.137,41.953c-22.744-3.02-45.746-4.509-68.682-3.527c-23.483,0.532-46.851,3.178-70.22,5.349
		c-2.013,8.452-4.991,16.788-10.073,23.917c-8.419,12.412-21.505,21.538-36.055,25.165c-15.756,3.852-33.076,1.605-46.968-6.888
		c-10.233-6.023-18.543-15.124-23.843-25.714c-17.236,3.153-34.44,6.63-51.319,11.38c-10.557,2.662-20.947,5.948-31.404,8.984
		c-0.94-5.765-0.699-11.613-0.64-17.428c0.524-9.7,0.749-19.457,2.113-29.074c6.139-2.263,12.753-3.286,19.116-4.9
		c11.514-2.663,23.16-4.684,34.857-6.306c5.066-0.932,10.074,1.132,14.732,2.804c4.609,9.284,10.998,17.769,19.167,24.208
		c11.705,9.5,26.604,15.04,41.694,15.332c12.52,0.257,25.114-2.954,35.929-9.293c14.085-8.228,25.206-21.538,30.464-37.019
		c2.547-6.947,3.395-14.342,3.977-21.679C498.181,326.75,510.459,325.477,522.796,324.96L522.796,324.96z"/>
	<path fill="#FCC324" d="M289.443,339.66c11.105,2.721,22.403,4.775,33.3,8.252c-12.087,1.564-23.825,5.058-35.738,7.495
		C287.812,350.158,288.295,344.851,289.443,339.66L289.443,339.66z"/>
	<path fill="#FCC324" d="M632.73,378.243c7.037-1.023,13.81-3.311,20.564-5.449c-1.548,9.168-7.662,17.794-16.514,21.139
		c-5.266,2.263-11.08,2.021-16.679,2.446c-6.572-0.1-13.169-0.898-19.475-2.812c-5.407-1.68-10.948-2.845-16.505-3.885
		c4.442-2.146,9.125-3.793,14.009-4.608c-15.249-2.379-32.31-1.049-44.905,8.735c-0.217-4.534-0.133-9.334,2.121-13.41
		c1.231-2.188,3.42-3.735,5.873-4.268c7.587-1.855,15.481-1.231,23.21-1.032C600.519,376.213,616.541,379.757,632.73,378.243
		L632.73,378.243z"/>
	<path fill="#E6BDA8" d="M522.347,379.349c7.804-0.865,15.606-1.98,23.468-2.146c-2.579,9.009-3.877,18.859-0.773,27.918
		c9.575-5.59,20.905-7.903,31.919-6.747c12.287,1.315,24.333,4.243,36.612,5.648c6.181,0.599,12.595,1.256,18.601-0.815
		c2.944,6.979,5.249,14.45,5.017,22.112c0.1,5.207,1.098,10.88,4.767,14.841c2.704,2.902,6.954,3.41,9.949,5.89
		c1.772,2.612,1.215,6.098,0.6,9.018c-0.441,2.603-3.004,4.676-5.674,3.918c-11.372-2.13-23.094-1.955-34.465,0.058
		c-0.899-4.225-2.214-9.458,1.006-13.035c3.719-3.835,9.459-3.644,14.392-3.686c-3.868-1.181-7.753-2.729-11.862-2.545
		c-5.024,0.017-9.842,3.327-11.755,7.952c-1.123,3.86-0.308,7.92,0.017,11.839c0.183,0.241,0.549,0.739,0.731,0.989
		c-22.735,7.537-43.074,21.687-58.489,39.972c-16.571,19.209-26.438,43.5-30.963,68.273c-9.209,0.915-19.084,0.208-26.938-5.149
		c-8.626-5.815-13.21-15.789-16.279-25.389c-3.286-11.139-3.918-23.026-2.055-34.474c-5.299,2.079-11.106,3.652-16.812,2.454
		c-2.571-0.607-4.5-2.488-6.131-4.442c13.526-11.862,27.485-23.334,39.373-36.903c9.958,2.77,21.346,3.886,28.717,11.979
		c4.418,4.085,5.682,10.183,6.147,15.932c0.932,6.979,1.04,14.034,1.805,21.046c2.213-9.725,4.576-19.482,5.075-29.482
		c0.366-8.635-2.828-17.777-9.716-23.275c-6.78-4.768-15.058-6.589-22.286-10.499c10.173-14,16.271-30.497,20.83-47.06
		C519.41,395.588,520.766,387.436,522.347,379.349L522.347,379.349z"/>
	<path fill="#FCC324" d="M492.532,383.467c6.098-0.607,12.171-1.422,18.284-1.905c-1.738,17.819-7.403,35.189-16.038,50.853
		c-13.027,23.667-33.442,41.86-52.934,60.07c-23.866,22.428-46.927,46.761-61.551,76.409c-7.388,14.366-12.421,29.782-16.381,45.405
		c-0.982-11.032-1.447-22.162,0.25-33.151c2.071-15.349,7.329-30.289,15.557-43.425c-10.283,10.748-17.886,24.066-22.195,38.292
		c-2.754,10.44-5.224,21.172-4.483,32.045c-11.663-7.62-23.609-15.356-32.46-26.314c-10.224-12.037-15.973-27.56-16.696-43.3
		c-0.641-17.752-0.075-35.812,4.584-53.058c-8.436,10.157-17.736,19.682-28.509,27.369c-13.668,9.966-29.449,16.829-45.854,20.805
		c-19.167,4.727-38.949,5.749-58.54,7.355c-16.421,1.155-32.469,5.049-48.591,8.177c10.241-10.989,21.23-21.246,32.402-31.271
		c11.63-10.115,23.443-20.131,36.487-28.4c13.759-8.751,28.192-16.371,42.792-23.616c16.056-7.829,32.219-15.516,48.857-22.055
		c-18.576,10.283-34.599,24.466-49.681,39.249c0.034,0.199,0.1,0.599,0.133,0.807c1.198-1.58,3.028-2.421,4.659-3.436
		c24.042-15.032,48.582-29.232,73.073-43.507c-9.783,9.716-20.332,18.617-30.68,27.709c-18.826,16.197-37.959,32.095-58.349,46.295
		c15.598-7.37,30.613-15.972,44.989-25.522c11.338-7.619,22.386-15.756,32.485-24.981c19.666-18.401,42.302-33.4,65.927-46.228
		c6.946,6.514,15.058,11.746,23.767,15.58c1.682,0.143,0.084,1.424-0.424,1.789c-11.238,7.995-23.151,15.44-32.336,25.889
		c-5.124,5.84-8.651,12.852-11.097,20.182c8.884-10.415,18.867-19.94,30.089-27.81c8.178-5.857,17.462-9.95,25.548-15.947
		c8.194,1.223,16.463,2.57,24.773,2.013c-1.896,0.857-3.61,2.047-5.273,3.286c-14.234,10.398-29.55,19.183-44.165,29.017
		c-11.73,7.944-23.027,17.012-31.188,28.733c-10.665,15.123-15.415,33.716-16.297,52.009c3.203-16.496,9.725-32.477,19.799-45.978
		c6.821-9.251,15.572-17.021,25.521-22.761c24.724-14.767,50.671-28.169,72.051-47.768c2.329-2.113,4.293-4.75,7.279-5.998
		c11.487-5.54,21.172-14.724,27.335-25.888C488.505,395.13,490.71,389.34,492.532,383.467L492.532,383.467z"/>
	<path fill="#FCC324" d="M265.019,428.822c30.563-12.645,62.358-22.536,95.002-28.093c1.689,1.689,3.153,3.586,4.509,5.565
		c-31.354,8.976-61.56,21.538-91.292,34.839c-30.755,14.059-61.002,29.44-89.345,47.95c-26.471,17.221-48.824,39.798-70.911,62.15
		c-0.973,0.883-2.304,1.189-3.51,1.639c-13.61,4.376-26.845,9.851-39.972,15.49c9.841-11.181,20.598-21.504,31.221-31.928
		c22.927-21.654,46.71-42.684,73.389-59.655C202.918,458.147,233.323,441.958,265.019,428.822L265.019,428.822z"/>
	<path fill="#403621" d="M569.207,407.609c11.689-3.07,24.558-5.907,36.245-1.365c-4.699,0.708-9.367,1.739-13.726,3.686
		c1.947,2.853,4.301,5.54,5.54,8.802c0.491,4.442-0.49,8.885-1.248,13.252c-0.848,4.509-2.088,9.4-5.839,12.403
		c-9.143,7.029-20.007,11.838-27.985,20.34c-5.998,5.898-10.54,13.027-15.173,19.99c1.913-9.06,5.123-18.027,10.439-25.664
		c8.244-10.781,19.367-19.059,31.221-25.489c1.206-5.207,2.354-10.432,3.544-15.648c-3.119-1.888-6.38-3.71-10.041-4.201
		c-8.235-1.173-16.704-0.915-24.749-3.253C561.246,409.115,565.339,408.79,569.207,407.609L569.207,407.609z"/>
	<path fill="#FCC324" d="M602.441,470.874c13.66-5.499,28.833-7.628,43.416-5.183c2.929,0.249,4.534,3.012,6.405,4.916
		c5.616,6.673,10.266,14.75,11.031,23.584c-11.88,3.428-23.285,8.378-34.166,14.218c-9.933,5.448-19.923,11.255-27.718,19.632
		c-13.228,13.835-22.853,30.697-30.672,48.06c4.242-28.668,17.652-55.538,35.995-77.791c-10.157,5.923-18.593,14.558-24.773,24.524
		c-8.818,14.109-13.876,30.172-17.603,46.27c-2.953,12.371-4.418,25.015-6.889,37.469c-3.011,15.231-6.871,30.339-12.278,44.905
		c-3.51,9.259-7.379,18.493-12.944,26.729c7.445-25.124,8.526-51.503,11.738-77.366c1.771-14.209,3.452-28.517,7.445-42.309
		c4.201-15.248,10.59-29.857,18.784-43.375c-9.684,6.806-16.671,16.821-21.796,27.361c-7.536,15.698-11.43,32.851-14.075,49.988
		c-2.288,15.239-2.862,30.68-5.482,45.878c-2.845,16.396-6.514,32.943-14.208,47.826c0.765-5.183,2.362-10.207,2.953-15.424
		c3.053-19.849,1.822-39.972,2.296-59.963c0.923-16.189,1.805-32.46,5.19-48.358c2.928-13.692,7.454-27.236,15.016-39.106
		c7.57-12.047,17.312-22.636,28.234-31.712C578.649,483.169,590.046,475.89,602.441,470.874L602.441,470.874z"/>
	<path fill="#FCC324" d="M284.693,520.779c4.467-3.843,8.643-8.019,12.545-12.429c-1.739,11.105-0.949,22.387-0.399,33.559
		c-6.555,2.113-13.402,3.502-20.307,3.461c-8.127-0.499-15.956-3.278-23.193-6.889C265.251,535.778,275.525,528.565,284.693,520.779
		L284.693,520.779z"/>
	<path fill="#E6BDA8" d="M433.127,515.206c1.015-1.007,2.055-2.005,3.086-3.004c3.885,5.133,10.141,8.036,16.472,8.577
		c4.076,14.932,8.36,30.564,18.626,42.584c5.807,6.955,13.335,12.812,22.244,15.074c6.331,1.838,12.97,1.14,19.467,1.19
		c-1.298,8.768-2.154,17.611-2.52,26.471c-10.266,3.344-20.007,8.061-29.691,12.795c-10.531,5.116-20.914,10.523-31.32,15.889
		c-1.489-11.056-4.459-21.879-8.194-32.368c-0.558-1.165,0.058-2.363,0.383-3.47c2.879-7.994,5-16.264,6.381-24.641
		c1.073-6.971,1.738-14.167,0.19-21.122C445.181,539.862,440.406,526.818,433.127,515.206L433.127,515.206z"/>
	<path fill="#E6BDA8" d="M604.904,539.098c11.662-11.289,25.297-20.59,40.08-27.286c0.157,10.474-3.652,20.423-7.112,30.139
		c7.569-0.133,15.922-0.008,22.185,4.875c4.492,3.893,5.523,10.166,6.456,15.731c0.565,3.535,0.498,8.41-3.212,10.233
		c-2.902,0.939-6.031,0.407-9.025,0.441c-14.467-0.292-28.775-2.629-43.209-3.428c-8.609-0.316-17.195-1.015-25.812-1.073
		C588.981,557.307,596.552,547.558,604.904,539.098L604.904,539.098z"/>
	<path fill="#FCC324" d="M423.227,522.393c8.893,8.635,14.501,20.515,16.406,32.711c2.362,16.379-2.638,33.083-11.273,46.951
		c-8.451,13.169-17.328,26.246-22.893,40.971c-10.241-7.695-21.214-14.309-32.02-21.155c1.571-17.485,7.237-34.39,14.583-50.246
		C397.181,553.539,410.059,537.683,423.227,522.393L423.227,522.393z"/>
	<path fill="#E6BDA8" d="M578.699,578.104c19.758-0.283,39.506,0.741,59.264,0.973c7.679,0.891,15.382,0.092,23.068,0
		c-2.421,1.073-5.017,1.664-7.653,1.822c-14.975,1.182-29.981,2.005-44.914,3.76c-11.846,1.266-23.601,3.229-35.338,5.3
		C574.706,585.883,576.62,581.947,578.699,578.104L578.699,578.104z"/>
	<path fill="#FCC324" d="M333.433,606.78c11.779,9.134,25.356,15.506,38.083,23.159c10.565,6.614,20.647,13.975,30.589,21.479
		c-3.253,8.835-6.206,17.794-8.693,26.879c-0.475,1.48-0.665,3.102-1.472,4.459c-10.316-5.974-20.731-11.838-30.489-18.71
		c-6.814-4.941-13.618-10.432-17.853-17.852C336.81,634.257,333.849,620.414,333.433,606.78L333.433,606.78z"/>
	<path fill="#FCC324" d="M428.277,621.962c1.772-2.587,3.386-5.283,5.258-7.803c5.539,10.19,9.508,21.687,8.543,33.425
		c-0.924,14.176-6.331,27.652-13.119,39.981c-3.286,4.933-7.321,9.343-10.922,14.026c-5.541-5.175-11.539-9.809-17.861-13.976
		c3.576-12.279,7.661-24.417,12.711-36.172C417.337,641.295,421.722,630.972,428.277,621.962L428.277,621.962z"/>
	<path fill="#FCC324" d="M372.041,683.247c5.416,2.52,10.516,5.665,15.822,8.402c9.31,4.857,18.21,10.565,26.23,17.369
		c-3.895,7.305-8.137,14.417-12.163,21.646c-9.158-5-17.137-12.263-22.901-20.964C374.004,701.865,372.315,692.423,372.041,683.247
		L372.041,683.247z"/>
	<path fill="#FCC324" d="M414.351,721.955c4.468-7.038,8.835-14.226,14.168-20.647c3.651,13.277,4.974,28.026-0.558,40.987
		c-4.159,10.041-10.124,19.35-17.337,27.469c-3.535-4.857-7.379-9.642-12.411-13.027
		C402.604,744.724,407.463,732.786,414.351,721.955L414.351,721.955z"/>
	<path fill="#FCC324" d="M386.233,727.679c3.852,3.269,7.977,6.214,12.411,8.635c-2.055,5.84-4.267,11.621-5.915,17.594
		c-7.694-2.611-12.486-11.272-10.73-19.175C382.664,731.996,384.544,729.842,386.233,727.679L386.233,727.679z"/>
	<path fill="#FCC324" d="M381.425,768.807c-2.496-4.667-1.405-10.432,1.406-14.699c5.407,6.705,14.574,8.327,20.197,14.75
		c2.654,2.953,5.225,6.622,4.809,10.814c0.033,3.452-2.562,6.006-4.874,8.21c-2.038-3.793-4.709-7.454-8.603-9.491
		C389.669,775.828,384.179,773.698,381.425,768.807L381.425,768.807z"/>
	<path fill="#FCC324" d="M380.053,775.861c2.162-0.217,3.252,2.562,5.007,3.561c5.932,4.259,12.021,9.5,13.901,16.862
		c0.175,4.684-4.293,7.495-7.744,9.775c-0.218-1.831-0.092-3.77-0.933-5.449c-2.445-5.757-9.533-7.346-12.378-12.786
		C375.826,783.864,378.155,779.405,380.053,775.861L380.053,775.861z"/>
	<path fill="#FCC324" d="M375.178,811.274c-0.981-5.266,0.814-10.64,3.66-15.04c1.747,3.012,3.876,5.799,5.606,8.826
		c1.64,2.945,0.683,6.988-2.121,8.876C379.778,815.518,375.984,814.22,375.178,811.274L375.178,811.274z"/>
</g>
</svg>
