<svg version="1.1" id="PITTSBURGH_STEELERS" xmlns="http://www.w3.org/2000/svg" xmlns:xlink="http://www.w3.org/1999/xlink"
	 x="0px" y="0px" viewBox="0 0 250 250" preserveAspectRatio="xMidYMid meet" enable-background="new 0 0 250 250" xml:space="preserve">
<path fill="#9AABB7" d="M125,0C56,0,0,56,0,125s56,125,125,125c69,0,125-56,125-125S194,0,125,0z M125,230.9
	c-58.5,0-105.9-47.4-105.9-105.9S66.5,19,125,19C183.5,19,231,66.4,231,125S183.5,230.9,125,230.9z"/>
<g>
	<path fill="#FFFFFF" d="M70.4,122.6c0-1.6-0.4-2.2-1.7-2.2c-1.6,0-1.5,1.4-1.5,2.9v0.7h3.2V122.6z"/>
	<path fill="#FFFFFF" d="M56.6,120.4c-1.6,0-1.5,1.4-1.5,2.9v0.7h3.2v-1.4C58.2,120.9,57.8,120.4,56.6,120.4z"/>
	<path fill="#FFFFFF" d="M89.5,122.6c0-1.6-0.4-2.2-1.7-2.2c-1.6,0-1.5,1.4-1.5,2.9v0.7h3.2V122.6z"/>
	<path fill="#FFFFFF" d="M125,19C66.5,19,19.1,66.4,19.1,125S66.5,230.9,125,230.9c58.5,0,105.9-47.4,105.9-105.9S183.5,19,125,19z
		 M37,134.7c-4.1,0-5.6-2.7-5.6-6.6v-1.6h3.4v1.3c-0.1,2.1,0.5,3.6,2.2,3.6c1.4,0,2.1-0.9,2.1-2.5c0-1.3-0.5-2.1-1.4-2.8
		c-1.8-1.6-4-2.8-5.4-5c-0.6-1-0.9-2.2-0.9-3.3c0-3.7,1.8-5.7,5.4-5.7c5.4,0,5.3,4.9,5.3,7.1h-3.3c0-1.9-0.1-3.8-2-3.8
		c-1.1,0-1.9,0.5-1.9,2c0,1.6,0.9,2.3,2,3.1c1.1,0.8,3.2,2.4,4.2,3.5c1.2,1.4,1.5,2.6,1.5,4.5C42.6,132.6,40.3,134.7,37,134.7z
		 M50,120.7h-1.3v10.1c0.1,0.7,1,0.6,1.3,0.5v2.9c-1.9,0.3-4.5,0.5-4.5-2.6v-11h-1.3V118h1.3v-1.3l3.2-3.1v4.5H50V120.7z
		 M61.4,126.8H55v2.4c0,2.1,0.7,2.5,1.7,2.5c1.2,0,1.5-1,1.5-3.1h3.2c0.1,3.6-1.2,5.9-4.4,5.9c-3.7,0-5.2-2-5.1-6.8v-4.3
		c-0.1-3.8,1.5-6,4.6-6c4.4,0,4.9,2.7,4.9,7.1V126.8z M64.1,127.8v-4.3c-0.1-3.8,1.5-6,4.6-6c4.4,0,4.9,2.7,4.9,7.1v2.2h-6.4v2.4
		c0,2.1,0.7,2.5,1.7,2.5c1.2,0,1.5-1,1.5-3.1h3.2c0.1,3.6-1.1,5.9-4.4,5.9C65.5,134.6,64,132.6,64.1,127.8z M123.9,230.7
		c-5.6-29.9-16-46.5-53.5-52.9c37.5-6.4,47.9-23,53.5-52.9c-5.6-29.9-16-46.5-53.5-52.9c37.5-6.4,47.9-23,53.5-52.9
		c5.6,29.9,16,46.5,53.5,52.9c-37.5,6.4-47.9,23-53.5,52.9c5.6,29.9,16,46.5,53.5,52.9C139.9,184.2,129.5,200.8,123.9,230.7z
		 M76.8,134.2v-21.6H80v21.6H76.8z M87.9,131.7c1.2,0,1.5-1,1.5-3.1h3.2c0.1,3.6-1.1,5.9-4.4,5.9c-3.7,0-5.2-2-5.1-6.8v-4.3
		c-0.1-3.8,1.5-6,4.6-6c4.4,0,4.9,2.7,4.9,7.1v2.2h-6.4v2.4C86.3,131.3,87,131.7,87.9,131.7z M98.6,120.8c0.4-1.2,0.8-1.8,1.2-2.3
		c0.9-0.9,1.5-0.8,2-0.9v4.4c-1.8-0.2-3.1,0.3-3.2,2.7v9.4h-3.2V118h3.1L98.6,120.8L98.6,120.8z M107.5,131.7c0.9,0,1.5-0.8,1.3-1.8
		c0-0.9-1-1.4-1.6-1.9l-1.7-1.4c-1.6-1.3-2.6-2.8-2.6-5.1c0-2.5,1.7-3.9,4.7-3.9c3.1,0,4.5,1.9,4.4,5.4h-3.2
		c0.1-1.8-0.4-2.5-1.5-2.5c-0.8,0-1.3,0.4-1.3,1.3c0,0.9,0.6,1.4,1.2,1.9l2.6,2.1c0.8,0.5,2.1,2.1,2.2,3.2c0.3,2.8-0.3,5.8-4.7,5.8
		c-1.7,0-4.8-0.8-4.5-5.8h3.2C105.8,131.8,106.8,131.7,107.5,131.7z M177.4,177.7c-5.6-29.9-16-46.5-53.5-52.9
		c37.5-6.4,47.9-23,53.5-52.9c5.6,29.9,16,46.5,53.5,52.9C193.5,131.2,183.1,147.8,177.4,177.7z"/>
</g>
<g>
	<path d="M36.9,120.4c-1.1-0.8-2-1.4-2-3.1c0-1.5,0.7-2,1.9-2c1.9,0,2,1.9,2,3.8h3.3c0-2.1,0.1-7.1-5.3-7.1c-3.6,0-5.4,2-5.4,5.7
		c0,1.1,0.3,2.3,0.9,3.3c1.4,2.2,3.6,3.3,5.4,5c0.9,0.7,1.4,1.6,1.4,2.8c0,1.6-0.7,2.5-2.1,2.5c-1.7,0-2.2-1.5-2.2-3.6v-1.3h-3.4
		v1.6c0,3.9,1.5,6.6,5.6,6.6c3.3,0,5.6-2.1,5.6-6.2c0-1.9-0.4-3.2-1.5-4.5C40.2,122.9,38.1,121.3,36.9,120.4z"/>
	<path d="M48.6,113.5l-3.2,3.1v1.3h-1.3v2.7h1.3v11c0,3,2.6,2.8,4.5,2.6v-2.9c-0.4,0.1-1.3,0.1-1.3-0.5v-10.1H50V118h-1.3V113.5z"/>
	<path d="M56.5,117.5c-3.1,0-4.8,2.2-4.6,6v4.3c-0.1,4.8,1.4,6.8,5.1,6.8c3.2,0,4.5-2.3,4.4-5.9h-3.2c0.1,2-0.3,3.1-1.5,3.1
		c-1,0-1.6-0.4-1.7-2.5v-2.4h6.4v-2.2C61.4,120.2,60.9,117.5,56.5,117.5z M58.2,124H55v-0.7c0-1.5-0.1-2.9,1.5-2.9
		c1.3,0,1.6,0.5,1.7,2.2V124z"/>
	<path d="M73.6,128.7h-3.2c0,2-0.3,3.1-1.5,3.1c-1,0-1.6-0.4-1.7-2.5v-2.4h6.4v-2.2c0-4.4-0.5-7.1-4.9-7.1c-3.1,0-4.8,2.2-4.6,6v4.3
		c-0.1,4.8,1.4,6.8,5.1,6.8C72.4,134.6,73.7,132.3,73.6,128.7z M67.3,123.3c0-1.5-0.1-2.9,1.5-2.9c1.3,0,1.6,0.5,1.7,2.2v1.4h-3.2
		V123.3z"/>
	<g>
		<rect x="76.8" y="112.6" width="3.2" height="21.6"/>
		<path d="M78.4,123.4"/>
	</g>
	<path d="M92.6,126.8v-2.2c0-4.4-0.5-7.1-4.9-7.1c-3.1,0-4.8,2.2-4.6,6v4.3c-0.1,4.8,1.4,6.8,5.1,6.8c3.3,0,4.5-2.3,4.4-5.9h-3.2
		c0.1,2-0.3,3.1-1.5,3.1c-1,0-1.6-0.4-1.7-2.5v-2.4H92.6z M86.3,123.3c0-1.5-0.1-2.9,1.5-2.9c1.3,0,1.6,0.5,1.7,2.2v1.4h-3.2V123.3z
		"/>
	<path d="M95.5,118v16.2h3.2v-9.4c0.1-2.4,1.4-2.9,3.2-2.7v-4.4c-0.5,0-1.1,0-2,0.9c-0.5,0.5-0.9,1.1-1.2,2.3h0V118H95.5z"/>
	<path d="M102.9,128.8c-0.4,4.9,2.8,5.8,4.5,5.8c4.4,0,5-2.9,4.7-5.8c-0.1-1.1-1.4-2.6-2.2-3.2l-2.6-2.1c-0.6-0.5-1.2-0.9-1.2-1.9
		c0-0.9,0.6-1.3,1.3-1.3c1.1,0,1.5,0.7,1.5,2.5h3.2c0.1-3.5-1.3-5.4-4.4-5.4c-3.1,0-4.7,1.4-4.7,3.9c0,2.3,1,3.8,2.6,5.1l1.7,1.4
		c0.6,0.5,1.5,1,1.6,1.9c0.2,1-0.4,1.8-1.3,1.8c-0.7,0-1.7,0.1-1.5-2.9H102.9z"/>
</g>
<path fill="#F4C900" d="M123.9,125c5.6-29.9,16-46.5,53.5-52.9c-37.5-6.4-47.9-23-53.5-52.9c-5.6,29.9-16,46.5-53.5,52.9
	C107.9,78.5,118.3,95.1,123.9,125C123.9,125,123.9,125,123.9,125C123.9,125,123.9,125,123.9,125z"/>
<path fill="#1A4085" d="M123.9,125C123.9,125,123.9,125,123.9,125C123.9,125,123.9,125,123.9,125c-5.6,29.9-16,46.5-53.5,52.9
	c37.5,6.4,47.9,23,53.5,52.9c5.6-29.9,16-46.5,53.5-52.9C139.9,171.5,129.5,154.8,123.9,125z"/>
<path fill="#C42220" d="M177.4,72c-5.6,29.9-16,46.5-53.5,52.9c37.5,6.4,47.9,23,53.5,52.9c5.6-29.9,16-46.5,53.5-52.9
	C193.5,118.5,183.1,101.8,177.4,72z"/>
</svg>
