<?xml version="1.0" encoding="UTF-8"?>
<!DOCTYPE svg PUBLIC "-//W3C//DTD SVG 1.1//EN" "http://www.w3.org/Graphics/SVG/1.1/DTD/svg11.dtd">
<!-- Creator: CorelDRAW -->
<svg xmlns="http://www.w3.org/2000/svg" xml:space="preserve" width="350px" height="380px" style="shape-rendering:geometricPrecision; text-rendering:geometricPrecision; image-rendering:optimizeQuality; fill-rule:evenodd; clip-rule:evenodd"
viewBox="0 0 350 380">
 <defs>
  <style type="text/css">
   <![CDATA[
    .fil2 {fill:#010101}
    .fil4 {fill:#0C130F}
    .fil3 {fill:#57211B}
    .fil0 {fill:#F1C817}
    .fil1 {fill:white}
   ]]>
  </style>
 </defs>
 <g id="Capa_x0020_1">
  <metadata id="CorelCorpID_0Corel-Layer"/>
  <g id="_163354408">
   <path id="path14" class="fil0" d="M210.296 273.866c73.5015,0 133.086,-58.9349 133.086,-131.647 0,-72.7102 -59.5845,-131.652 -133.086,-131.652 -73.4968,0 -133.078,58.942 -133.078,131.652 0,72.7125 59.581,131.647 133.078,131.647z"/>
   <path id="path18" class="fil1" d="M210.299 255.495c63.2318,0 114.507,-50.7144 114.507,-113.275 0,-62.5621 -51.2754,-113.272 -114.507,-113.272 -63.2353,0 -114.499,50.7144 -114.499,113.272 -0.00472443,62.5609 51.2636,113.275 114.499,113.275z"/>
   <path id="path22" class="fil2" d="M138.216 131.487c0,0 -9.35555,22.4162 -8.9528,40.1305 0,0 2.91143,-6.63546 3.94018,-5.5016 0,0 -8.41303,27.9143 -2.03859,43.89 0,0 1.35709,-4.4327 3.65907,-7.12326 0,0 3.52561,-5.50042 4.89451,-9.92839 0,0 0.668507,1.87796 1.07245,5.23349 0,0 3.12521,-3.88939 3.79608,-6.57995 0.527955,-2.09765 1.90158,-4.42089 2.85238,-7.11145l1.07953 0.545672c0,0 6.38152,-7.65594 8.81933,-14.6386 0,0 1.89804,-0.259844 0.954335,5.24057 0,0 5.29136,-5.10239 5.42719,-13.0217l1.07717 1.21536c4.4764,5.50042 4.4764,13.9583 4.3512,19.1883 -1.08426,16.7729 -9.77485,25.7623 -20.6245,35.562l0.957878 0.805515c16.1375,-2.94568 26.7698,-4.67364 43.1435,0 6.22916,1.78938 21.2906,8.58902 28.6112,13.1564 0,0 16.278,6.97562 27.6722,6.97562 0,0 0.544491,0.263387 0.544491,-0.336616 0,0 -1.22481,-4.1575 -0.137008,-19.7965 0,0 1.22363,-7.23783 2.1756,-12.2091 0,0 1.22008,-3.35198 1.35709,-10.1953 0.0141733,-0.564569 -0.551577,-4.70317 2.3008,-4.30159 6.17837,0.868114 9.62957,-0.533861 14.38,-1.33938 0,0 5.02798,-1.47048 7.06893,-1.61339 0,0 4.76105,0.753547 6.23034,0.26693 1.62048,-0.535042 3.3886,-1.88505 5.5642,-3.89057 0,0 2.43426,-2.55474 0.806697,-8.32208 0,0 -1.62402,-5.23703 -0.681499,-6.84806 0,0 1.43623,-3.5575 3.52915,-5.64333 0,0 1.49528,-2.40474 -0.539766,-3.61183 0,0 -1.08071,-1.21536 0.740555,-1.68308 0,0 1.36418,0.131103 2.23466,-0.337797 0,0 0.472443,-0.197245 0.54331,-1.20355 0.0850398,-1.08426 0.551577,-6.31066 -2.97757,-10.878 0,0 1.02048,0.275198 1.76812,0.545672 0,0 4.33585,0.399214 6.58113,-0.676775 1.96536,-1.07245 4.81301,-2.41182 4.4138,-8.86067 -1.10552,-5.36105 -3.26694,-8.58902 -5.44254,-14.6245 -2.57009,-6.44176 -2.97403,-9.665 -8.39768,-14.0835 -3.25868,-1.48229 -4.75396,-3.89411 -2.31143,-6.31302 1.89686,-2.82521 1.21654,-7.91578 -2.16143,-11.4071 -3.26222,-3.22442 -5.70121,-8.18744 -6.93192,-10.7422 -1.62048,-2.67875 -3.38978,-5.63506 -5.01026,-7.38074 -1.6382,-2.01379 -4.07246,-3.21379 -8.40122,-8.32327 0,0 -2.59726,-2.27954 -2.99647,-4.68782 -3.66616,-5.63625 -13.8438,-13.5603 -25.5072,-14.3646 -3.40395,-0.406301 -3.40395,-0.406301 -5.84176,-0.673231 -4.06183,-1.4752 -16.8178,-1.88505 -25.5001,0.537404 -2.80513,0.592916 -8.40949,1.60749 -8.40949,1.60749 -2.97875,0.940162 -7.18468,1.75276 -11.7981,4.5638 -3.3886,1.74213 -8.40476,5.90318 -12.2044,8.58547 -4.08073,4.03348 -13.1623,9.9402 -18.182,13.2934 -9.76658,7.10672 -18.1796,16.5048 -23.0635,22.4162 0,0 -12.3379,15.2906 -18.4418,41.7321 -0.407482,4.0264 -1.48701,7.91696 -0.82087,12.3485 0,0 5.43782,-11.6741 10.4587,-15.3083 0,0 -0.692129,2.15552 -1.09134,5.63625 0,0 2.57009,-4.69254 3.6508,-5.5016 0,0 1.90158,-2.01261 4.62049,-5.22522 0,0 5.70475,-7.38665 7.32523,-8.19098 -2.09765,3.89411 -2.57481,6.44176 -2.77797,10.4634 0.879925,-0.798429 1.42442,-1.4126 1.69725,-1.87796 0,0 0.529136,-1.07599 1.08071,-0.809059 0.276379,0.699216 -0.137008,1.22599 -0.137008,1.22599z"/>
   <path id="path26" class="fil3" d="M301.89 143.234c1.41615,-2.95277 1.1504,-5.84058 -0.88465,-9.32839 -1.22363,-2.01261 -2.03032,-4.29333 -2.98584,-7.10791 -0.402758,-1.14449 -1.21654,-3.49135 -2.16025,-5.50042 -0.0625987,-0.812602 -1.77166,-4.5638 -2.85592,-6.04609 -2.72245,-3.89057 -4.95002,-4.22718 -6.44058,-5.83822 0,0.00826775 -0.539766,-0.0366143 -0.565751,-0.0141733 -1.57678,1.04292 -1.60276,3.33781 -2.94568,5.08349 -0.137008,0.190158 -0.588192,0.420474 -0.898823,0.281104 -0.425199,-0.214962 -0.598822,-0.585829 -1.09134,-1.27323 -0.44764,-0.655515 -0.801972,-0.186615 -1.29095,0.355513 -0.310631,0 -0.54331,0.244489 -0.787799,0.49016 -0.421655,0.434648 -0.0921264,0.66142 0.244489,1.15276 0.340159,0.504333 0,0.504333 0.21378,0.764177 -0.0625987,0.209056 -0.121654,0.289371 -0.187796,0.385041 -0.178347,0.26693 -0.614176,0.200788 -0.936618,0.141733 -0.898823,-0.141733 -0.695672,-0.0803153 -1.49764,-0.457089 -0.983863,-0.464175 -1.45749,-1.74213 -2.22048,-2.1378 -0.225592,-0.131103 -0.998036,-0.270474 -1.58623,0.114567 -0.43701,0.28819 -0.62953,0.921264 -0.259844,1.25906 0.64016,0.574018 1.13977,1.25079 1.82009,1.75985 0.924807,0.683861 1.93465,1.18938 2.05749,2.14843 0.162993,1.22245 -1.66182,1.66536 -2.52403,1.02166 -0.44764,-0.329529 -0.972052,-0.70394 -1.4504,-1.20473 -0.076772,-0.0696854 -0.151182,-0.47953 -0.255119,-0.552758 -0.385041,-0.289371 -0.836224,-0.636617 -1.05,-0.936618 -0.385041,-0.574018 -0.89528,-1.18229 -1.59095,-1.45276 -0.166536,-0.0590554 -0.300001,-0.289371 -0.421655,-0.494884 -0.317718,-0.552758 0.0259844,-1.19646 -0.203151,-1.70906 -0.192521,-0.416931 -0.284647,-1.09725 -0.879925,-0.833862 -0.555121,0.540947 -0.481892,0.540947 -1.10315,0.486616 -0.796067,-0.0696854 -0.162993,-1.5189 -0.162993,-1.3252 0.0141733,0.0803153 -0.033071,-0.0295277 0.232678,-0.504333 -0.54331,-0.172442 -1.36064,-0.60827 -0.73583,-1.40197 0.536223,-0.669688 1.06182,0.314175 1.26497,-0.0885831 0.0696854,-0.153544 0.53268,-0.995674 0.706302,-1.1126 0.610633,-0.350789 0.787799,0.124016 0.87402,0.2563 -0.263387,0.73583 0.513782,1.22245 1.26497,0.824413 0.0732287,-0.0401577 0.0472443,-0.604727 0.121654,-0.739373 0.692129,-1.19292 1.76457,-1.81891 2.85592,-2.64214 0.103937,-0.076772 0.402758,-0.158268 0.444096,-0.223229 0.329529,-0.648428 0.706302,-1.58505 0.0141733,-1.8815 -0.579924,-0.240946 -1.77166,-0.022441 -1.52363,-1.03583 0.111024,-0.474805 0.739373,-0.657877 1.09489,-0.816145 1.28741,-0.596459 2.62324,-1.18938 3.96262,-1.70906 0.321261,-0.12756 0.872839,-0.614176 1.27914,-0.643704 1.69017,-0.132284 1.29449,-0.0944886 3.36261,0.263387 0.366143,0.0578743 1.07245,0.442915 1.43268,0.563388 1.09489,0.385041 2.6634,0.259844 3.38505,-0.915358 0.716932,-1.14922 0.513782,-3.09568 -0.214962,-4.44569 -0.858665,-1.63702 -2.17914,-3.04962 -3.32246,-4.17285 -1.45394,-1.44568 -3.34372,-2.18505 -3.72521,-4.16931 -0.466538,-2.426 -2.3634,-5.63979 -3.44057,-7.56027 -1.1315,-1.98426 -2.13072,-3.30592 -3.56576,-5.14609 -0.336616,-0.424018 -2.43072,-2.53584 -2.78978,-2.88426 -2.39056,-2.30552 -3.42167,-3.07088 -5.96814,-3.97797 -1.30512,-0.460632 -6.39215,-0.165355 -9.04138,-0.498427 -0.832681,-0.108662 -3.3886,-0.167717 -4.08427,-1.51064 -0.623625,-1.21418 -1.41615,-2.95277 -2.7319,-3.78073 -0.477168,-0.291734 -1.20237,-0.600003 -1.70198,-0.85276 -2.38584,-1.18465 -4.85435,-3.17246 -7.42917,-3.0697 -0.950792,0.033071 -0.0401577,1.04646 0.203151,1.15985 1.1693,0.607089 1.69489,1.28859 2.33859,2.02442 0.666145,0.772444 2.113,0.800791 3.35907,1.30985 1.18347,0.483073 2.16379,1.23308 3.27049,1.80828 1.0441,0.540947 2.44135,2.33151 1.28741,3.06734 -1.04764,0.66142 -2.14962,-0.144095 -3.53269,0.199607 -0.27756,0.0744098 -0.695672,0.257481 -2.30198,0.257481 -2.1378,0.28819 -2.8819,-0.728743 -4.52719,-1.88505 -1.64646,-1.16339 -2.6823,-2.94686 -4.2697,-4.05592 -1.95001,-1.36064 -3.92128,-2.49096 -6.15239,-3.26812 -0.491341,-0.171261 -1.13859,0.099213 -1.5756,-0.131103 -0.765358,-0.425199 -1.35473,-1.33583 -2.32324,-1.4126 -1.65001,-0.113386 -1.65001,-0.249214 -3.29647,0 -0.229135,0.0472443 -0.836224,0.727562 -1.03583,0.724019 -0.972052,-0.0366143 -2.10119,-0.303545 -2.59253,0.226773 -0.751184,0.85276 0.173623,0.758271 1.13859,1.22245 0.54331,0.24567 1.6878,0.861027 2.34214,0.845673 2.74489,-0.0507876 4.50238,-0.0732287 6.652,1.07953 0.229135,0.132284 1.1941,1.0689 1.24607,1.41969 -2.03859,-0.0366143 -5.26065,-0.833862 -7.61696,-0.643704 3.96616,-0.317718 -4.04766,0.1063 -5.79333,0.0401577 -0.525593,-0.0177166 -0.525593,1.04292 0.291734,1.63229 0.214962,0.150001 1.42796,-0.0696854 1.58741,0.314175 0.711027,-0.372049 2.74489,-0.192521 3.33309,0.0307088 1.02166,0.357876 0.444096,0.204332 1.33583,0.669688 0.54331,0.284647 1.06536,0.673231 1.70198,0.600003 0.827956,-0.0944886 0.879925,-1.30631 1.71261,-0.918902 0.284647,0.135827 0.921264,0.519687 1.05827,0.512601 4.70553,-0.0885831 4.81301,1.3689 7.00633,1.33583 0.569294,0 1.41379,-0.226773 1.813,0.043701 0.879925,0.607089 1.70906,0.681499 3.06616,0.139371 0,0 3.12639,8.31854 2.30907,23.4851 -0.813783,6.44058 -1.21772,7.65594 -2.71537,12.8894 0,0 -2.16143,8.315 -1.35709,14.0835 0.824413,19.4623 -5.1579,35.5691 -11.6575,46.3077 -2.44607,2.94923 -3.80671,4.55671 -1.35827,6.69688 5.1579,4.70317 9.36736,5.77562 16.6784,7.39255 2.59253,0.801972 4.21301,1.0689 6.64727,1.0689 3.79608,0 9.78193,1.60631 12.4867,3.62718 2.57009,1.34646 9.49611,3.89411 13.6949,3.21616 3.65907,0.271655 4.75042,0.542128 6.5268,1.21182 1.213,0.526774 2.44489,0.526774 3.79844,0.131103 1.14331,-0.804334 0.607089,-0.471262 2.0941,-1.54489 0.270474,-0.66142 2.2382,-1.53662 1.83544,-4.226 -0.137008,-2.01025 -0.951973,-4.09608 -1.34646,-5.96932 -1.17284,-1.65828 -1.09961,-2.88781 -0.692129,-4.6264 1.22363,-2.42245 2.64804,-3.62718 3.39923,-4.83427 1.62048,-1.81536 0.681499,-3.08151 -1.56497,-3.69687 -1.08426,-0.464175 -3.1819,-0.26693 -5.35632,-0.464175 -1.15394,0 -2.10591,-0.472443 -3.72876,-0.139371 0,0 -1.09961,0.739373 -1.69489,1.28386l-0.825594 -0.474805c0,0 0.758271,-2.14843 2.3008,-3.42167 1.56142,0.26693 3.84805,0.446459 5.03152,0.139371 1.40197,-0.633074 3.01891,-0.892917 4.20238,-1.35119 2.04214,-0.193702 2.99293,-0.0649609 5.43073,0.0744098 0,0 1.21772,-5.23467 -3.05198,-9.19729 -1.01693,-0.930713 -1.84607,-2.14489 -3.31419,-2.20749 -5.18034,0.607089 -8.01382,-1.47402 -8.83823,-2.01615 -1.27678,-0.066142 -1.67599,0.474805 -2.36812,1.28386 -1.77166,2.94214 -3.86577,3.95317 -3.86577,3.95317l-1.08426 -0.135827c0,0 0.950792,-1.60631 3.11104,-4.29569 0.969689,-2.14843 2.31261,-4.82837 3.53269,-6.17483 0.740555,-1.27323 0.954335,-4.1575 2.77915,-4.96183 0.888193,0 1.03229,-0.205513 1.69017,0.200788 -1.33819,1.26969 -5.14609,5.83349 -1.20237,8.64807 1.62166,1.34764 4.0701,1.34764 4.66892,-0.066142 0.296458,-0.772444 0.950792,-1.26969 1.29095,-1.54489 2.03859,-0.402758 3.73702,0.604727 4.40671,1.14567 1.62757,1.8815 2.5819,2.74844 3.38505,3.14765 0.891736,0.677956 2.52639,0.535042 3.32954,0.535042 2.64922,-0.454726 4.0701,-1.94056 4.54726,-2.87718z"/>
   <path id="path30" class="fil3" d="M273.541 111.754c0.817327,0.409844 1.1504,0.282285 2.81576,0.516144 0,0 1.45749,0.231497 2.77442,-0.907091 0.214962,-0.183072 1.32048,-0.73583 1.28386,-1.17875 -0.141733,-2.04214 0.173623,1.32875 -0.233859,-1.74213 -0.0921264,-0.65079 -0.0590554,-1.24371 -0.325986,-1.93584 -0.121654,-0.359057 -0.695672,-0.985044 -1.53898,-0.695672 -0.154725,0.0590554 -1.49764,1.14213 -1.52363,1.19292 -0.740555,1.40552 -1.8945,1.57087 -2.40828,2.52166 -0.444096,0.827956 -0.709846,1.03583 -0.954335,1.55906 -0.0933075,0.242127 -0.214962,0.494884 0.111024,0.669688z"/>
   <path id="path34" class="fil4" d="M286.025 131.973c2.32796,-0.753547 3.45592,0.318899 6.02719,2.05277 0.44764,0.300001 0.817327,1.0878 0.17008,1.51536 -0.214962,0.142914 -0.699216,0.118111 -0.846854,-0.0212599 -2.25355,-2.13426 -2.9823,-2.15198 -5.44609,-2.58781 -0.121654,-0.01063 -0.506695,-0.764177 0.0956697,-0.959059z"/>
   <path id="path38" class="fil4" d="M272.184 155.576c-0.355513,1.05119 -0.707483,1.98426 -1.16221,2.98702 -0.462994,1.04174 -0.244489,2.33151 -0.962603,3.26812 -0.314175,0.416931 -1.18347,0.2563 -1.31694,-0.23504 -0.461813,-1.83308 -0.232678,-3.76537 0.65079,-5.44609 0.474805,-0.866933 1.64646,-1.29922 2.65395,-0.968508 -0.100394,0.211418 0.210237,0.321261 0.137008,0.540947 0,-0.054331 0,-0.0944886 0,-0.146457z"/>
   <path id="path42" class="fil4" d="M248.846 143.234c-0.768901,-0.251576 -1.18347,-0.962603 -1.07953,-1.74568 0.262206,0.0732287 0.043701,-0.296458 0.272836,-0.274017 1.61694,0.102756 3.12994,0.74646 4.75042,0.783074 1.84607,0.0366143 3.69569,-0.307088 5.38349,-1.09843 2.09292,-0.987406 3.90238,-2.04568 5.91499,-3.37088 0.898823,-0.589373 2.18977,-0.940162 3.30356,-1.17875 1.75749,-0.39449 1.64646,-1.37127 2.95277,-2.14017 1.91576,-1.10197 1.77166,-1.91812 2.84411,-1.49764 0.303545,0.121654 -0.310631,0.791342 -0.64016,1.09134 -0.720476,0.64016 -1.67245,1.2815 -2.32678,2.41891 -0.147638,0.226773 -1.15394,1.29095 -1.34646,1.44922 -2.19804,1.60631 -2.68938,3.00474 -4.32522,4.97719 -0.924807,1.12441 -1.22363,2.59135 -1.8378,3.89411 -0.366143,0.768901 -0.595278,1.56615 -1.07245,2.27363 -0.200788,0.291734 -0.936618,0.14882 -1.18819,0.398033 -1.35355,1.28505 -2.64922,2.51812 -3.65198,4.19057 -0.165355,0.270474 -0.73583,0.259844 -0.817327,0.113386 -0.869295,-1.65001 -2.07875,-2.89844 -4.14333,-2.95631 -0.366143,-0.0153544 -0.761814,-0.8315 -0.740555,-1.55552 0.0153544,-0.160631 -0.158268,-0.457089 -0.355513,-0.50079 -0.32008,-0.0519687 -0.465356,-0.348427 -0.801972,-0.367324 -0.350789,-0.0177166 -0.631893,-0.556302 -0.695672,-0.783074 -0.416931,-1.30276 -0.265749,-2.75198 -0.536223,-4.12088 0.0413388,0 0.0921264,0 0.137008,0z"/>
   <path id="path46" class="fil1" d="M218.773 180.486c-0.344883,-1.34292 -2.53111,-1.22245 -4.09962,-1.06418 -2.37875,0.251576 -4.55081,0.654334 -6.85869,1.85906 1.52009,-2.27718 3.39214,-2.41537 6.94373,-3.76655 0.805515,-0.307088 0.610633,-1.71261 0.0956697,-2.53584 -0.598822,-0.943705 -1.37599,-0.99213 -1.67954,-1.05 -2.92915,-0.563388 -3.86931,0.1063 -5.42247,0.50079 -5.37286,1.3689 -10.6548,5.38349 -13.6005,9.22681 -0.857484,1.12441 -0.572837,2.30552 -0.395671,2.55119 0.548034,0.727562 1.39843,2.75552 1.63229,2.50985 2.17914,-2.33151 4.8201,-4.47876 7.67602,-3.80553 -1.21654,0.387403 -5.49806,2.53584 -6.85515,5.64333 -0.0850398,0.197245 0.550396,1.32757 1.35709,1.93229 1.09134,1.81064 1.49528,2.54647 2.10828,2.88426 0.381498,-0.0377954 1.18111,-0.824413 1.39843,-1.15749 2.99411,-3.94136 5.98703,-6.35672 14.2595,-7.42917 2.37403,-0.398033 3.72876,-1.07599 3.93899,-3.22442 0,0 0.466538,-1.0689 -0.477168,-3.22088m-0.0212599 0.146457l0 0 0 0z"/>
   <path id="path50" class="fil1" d="M208.892 192.958c0.140552,2.01615 -0.154725,2.92442 0.414569,4.23781 0.558664,1.24134 1.71261,2.31615 2.14489,3.6012 0.340159,0.976776 1.50591,2.22521 1.50591,2.90198 0.558664,0.527955 0.6189,1.00748 0.6189,1.00748 0.716932,0.940162 2.86655,2.06812 2.10828,2.61261 -0.888193,0.680318 -3.52915,0.200788 -5.1201,-0.0578743 -2.04922,-0.337797 -0.865752,1.50355 -0.425199,1.69017 2.07875,0.849216 6.44412,1.13859 7.87208,1.91812 0.865752,0.472443 1.99843,1.18583 2.36458,2.02678 0.274017,0.62953 0.758271,1.17875 1.18347,1.72087 1.37245,1.82954 1.86497,2.6197 3.2882,3.77718 0.707483,0.574018 1.52481,1.55434 1.27678,2.43663 -0.295277,1.03229 -0.957878,1.25197 -1.95355,1.11733 -0.314175,-0.0484254 -1.30512,-0.34134 -2.2571,-0.747641 -1.89332,-0.589373 -2.3008,-1.28032 -3.66143,-0.589373 -0.733468,0.37323 0.340159,1.60749 1.17284,2.05395 3.40277,1.78938 7.51657,1.82954 10.8237,3.72876 2.82639,1.6252 4.55081,3.60474 4.39963,7.78822 0,0.076772 1.02048,0.62953 1.07953,0.537404 0.969689,-1.50355 3.41813,0.3626 4.60986,0 0.111024,-0.0366143 0.140552,-0.669688 -0.022441,-0.929532 -0.562207,-0.85276 -1.78347,-0.878744 -2.29725,-1.70198 -0.548034,-0.866933 0.239765,-1.80001 -0.0295277,-2.56182 -0.284647,-0.764177 -1.60158,0.568113 -2.0941,0.0625987 -2.17206,-2.23229 -3.58821,-4.88152 -6.51499,-6.17011 1.22481,-3.34844 1.75749,-7.10672 1.48347,-8.85713 -0.805515,-0.666145 -1.14331,0.406301 -1.34646,0.538585 -0.669688,0.633074 -0.406301,2.01261 -1.18701,3.06734 -0.137008,0.174804 -1.18701,-0.033071 -1.47993,-0.289371 -1.99725,-1.6878 -3.86222,-3.68624 -4.79412,-6.07916 -0.0295277,-0.087402 -0.429923,-0.577562 -0.518506,-0.695672 -1.46457,-2.03505 -1.37599,-4.87443 0.325986,-6.91657 0.177166,-0.223229 0.45827,-1.4752 0.284647,-1.61812 -0.307088,-0.237403 -0.987406,0.24567 -1.26497,0.519687 -0.929532,0.941343 -1.72796,2.81812 -3.29647,2.65041 -1.77639,-0.186615 -2.44962,-1.95828 -3.53387,-3.11931 -0.340159,-1.13741 -0.983863,-1.86615 -0.817327,-2.01615 -1.49056,-2.14489 -1.62048,-3.89057 -3.00356,-6.56932 -0.307088,-0.603546 -0.73583,-0.892917 -1.33938,-1.07599z"/>
   <path id="path54" class="fil3" d="M219.201 229.196c1.77166,0.892917 -0.26693,-1.14567 -0.26693,-1.14567 -0.680318,-0.4689 -2.27481,-2.90552 -2.58544,-3.48072 -0.762996,-1.30631 -1.30985,-2.31615 -1.76457,-3.35553 -0.666145,-1.61812 -1.99017,-2.76025 -4.18112,-4.84963 -1.09489,-1.04646 -2.78978,-2.90198 -3.47718,-4.25553 -1.07363,-2.10119 -1.68308,-5.87011 -4.25907,-7.63468 -1.98662,-1.3689 -1.50946,-2.92442 -3.22206,-5.57483 -0.657877,-1.00276 -2.0008,-1.12678 -2.98938,-2.12245 -2.48151,-2.47442 -0.909453,-3.42876 -3.07324,-5.70239 -0.966146,-0.99213 -1.37599,-1.19292 -2.20158,-2.71537 -1.08071,-1.95001 -0.265749,-4.50829 -2.09765,-5.40593 -1.62402,-0.804334 -2.88545,-1.09016 -3.9886,-1.45276 -1.71261,-0.556302 -4.43152,-1.93938 -5.9705,-3.12521 -1.61694,-1.24725 -4.93112,-3.98151 -8.47563,-7.02287 2.16379,16.506 -0.829138,30.6001 -17.3694,45.364 30.658,-5.63979 44.0837,1.47402 65.9223,12.4796z"/>
   <path id="path58" class="fil3" d="M230.794 208.129c0.0921264,1.35119 0.558664,1.10552 1.31694,2.96104 0.377954,0.930713 1.44331,2.55828 1.99843,3.02009 3.14057,2.60552 5.30435,6.6272 5.08703,10.7741 0.151182,2.02324 0.258663,1.89922 2.263,3.30474 0.340159,0.249214 0.544491,0.270474 1.61339,1.26615 0.411025,0.340159 3.33663,3.42876 3.74057,3.76183 -0.0708665,-1.21418 0.121654,-3.25631 0.0956697,-3.89766 -0.181891,-6.33074 1.05473,-12.8717 -1.12087,-18.4087 -1.62402,-4.14214 -5.28664,-8.80516 -6.72523,-13.1422l-0.721657 -2.36812c-0.751184,-3.36261 -0.825594,-6.87287 -0.825594,-6.87287l-4.53545 -2.14489c-3.57285,-1.4126 -7.59452,-2.71182 -11.191,-4.02521 0,1.8815 0.263387,3.21379 -1.15394,5.09412 0.954335,2.28781 1.75394,7.32405 2.84175,8.53114 2.37166,2.20749 4.27207,3.95317 5.83703,9.25634 0.35197,1.2626 1.42087,1.94647 1.47993,2.89017z"/>
   <path id="path62" class="fil1" d="M175.659 65.1948c0,0 -2.70828,-0.264568 -9.0898,4.5638 -7.04767,4.29215 -16.4079,10.467 -23.2005,18.6532 -4.94175,4.89333 -11.9339,12.3449 -14.5087,17.582 0,0 -4.21065,6.57641 -6.92247,17.3115 0,0 0.957878,3.49135 3.66616,-1.07245 4.73506,-7.97838 22.7847,-34.8344 48.5601,-54.4184l1.2319 -0.0696854c-12.763,10.8626 -29.3033,25.5025 -45.3852,50.4002 -0.598822,0.921264 -1.37245,2.56537 -1.44686,2.68938 -0.720476,1.33111 1.12205,1.53662 0.181891,1.30985 1.4693,0.355513 2.00906,-1.66182 2.95159,-2.05985 0.581105,-0.252757 0.829138,1.47048 1.75394,1.02756 3.28466,-1.57324 5.71538,-4.92994 7.06302,-6.94255 0.0732287,0.575199 0.827956,2.28426 0.827956,2.28426 1.48347,0.406301 6.10515,-5.89963 8.54295,-10.1965 0.683861,0.797248 -0.162993,2.76615 0.732287,1.92521 2.78978,-2.60198 5.27837,-5.39176 6.75948,-7.93822 1.7315,-2.97993 3.63663,-4.31931 4.31341,-9.54926 1.08426,0.670869 1.06182,0.955516 1.35709,1.20119 0.681499,-0.805515 0.7252,-1.65119 1.80946,-2.85119 1.1693,-1.31103 1.40197,-2.33151 2.83348,-3.25749 0.514963,-0.336616 1.63583,-2.43308 1.86497,-3.52797 0.214962,-1.03937 2.54529,-4.41026 2.71537,-5.52995 1.8945,-3.49135 5.1579,-5.36932 7.45869,-8.05161 2.16969,-1.86969 0.538585,-5.22994 -4.0701,-3.48309z"/>
   <path id="path66" class="fil1" d="M151.785 170.006c0.950792,1.07599 1.75749,-0.337797 1.75749,-0.337797 1.56733,-2.34568 1.90513,-2.95277 2.99175,-6.10396 0.681499,-2.08229 1.49056,-2.82167 2.16851,-11.5359 1.90158,2.8134 2.17088,8.17917 2.17088,8.17917l0.544491 -0.131103c0,0 1.76812,-4.96656 4.74569,-6.57759 0,0 0.270474,-3.35198 3.25277,-6.70397 -0.399214,-2.01733 -0.681499,-3.63072 -1.07717,-6.85161 -1.22363,-5.36577 -1.90513,-14.354 -0.683861,-20.5277 2.43781,12.8753 3.86577,14.7638 3.86577,14.7638l0.544491 0.193702c1.02048,-1.53662 1.29449,-4.2201 1.5756,-6.63901 1.20237,-5.09766 3.37797,-4.56026 3.37797,-5.63979 -0.681499,-4.1575 -1.76103,-10.7351 -1.0878,-16.3737 1.36182,6.17365 2.03859,5.77444 2.97757,8.06224 1.22127,2.81104 1.35827,-0.681499 1.35827,-0.681499 -0.263387,-3.61891 2.31143,-7.2461 -0.137008,-15.704 -0.943705,-5.76735 -3.65907,-18.1158 -2.57127,-20.9375 0.681499,-3.48427 -0.544491,-2.28072 -0.544491,-2.28072 0,0 -3.53269,0.805515 -8.81579,15.5729 -7.72799,24.5576 -14.3764,50.725 -21.5718,71.9342 2.16497,-11.1402 13.6961,-50.4616 17.0954,-64.6798 0,0 -0.477168,-1.01339 -1.21654,0.124016 -0.891736,1.01103 -1.7693,2.28072 -2.24647,3.15238 0.0673231,-0.0519687 -0.406301,0.0732287 -0.942524,0.347246l-1.70906 2.54292c0,0 -3.37797,4.69254 -12.6745,14.2264 -1.56851,2.42363 -2.23938,3.52797 -3.93309,7.38192 -0.614176,1.40906 0.336616,1.61339 1.35473,0.809059 2.50395,-2.41537 2.64096,-2.41537 6.10396,-5.03624 0.152363,-0.113386 2.94096,-1.10906 2.94096,-1.1563 -0.439372,0.556302 -1.02874,0.918902 -1.24253,1.13386 -0.961422,0.896461 -3.31064,3.51025 -3.94726,4.61931 -1.58387,2.69647 -3.30001,6.04963 -5.56774,10.1115 -2.84529,5.09057 -5.00553,10.9949 -5.00553,10.9949 -1.4941,4.16104 -1.0878,4.5638 -1.0878,4.5638 2.03151,0.804334 0.924807,1.82245 0.924807,1.82245 -0.924807,1.66891 -1.33111,3.00474 0.233859,2.40474 1.0252,-0.205513 1.56497,-0.718113 1.98308,-1.2378 0.801972,-0.976776 1.4752,-1.65001 2.03032,-2.32678 0.910634,-1.12441 0.732287,-1.46457 1.71733,-2.57009 1.26142,-1.44804 2.06458,-2.65631 3.35907,-3.25277 -2.24647,3.01182 -2.37521,5.16026 -2.37521,5.16026l0.548034 0.666145 0.392128 0.270474c0,0 -2.3008,2.81812 -3.37797,9.20792 -0.525593,3.03427 -0.416931,3.41104 -0.891736,5.0953 0.229135,-0.216143 1.56851,0 2.76025,-1.20119 -0.518506,1.86733 -0.622444,2.80749 -0.622444,2.80749 -0.229135,1.54016 -0.229135,1.27323 -0.229135,3.02245 0,1.61457 0,0.930713 0.540947,2.81104 2.43781,-1.07245 2.97757,-0.936618 5.27837,-3.61537 1.09134,-1.00985 1.92402,-3.46301 2.2571,-3.29411 0.603546,0.275198 0.0921264,1.63938 -0.181891,2.24056 -0.369687,0.844492 -0.702759,1.47402 -0.836224,2.08229 -0.0744098,0.310631 -0.385041,0.764177 0.111024,1.18583 0.214962,0.190158 0.0625987,0.160631 0.758271,0.142914 0.414569,-0.0118111 0.79961,-0.637798 0.79961,-0.637798 0,0 0.218505,-0.0507876 0.432285,-0.514963 0.154725,-0.395671 0.466538,-0.615357 0.73583,-0.805515 0.00354332,-0.00472443 0.411025,-0.407482 0.888193,-0.278741z"/>
   <polygon id="path70" class="fil4" points="88.9693,87.3382 86.1252,87.3382 95.4843,66.2649 83.9531,75.187 81.3039,61.8357 75.2744,80.026 72.3511,77.8149 67.9491,87.6016 64.6869,87.6016 64.6869,98.2044 84.6299,98.2044 "/>
   <polygon id="path74" class="fil4" points="72.0204,97.6729 82.5972,104.649 83.6815,101.559 77.4393,97.5406 "/>
   <path id="path78" class="fil4" d="M74.9968 96.1977l5.69294 5.77089c0,0 -4.47167,18.6509 -3.65907,28.858 8.27956,7.91578 14.3835,15.5658 13.4327,32.7403 0,0 0.540947,0.399214 -2.98112,-0.669688 1.76457,1.8815 2.3008,3.35671 3.79608,6.57405 0.676775,5.23349 1.09489,9.93193 0.676775,14.7638 0,0 0.418112,11.9422 0.817327,15.6969 1.63111,0.537404 0.680318,4.83427 0.817327,10.4741 0,0 -0.137008,3.48781 -0.692129,6.17365 -3.38151,-2.68584 -3.11458,-2.54647 -4.06183,-2.27954 0.81024,2.67167 1.35355,2.67167 2.98938,4.82246 0,15.9757 0.54331,32.4816 1.62402,39.7313 0.539766,5.23467 1.49056,11.2654 1.89804,13.1505 0.813783,2.41182 0.813783,4.55317 3.25513,9.65792 -0.81024,0 -3.08505,0.066142 -4.61341,-1.87324 2.17206,4.01813 2.17206,3.2197 3.52915,4.55908l1.8945 13.9595 -2.16379 2.4071 2.98938 1.87796c0,0 -0.681499,6.31302 0.132284,12.0768 0.400396,2.68702 1.22127,5.37286 3.12639,9.1276 -3.94018,0.142914 -4.61695,-3.07797 -4.61695,-3.07797 -1.08426,-1.21536 -2.98584,-3.90474 -3.52915,-3.90474 -0.270474,3.90474 1.90158,5.37995 2.84883,7.66066 2.76379,6.55515 3.12994,12.8859 0.680318,25.0879 -2.71537,-2.54411 -2.84765,-4.83427 -4.88624,-6.03546 -0.26693,6.96854 -0.540947,9.12051 -1.8945,12.1985 -2.84883,5.50396 -3.66616,8.34098 -3.79844,13.7056 -4.75042,-3.90474 -5.97168,-9.26579 -9.22681,-12.352 -2.30907,-2.27954 -6.9142,-6.57995 -8.5465,-9.39453 -0.274017,3.3449 0,4.56734 -1.35709,7.77641 -1.0878,-3.72521 -1.21772,-4.82719 -3.79962,-7.9087 -3.3886,-4.70317 -10.9902,-15.1666 -12.7477,-26.3068 -0.414569,-1.8815 -1.49528,-7.38192 -2.71182,-14.8997 -0.954335,2.55828 -2.57481,4.56852 -4.20592,4.97128 -0.817327,0.409844 -0.817327,-0.666145 -0.817327,-0.666145 0.676775,-2.42363 0.950792,-5.10239 0.676775,-7.11499 -0.399214,-2.96104 -1.21772,-9.53036 -2.71182,-11.1414l-0.686224 0.00236222c0.137008,4.42443 -1.62757,6.44176 -2.71182,7.91578 -0.132284,-3.49135 0,-6.17011 -0.813783,-7.91578 -0.406301,-1.2189 -1.35355,-2.28072 -1.62757,-1.07599 -0.676775,3.49135 -0.947248,4.16104 -0.947248,7.38192 -0.270474,4.83427 -0.270474,6.45239 -0.82087,10.4705 -0.26693,2.95395 -1.21772,6.57286 -3.92482,10.1918 -0.544491,-3.20907 -2.57954,-5.76381 -2.57954,-5.76381 0,3.89057 0.817327,9.6591 -1.62402,12.7512 -2.99293,4.02167 -3.39923,6.03428 -4.34648,8.99177 -0.411025,-3.4949 -1.49056,-2.41891 -2.03151,-4.30041 -2.17442,9.11697 -8.96343,16.0997 -11.4012,17.706 1.62757,-3.74411 2.98938,-8.04807 3.25986,-10.7304 0,0 -0.407482,-9.92839 -1.90631,-15.5623 -3.70986,-17.5702 -5.50869,-58.1471 -2.70356,-73.5547 6.77365,-55.2888 35.8112,-106.022 60.2282,-151.65l6.78074 -1.05591z"/>
   <path id="path82" class="fil1" d="M77.8492 101.696c0,0 -4.20947,17.8501 -3.39214,30.3332 5.70121,4.83073 11.8052,11.4083 12.0745,24.9603 -0.472443,0.205513 -0.539766,0.0696854 -0.954335,-0.270474 -1.62048,-2.06812 -5.96341,-2.75316 -9.21855,-7.97956 0.477168,3.29057 10.0477,16.4446 10.7209,18.9875 0.128741,8.19098 1.35001,20.067 0.669688,22.4127 -2.30907,-1.13859 -3.51498,-3.75474 -3.25631,-2.14843 1.76812,4.49411 3.25631,8.45791 5.36105,11.7438 0,0 0.206694,11.6056 -0.207875,9.99571l-0.542128 0c-1.89804,-1.34646 -3.79608,-2.95277 -5.21695,-4.29333 -0.888193,-0.467719 -1.02048,-1.60631 -2.65277,-3.16183 -2.43426,-2.20985 -3.79608,-4.08781 -4.81301,-4.49411 -2.5819,-1.80355 -4.34293,-2.41182 -5.83467,-2.876 -0.470081,0 -1.42323,-0.135827 -1.42323,-0.135827 0,0 4.88624,4.09254 8.00555,8.7213 3.7323,4.42797 5.29018,7.04176 6.56932,9.71697 1.43268,2.69647 3.46655,5.3764 5.0953,7.65594 0,3.69687 -0.274017,15.9674 -0.0708665,18.0509l-1.02048 -0.739373c-2.43426,-1.4752 -5.08349,-4.77286 -7.32523,-9.06146 -1.21772,6.18074 5.42719,13.4197 8.47917,15.8398 1.01693,11.4768 1.01693,16.8355 2.92206,28.9123l-0.137008 0.941343c-2.71891,-1.87442 -5.5642,-4.83427 -8.95634,-9.65556 -0.269293,4.69254 4.4764,10.8662 9.50083,16.7705 0.659058,0.790161 0.480711,1.82245 0.839768,2.71537 0.595278,1.48583 1.19056,3.326 1.93465,4.32994 0.614176,2.61261 0.883469,6.10751 0.74646,7.58271l-2.03387 3.89411 2.71182 3.22442c0.265749,3.48781 -0.403939,4.42207 0,8.315 0,0 -3.11576,-0.263387 -4.47994,-3.76183 -2.43781,6.71932 0.27756,14.2359 2.44489,18.1265 1.62757,4.56026 2.57481,7.37484 2.3008,12.3414l-0.539766 1.47048c-1.62402,-3.21616 -3.92955,-5.89609 -6.24097,-7.64177l-0.942524 -0.259844c2.2819,14.1201 1.4941,18.782 -2.84175,27.7856l-0.687405 -0.673231c-2.43781,-4.70671 -7.04767,-8.33035 -10.2993,-11.6752 -0.548034,-0.131103 -6.24097,-7.24964 -6.65554,-13.0217l-0.673231 0.139371c-0.274017,2.01261 -1.09134,6.3142 -0.544491,7.11145l-0.54331 -0.26693c-3.25277,-1.48229 -9.15713,-12.8788 -10.1705,-19.4517 0,0 -0.21378,-1.28505 -0.680318,-3.9012 -0.207875,-2.54765 -1.55788,-10.3323 -1.83544,-11.4083 -0.473624,-2.88426 -1.71261,-6.52798 -2.23111,-8.45083 0.0708665,-0.673231 -0.402758,-0.87402 -0.74646,-0.331891 -0.747641,1.05709 -1.35119,2.07521 -1.76457,1.40552 -0.340159,-0.667326 -0.0637798,-1.74331 0.206694,-3.21734 -0.544491,0.398033 -1.76103,0.566932 -1.90158,-0.402758 -1.4941,-6.57641 -2.30434,-14.7638 -2.30434,-21.4761 0.680318,-1.73859 2.57481,-4.95593 4.07246,-8.45791l-0.132284 -0.797248c-1.63229,0.797248 -4.34766,3.48781 -4.88742,4.95475l-0.681499 -0.933075c-0.539766,-2.69293 -1.07953,-7.92287 -1.07953,-13.4197 -0.274017,-1.00985 0.128741,-1.60631 0.54331,-2.41891 1.08071,-2.54411 2.30907,-5.3953 3.25159,-8.18744 0.817327,-2.82521 5.36105,-11.5323 6.72168,-13.5568l-0.894099 0.805515c-2.49804,0.878744 -8.94571,8.59374 -9.75949,9.13114l-0.610633 0.0625987c0.336616,-7.71854 2.50867,-24.8907 3.99923,-35.4344 1.49528,-3.95553 13.1634,-16.03 10.4445,-13.8851 -5.28309,1.88032 -7.04767,3.75828 -8.13901,4.29687l-1.6252 0.537404c1.62048,-7.49177 4.99136,-34.571 8.55004,-41.8726 2.57127,-4.42797 5.15317,-5.63506 7.05121,-10.4658l-1.36182 0.666145c-0.947248,0.947248 -5.15672,4.0323 -7.72799,7.52366l-0.825594 0.132284c1.22127,-3.48781 1.63229,-7.24255 4.07364,-12.078 0.673231,-2.02206 1.76457,-2.82403 2.58308,-4.56498 2.02678,-2.55474 2.84411,-3.49608 4.74569,-4.4327 0.943705,-0.395671 2.71182,-1.0689 2.71182,-1.0689 -5.41538,21.9781 -7.32405,39.8447 -8.95634,64.2782 -1.62757,38.9222 1.67245,86.0165 14.9316,115.149 -10.5886,-34.0832 -14.6575,-71.1251 -13.2993,-108.704 1.08308,-32.2088 5.95987,-57.9782 16.5509,-101.457l2.30434 1.47048z"/>
   <path id="path86" class="fil1" d="M70.655 98.3414c-3.3886,4.56734 -26.7249,48.051 -29.0293,55.9703 -20.6091,40.9277 -32.8289,81.7244 -32.0151,121.862 0,17.5737 1.90513,29.6553 4.06892,42.534 0.954335,4.96183 2.30434,11.6741 2.03505,15.9639l0.683861 -0.399214c0.947248,-1.74568 3.52206,-7.24255 4.34293,-11.8028 0.274017,-1.74568 1.22127,0 1.22127,0 0.395671,1.20001 1.21772,1.74213 1.35473,2.94686 0,1.07953 0.531498,0.947248 0.81024,0.131103 1.49056,-2.94568 1.90158,-4.69963 1.35355,-7.78114 -0.539766,-2.54647 -0.943705,-13.1493 0.274017,-17.0434 0,-1.07953 0.947248,0 0.947248,0 0.683861,1.61457 1.76812,4.56734 4.20238,6.98271 0,0 1.02166,0.666145 1.0878,0 -0.259844,-2.81812 -0.536223,-21.2044 3.80317,-23.2241 1.62402,0.398033 1.76457,1.48111 2.98112,2.68584 1.36536,-1.47875 1.90513,-7.78468 1.49883,-12.6154 0.132284,-7.51303 -0.954335,-15.0343 -1.63229,-19.7233 -0.569294,-1.48229 0,-1.75276 0.814964,-2.02324 0.199607,-0.142914 3.25513,-3.89057 3.25513,-5.89609 -2.56655,1.74213 -3.25513,2.14489 -5.69766,3.76301 -0.269293,-5.77916 -2.84765,-14.8997 -5.69294,-22.0253 2.98584,2.69647 4.87561,5.77562 5.82995,8.33035 1.08426,-5.90436 1.49056,-9.4028 1.62757,-12.2209 -1.48701,-5.23349 -4.33585,-16.6335 -4.06892,-25.095 1.76457,6.17719 3.3886,12.8859 5.15672,16.9158 0.814964,-2.96104 1.49174,-8.19453 2.57481,-12.6237 1.4882,-1.07245 3.25631,-2.14843 3.79608,-3.07679 -0.54331,-0.948429 -2.85592,0.804334 -3.25513,0.929532 0.269293,-4.1575 0.947248,-12.2091 -1.89804,-25.3631l0.399214 -0.402758c1.22127,0.542128 2.71182,2.95395 3.25631,5.50869 2.44489,-2.81812 4.07246,-16.7729 4.75042,-22.2733 -2.57954,0 -3.79608,2.8134 -5.5642,2.53938 0.269293,-1.74568 0.406301,-0.933075 1.08308,-2.53938 0.681499,-1.88505 2.31261,-3.7701 2.99056,-6.3142 1.49056,-2.14843 1.49056,-4.69845 1.62757,-7.11027 0,-2.28426 -0.270474,-5.63625 1.62402,-8.5902 0.413388,1.19646 0.140552,2.01261 1.07953,4.56026 0,0 3.80789,-8.18744 5.84176,-10.0607 2.70474,-11.6788 9.21973,-24.8316 15.3308,-33.4253m-2.85001 0.00590554l0 0 0 0z"/>
   <path id="path90" class="fil1" d="M71.881 105.721c-4.47994,6.31656 -7.73507,16.2426 -9.36618,23.3564 2.03387,-1.07599 2.17088,-0.947248 4.07246,-1.60985 0.681499,-3.35907 6.03074,-22.7788 5.29372,-21.7466z"/>
   <path id="path94" class="fil0" d="M27.0072 258.984c0.0814964,0.388584 0.711027,0.146457 0.376773,0.535042 0.814964,0 1.66182,0.157087 2.41655,-0.0732287 0.380317,-0.109843 0.64016,-0.699216 0.706302,-1.02166 0.222048,-1.12323 0.780712,-2.55474 -0.240946,-3.34135 -0.894099,-0.721657 -0.739373,-1.85552 -1.37245,-2.40828 -0.291734,-0.251576 -0.912996,-0.424018 -1.33583,-0.840949 -0.312994,-0.318899 -0.882287,0.390947 -0.878744,0.709846 0.0141733,0.878744 0.603546,1.77166 0.588192,2.71537 -0.0188977,1.44213 -0.695672,1.84489 -0.259844,3.72521z"/>
   <path id="path98" class="fil0" d="M17.2123 246.65c-0.0921264,-1.55552 -0.609452,-3.74765 1.7315,-3.13348 0.737011,0.186615 0.902366,1.26615 0.921264,1.78938 0.0366143,1.40552 0.3626,2.52993 0.966146,3.76301 0.343702,0.699216 -0.237403,1.30276 -0.591735,1.80001 -0.907091,1.32993 -2.7756,2.07993 -3.84096,0.768901 -0.65079,-0.793704 -1.44213,-1.98662 -0.853941,-3.07324 0.461813,-0.85276 0.832681,-1.31812 1.53072,-2.06103m0.137008 0.146457l0 0 0 0z"/>
   <path id="path102" class="fil0" d="M19.5627 262.628c-1.2319,-1.75394 -0.655515,-3.38505 0.784255,-4.42443 0.909453,-0.651971 2.01143,-0.212599 2.27481,0.556302 0.503152,1.61457 1.13977,2.96104 1.64292,4.56734 0.513782,1.63583 -1.58032,3.22088 -3.05198,2.50749 -1.05119,-0.531498 -0.976776,-2.24765 -1.65001,-3.20671z"/>
   <path id="path106" class="fil0" d="M20.8229 268.989c-0.588192,-0.183072 -0.643704,0.318899 -0.935437,0.578743 -0.610633,0.514963 -0.614176,1.60631 -1.14686,2.3197 -0.995674,1.3252 -0.695672,3.1949 -0.303545,4.45868 0.262206,0.866933 1.57205,2.12954 2.68584,2.03387 1.75985,-0.145276 3.06261,-3.38505 1.71969,-4.15277 -1.74568,-1.0252 -1.1315,-3.60592 -1.7752,-5.00317 -0.0484254,-0.102756 -0.466538,-0.0366143 -0.740555,-0.0366143m0.496065 -0.198426l0 0 0 0z"/>
   <path id="path110" class="fil0" d="M32.0198 265.678c-0.452364,-0.591735 -0.470081,-1.39371 0.0472443,-1.77402 0.473624,-0.344883 1.29922,-0.179528 1.77639,0.230316 0.144095,0.120473 0.636617,0.438191 0.780712,0.551577 1.45749,1.14567 2.34922,2.67993 1.56024,4.43624 -0.21378,0.494884 -1.07953,0.959059 -1.68662,0.512601 -0.470081,-0.348427 -1.12441,-0.369687 -1.4504,-0.966146 -0.520868,-0.970871 -0.310631,-2.06812 -1.02756,-2.99056z"/>
   <path id="path114" class="fil0" d="M15.9827 254.83c-0.262206,-0.856303 -0.994493,-0.434648 -1.40197,0.187796 -0.957878,1.47048 -1.43859,2.89844 -1.5756,5.04569 0.270474,1.20119 2.01969,1.4315 2.87482,0.896461 1.94174,-1.20355 0.551577,-5.82522 0.45827,-5.18861 0.0590554,-0.413388 -0.355513,-1.03229 -0.355513,-0.941343z"/>
   <path id="path118" class="fil0" d="M53.7144 268.113c-0.395671,-0.296458 -1.05,0 -1.0878,0.483073 -0.147638,1.37599 -0.17008,3.98978 1.94647,3.56458 0.751184,-0.142914 1.25079,-0.911815 1.07245,-1.69017 -0.255119,-1.11378 -1.0878,-1.73859 -1.93111,-2.35749z"/>
   <path id="path122" class="fil0" d="M58.7849 273.007c-0.513782,-0.505514 -1.42442,-0.424018 -1.80591,-0.139371 -0.772444,0.592916 -1.06182,1.84843 -0.787799,2.79686 0.303545,1.03229 0.659058,2.13308 1.43268,2.93151 0.494884,0.51142 1.52717,1.10434 1.80119,0.734649 0.631893,-0.88465 1.22363,-2.07166 0.943705,-3.35198 -0.259844,-1.13859 -0.784255,-2.15198 -1.58387,-2.97167z"/>
   <path id="path126" class="fil0" d="M78.1893 271.398c-0.376773,0.033071 -0.858665,0.0838586 -1.00985,0.314175 -0.758271,1.17875 0.0696854,2.54765 1.07599,3.03781 1.05473,0.533861 2.38584,-1.22599 1.60158,-2.19568 -0.494884,-0.633074 -1.28268,-1.17875 -2.20749,-1.1563m0.539766 0l0 0 0 0z"/>
   <path id="path130" class="fil0" d="M68.8787 283.745c-0.392128,-0.197245 -1.0063,-1.44213 -0.706302,-2.27245 0.27756,-0.742917 1.13504,-1.04292 1.86379,-0.918902 0.840949,0.157087 1.38071,0.742917 1.85434,1.35827 1.24253,1.5815 1.5945,4.0512 -0.0188977,5.37286 -0.654334,0.549215 -1.83544,0.416931 -2.29725,-0.355513 -0.591735,-0.966146 -0.155906,-1.74568 -0.607089,-2.78151 0.0885831,0.00354332 -0.192521,-0.402758 -0.0885831,-0.402758z"/>
   <path id="path134" class="fil0" d="M80.1464 284.613c-1.10552,-0.856303 -0.647247,-2.576 -1.86851,-3.3449 -0.680318,-0.442915 -1.58623,-0.549215 -2.21576,-0.0259844 -0.664964,0.570475 -0.66142,1.39134 -0.8315,2.24765 -0.0933075,0.474805 0.218505,0.896461 0.428742,1.30985 0.891736,1.80355 3.05553,1.86261 4.74687,2.87954 0.225592,0.135827 0.664964,-0.324805 0.832681,-0.614176 0.520868,-0.900004 -0.322442,-1.85552 -1.09252,-2.45198z"/>
   <path id="path138" class="fil0" d="M62.1948 282.921c-0.574018,-0.680318 -1.55788,-0.457089 -2.14607,-0.0614176 -0.203151,0.132284 -0.402758,0.486616 -0.402758,0.753547 -0.0118111,1.74568 -0.600003,3.55041 0.043701,5.20396 0.388584,0.995674 1.28386,2.20395 2.44607,1.69489 0.829138,-0.366143 1.34646,-1.36182 1.0689,-2.31615 -0.518506,-1.7752 0.248033,-3.77364 -1.00985,-5.27483z"/>
   <path id="path142" class="fil0" d="M92.8929 283.454c-0.35197,-1.22245 -2.57481,0.0177166 -3.37442,-0.765358 -0.699216,-0.687405 -1.54253,-1.30276 -1.66772,-2.38584 -0.566932,1.27323 -0.114567,2.59489 0.484254,3.72285 0.340159,0.643704 1.12796,0.987406 1.63583,1.55906 0.579924,0.617719 0.783074,1.47048 1.10906,2.24647 0.414569,1.01339 -0.591735,1.59922 -1.22481,1.72087 -1.98308,0.361419 -2.04214,-2.4567 -2.66694,-3.81734 -0.439372,-0.977957 -1.70552,-1.36182 -2.37521,-2.263 -0.161812,-0.204332 -0.454726,-0.427561 -0.605908,-0.683861 -0.563388,-0.99213 -1.70198,-1.69489 -2.19804,-2.74135 -0.0885831,0.457089 0.0673231,0.911815 0.203151,1.31812 0.947248,2.96458 2.46852,5.58073 3.77836,8.37642 0.369687,0.775988 0.772444,1.54135 0.998036,2.39056 0.199607,0.724019 0.0921264,1.59213 -0.333072,2.04214 -0.418112,0.464175 -1.41733,-0.537404 -1.62048,-0.201969 -0.721657,1.25552 0.403939,2.75316 1.04646,3.97797 0.459451,0.871657 1.26969,1.73977 0.888193,2.73781 -0.0732287,0.194883 -0.347246,0.45827 -0.624806,0.535042 -0.961422,0.2563 -1.80473,-0.357876 -2.31615,-0.892917 -2.0008,-2.07166 -3.74411,-4.15396 -5.33034,-6.64373 -0.610633,-0.950792 -0.278741,-2.19214 -0.954335,-3.12875 -0.388584,-0.537404 -1.12914,-1.40788 -1.80237,-0.816145 -0.218505,0.205513 -0.480711,0.47953 -0.529136,0.779531 -0.210237,1.22245 -0.461813,2.36812 -1.213,3.27285 -0.214962,0.2563 -0.62953,0.673231 -0.71457,0.826775 -1.0252,1.86969 -1.25434,4.0264 -1.58387,6.21853 -0.0803153,0.519687 -0.21378,1.17402 -0.75709,1.44095 -0.570475,0.300001 -0.954335,-0.303545 -1.26615,-0.692129 -0.824413,-1.00158 -1.15749,-2.19922 -1.72678,-3.34844 -0.34134,-0.716932 -0.355513,-1.59213 -0.813783,-2.34568 -0.0188977,-0.043701 -0.155906,-0.0177166 -0.244489,-0.0177166 0.0779531,0.204332 -0.107481,0.387403 -0.196064,0.514963 -0.544491,0.92717 -1.43268,1.35473 -2.40474,1.71733 -0.53268,0.204332 -1.13977,-0.183072 -1.25434,-0.641341 -0.654334,-2.60552 -2.46733,-4.4575 -3.20316,-6.95318 -1.1256,0.00708665 -2.22757,0.259844 -2.9634,-0.823232 -1.62048,-2.37166 -1.29568,-5.02916 -1.50946,-7.63114 -0.3626,0.311812 -0.803153,0.527955 -1.06536,0.951973 -2.57481,4.0949 -3.5634,8.36224 -4.66538,12.9993 -0.218505,0.929532 -0.355513,1.27442 -0.651971,2.14489 -0.605908,1.82245 0.34134,2.08229 1.29568,0.875201 1.66418,-2.12245 1.31694,-0.37323 1.48701,0.134646 0.414569,3.10041 2.03859,6.17483 2.70474,11.4083 0.55394,5.09412 1.63465,10.1965 2.1756,12.7465 1.44213,8.38114 7.05476,16.9123 10.4469,19.0276 -0.402758,-3.48781 0.813783,-4.8012 0.544491,-7.49177l0.687405 -0.134646c0.125197,4.70317 3.65553,10.741 7.7209,14.1012 3.25513,3.7512 5.02443,4.55317 7.7646,8.4461 0.814964,1.34292 1.46221,1.95828 2.14253,3.03072 1.49056,-3.03072 4.20592,-8.39177 4.20592,-14.2985 0,0 0,1.07245 0,0 0,-4.53427 -0.140552,-9.66264 -1.35709,-13.6949 2.44489,1.08308 5.16144,4.9701 7.19531,8.33271 1.22127,-2.56064 0.540947,-9.66855 -1.35355,-13.1564 -1.90158,-4.29687 -5.02443,-10.2 -2.85356,-18.9213 1.35473,3.07797 2.30907,2.94568 4.48112,3.48427 0.406301,-3.22442 -0.141733,-7.78114 0,-8.31854 -0.825594,-1.46457 -2.70828,-3.23151 -2.70828,-3.23151l2.02796 -3.87994c0.950792,-3.89057 -0.943705,-6.98271 -0.744098,-7.58389 -1.0252,-2.21458 -1.72087,-4.10907 -2.14962,-5.57719z"/>
   <path id="path146" class="fil0" d="M69.435 261.892c-0.296458,-0.8315 -1.12205,-1.44568 -0.681499,-2.27363 0.122835,-0.230316 0.569294,-0.171261 0.898823,-0.248033 0.966146,-0.2563 2.10946,-0.1063 2.74489,0.570475 0.503152,0.535042 0.843311,1.16812 1.26142,1.82954 0.421655,0.685042 0.536223,1.50473 0.813783,2.26182 0.310631,0.835043 -0.033071,1.76103 -0.692129,2.15552 -0.765358,0.45827 -1.09016,0.85276 -2.21458,0.355513 -0.421655,-0.186615 -0.681499,-1.08308 -0.881106,-1.43032 -0.259844,-0.465356 -0.240946,-1.77875 -0.584648,-2.21103 -0.314175,-0.369687 -0.484254,-0.501971 -0.664964,-1.00985z"/>
   <path id="path150" class="fil0" d="M68.705 266.427c-0.329529,-0.311812 -0.766539,-0.297639 -1.1067,-0.322442 -0.165355,-0.00708665 -0.642523,0.0295277 -0.624806,0.329529 0.111024,1.62402 -1.7941,2.38938 -2.37166,3.67088 -0.581105,1.32757 0.610633,2.58663 1.5945,3.48427 0.787799,0.716932 2.03505,0.230316 2.98938,-0.0590554 1.57678,-0.467719 1.77639,-2.65277 1.41024,-4.12443 -0.282285,-1.10906 -0.99213,-2.10473 -1.89095,-2.97875z"/>
   <polygon id="path154" class="fil1" points="86.7311,90.6996 68.0814,90.6996 68.0814,94.9929 85.1071,94.9941 "/>
   <polygon id="path158" class="fil1" points="84.6287,78.6878 85.3102,81.8425 88.8394,75.057 "/>
   <polygon id="path162" class="fil1" points="71.7452,87.4031 73.6397,82.7768 79.0704,87.402 "/>
   <polygon id="path166" class="fil1" points="77.985,82.3043 80.496,73.4484 82.25,85.9244 "/>
   <path id="path170" class="fil0" d="M10.0158 260.259c0.140552,1.20473 0.118111,0.4689 0.709846,1.4752 0.544491,0.903547 0.239765,2.11891 0.654334,3.15828 0.348427,-0.450002 1.01811,-0.655515 1.07717,-1.33583 0.513782,2.07875 -1.0063,4.07718 -0.26693,6.16656 0.829138,-0.734649 2.05749,-0.903547 2.71182,-1.88505 -0.0555121,0.835043 -0.28819,1.63347 -0.406301,2.44135 -0.211418,1.39843 0.357876,2.80395 0.525593,4.2638 0.199607,1.84135 2.51103,3.22797 1.85316,5.03624 -1.07363,2.95041 -1.64292,6.07089 -0.673231,8.8524 0.203151,0.585829 0.503152,1.56379 1.18701,1.87796 0.517325,0.233859 1.30158,0.249214 1.80946,0 0.27756,-0.139371 0.513782,-0.581105 0.565751,-0.995674 0.210237,-1.29449 -0.369687,-2.50277 -0.133465,-3.74057 0.292915,-1.60631 0.577562,-3.21261 1.60985,-4.5012 0.210237,-0.259844 1.00276,-0.175985 1.18347,0.226773 0.680318,1.51182 0.406301,3.31655 1.30985,4.70671 0.310631,0.4689 1.37953,0.801972 1.94528,0.281104 1.26497,-1.16693 0.806697,-2.98938 0.969689,-4.50829 0.270474,-2.51812 -0.924807,-3.86813 -1.26142,-6.43349 -0.314175,-2.40119 0.137008,-2.75671 0.909453,-3.74765 0.814964,2.25001 0.822051,4.69963 2.46379,6.69334 0.35197,0.421655 0.995674,0.435829 1.26969,0.212599 1.18701,-1.01339 0.947248,-3.22088 0.0814964,-4.65593 -1.31694,-2.17678 -2.39056,-5.62089 -0.0153544,-7.61933 -0.151182,1.10197 -0.137008,2.3504 0.43701,3.17009 0.787799,1.13032 2.24883,3.4512 2.4567,5.67995 0.0814964,0.793704 1.22717,1.1126 1.93465,0.486616 0.121654,-0.113386 -0.0295277,-0.644885 0.340159,-0.688586 1.13859,-0.157087 1.67599,1.1752 1.62048,2.0941 0.451183,0 1.05,0.153544 1.27914,-0.076772 1.09489,-1.10906 0.829138,-3.75238 0.898823,-5.28546 0.119292,-2.8323 0.803153,-1.75276 1.27323,-2.02796 0,0 0.203151,1.35119 -0.0625987,5.23821 0.406301,4.83782 -0.133465,11.1473 -1.49883,12.6154 -1.21654,-1.20119 -1.35355,-2.28072 -2.97757,-2.68702 -4.33939,2.02088 -4.06655,20.4107 -3.80317,23.2218 -0.0625987,0.673231 -1.0878,0 -1.0878,0 -2.43308,-2.41182 -3.51734,-5.36932 -4.20238,-6.97208 0,0 -0.947248,-1.07953 -0.947248,0 -1.21654,3.89057 -0.813783,14.4898 -0.272836,17.0481 0.54331,3.07679 0.137008,4.82246 -1.35473,7.77287 -0.274017,0.812602 -0.81024,0.948429 -0.81024,-0.131103 -0.137008,-1.20119 -0.957878,-1.73505 -1.35473,-2.95395 0,0 -0.947248,-1.73505 -1.22008,0 -0.822051,4.56026 -3.39687,10.0678 -4.34411,11.8134l-0.683861 0.402758c0.270474,-4.29215 -1.08071,-11.0008 -2.03505,-15.9709 -2.16379,-12.8871 -4.33821,-24.9603 -4.33821,-42.5423 0,-7.92405 0.435829,-16.4363 0.435829,-16.4363l0.237403 0.259844z"/>
   <path id="path174" class="fil0" d="M66.2897 293.065c1.92757,6.04963 4.36537,14.2323 6.00121,17.3174 -0.411025,-3.48781 -5.1579,-17.3174 -5.02443,-18.2469 0.133465,-0.944886 -0.976776,0.929532 -0.976776,0.929532z"/>
   <path id="path178" class="fil1" d="M215.858 65.8184c-0.407482,-0.450002 -1.86851,-0.216143 -2.12363,-0.8315 -0.173623,-0.416931 -0.392128,-0.900004 -0.65079,-1.10906 -0.444096,-0.354332 -1.07599,0.132284 -1.69371,0.231497 -0.837405,0.12756 -1.72796,-0.0484254 -2.57481,-0.325986 -1.45512,1.65709 -5.33506,0.559845 -7.16696,0.692129 -0.229135,0.01063 1.15394,0.786618 1.39843,0.994493 1.28386,1.0878 3.40395,0.99213 4.96892,1.04292 0.255119,0.0118111 0.765358,-0.263387 0.964965,-0.285828 1.68308,-0.225592 3.35907,0.348427 5.13546,0.648428 0.555121,0.0956697 2.3008,-0.47953 1.74213,-1.05709z"/>
   <path id="path182" class="fil1" d="M242.231 68.1428l-4.02521 -2.27599c-0.243308,-0.392128 -0.55394,-0.866933 -0.938981,-1.22245 -0.907091,-0.816145 -1.38426,-1.78938 -2.43072,-2.44135 -1.37599,-0.878744 -2.5193,-2.00906 -4.04057,-2.55828 -0.165355,-0.0555121 -0.343702,0.00708665 -0.525593,-0.0295277 -0.114567,-0.0259844 -0.184253,-0.12756 -0.154725,-0.259844 -0.125197,0 -0.303545,0.0507876 -0.385041,-0.0177166 -0.203151,-0.23504 -0.525593,-0.366143 -0.720476,-0.428742 -0.78898,-0.2563 -1.6878,0.205513 -2.38348,-0.399214 -0.392128,-0.347246 -0.853941,-0.555121 -1.29804,-0.826775 -1.19882,-0.76772 -2.57481,-0.303545 -3.86222,-0.102756 -0.259844,0.0366143 -0.64016,0.37323 -0.910634,0.60827 -0.487797,0.420474 -1.29095,-0.333072 -1.9382,-0.11693 -0.565751,0.183072 -1.1941,0.837405 -0.65079,1.3689 0.588192,0.577562 1.34646,0.980319 2.14489,1.17402 2.33151,0.582286 4.77994,0.01063 6.98153,0.973233 0.636617,0.275198 1.41733,0.594097 1.67599,1.39843 -0.222048,0.043701 -0.461813,0.24567 -0.654334,0.102756 -0.544491,-0.38386 -1.12914,-0.376773 -1.66182,-0.416931 -3.70986,-0.301182 -7.41027,-0.604727 -11.1201,-0.0921264 0,0.933075 0.37323,1.92166 1.23544,2.03859 1.15394,0.150001 2.38938,-0.205513 3.49608,-0.11693 1.20945,0.0838586 2.5004,0.856303 3.70986,1.53308 0.162993,0.0921264 0.44764,0.0838586 0.64016,0 0.544491,-0.218505 1.01811,-0.990949 1.61694,-0.716932 0.366143,0.183072 0.754728,0.340159 1.13977,0.406301 0.851579,0.142914 1.46103,-0.01063 2.26773,0.1063 1.71261,0.252757 3.17836,1.38662 4.86853,1.14213 1.27678,-0.183072 1.86024,0.233859 2.48623,0.800791 -0.369687,-0.317718 2.33741,1.58859 2.56773,1.11615 0.099213,-0.175985 2.84056,-0.333072 2.87009,-0.74646z"/>
   <path id="path186" class="fil1" d="M252.05 67.3208c-1.09489,-0.680318 -1.21772,-2.02796 -1.80237,-3.02364 -0.44764,-0.760633 -1.04646,-1.37481 -1.75749,-1.73741 -3.18899,-1.63583 -6.90594,-4.47994 -9.2776,-4.2638 -0.747641,0.0732287 -1.05,0.871657 -0.625987,1.28505 0.817327,0.77835 2.2571,1.04646 2.37875,2.32678 3.17836,1.57087 8.76028,2.62088 8.49807,6.04963 -0.0177166,0.334253 2.04568,-0.706302 2.58663,-0.636617z"/>
   <path id="path190" class="fil0" d="M68.0814 90.7008l20.0032 -0.033071c-1.09016,2.14489 -1.74213,4.34411 -1.74213,4.34411l-18.2576 -0.0212599 0.00118111 -4.28978 -0.00472443 0z"/>
  </g>
 </g>
</svg>
