<?xml version="1.0" encoding="utf-8"?>
<!-- Generated by IcoMoon.io -->
<!DOCTYPE svg PUBLIC "-//W3C//DTD SVG 1.1//EN" "http://www.w3.org/Graphics/SVG/1.1/DTD/svg11.dtd">
<svg version="1.1" xmlns="http://www.w3.org/2000/svg" xmlns:xlink="http://www.w3.org/1999/xlink" width="32" height="32" viewBox="0 0 32 32">
<g id="icomoon-ignore">
	<line stroke-width="1" x1="" y1="" x2="" y2="" stroke="#449FDB" opacity=""></line>
</g>
	<path d="M22.544 3.574c-1.826-1.317-4.115-1.974-6.874-1.974-2.099 0-3.869 0.464-5.307 1.389-2.283 1.45-3.496 3.91-3.643 7.382h5.29c0-1.011 0.294-1.986 0.885-2.923s1.592-1.406 3.005-1.406c1.435 0 2.426 0.381 2.966 1.141 0.542 0.763 0.813 1.606 0.813 2.531 0 0.805-0.403 1.541-0.89 2.211-0.267 0.39-0.621 0.749-1.058 1.078 0 0-2.869 1.84-4.13 3.318-0.731 0.858-0.797 2.141-0.861 3.982-0.005 0.131 0.045 0.402 0.504 0.402s3.707 0 4.115 0 0.493-0.302 0.499-0.435c0.029-0.67 0.104-1.013 0.227-1.4 0.232-0.731 0.859-1.37 1.566-1.918l1.456-1.005c1.314-1.024 2.363-1.864 2.826-2.523 0.79-1.085 1.346-2.419 1.346-4.002 0-2.584-0.914-4.533-2.736-5.848zM15.586 23.878c-1.824-0.054-3.328 1.206-3.386 3.184-0.058 1.976 1.373 3.282 3.197 3.336 1.904 0.056 3.368-1.165 3.426-3.141 0.056-1.978-1.333-3.323-3.237-3.379z" fill="#ffffff"></path>
</svg>
